<svg width="102" height="105" viewBox="0 0 102 105" fill="none" xmlns="http://www.w3.org/2000/svg">
<path d="M101.7 53.6C101.7 67.8 95.8998 80.6 86.5998 89.8C77.4998 98.9 64.8998 104.4 50.9998 104.4C37.1998 104.4 24.5998 98.8 15.3998 89.8C6.0998 80.6 0.299805 67.8 0.299805 53.6C0.299805 25.5 22.9998 2.79999 50.9998 2.79999C78.9998 2.79999 101.7 25.6 101.7 53.6Z" fill="#F2F2F2"/>
<path d="M97.6 20.3C99.864 20.3 101.7 18.46 101.7 16.2C101.7 13.93 99.864 12.1 97.6 12.1C95.335 12.1 93.5 13.93 93.5 16.2C93.5 18.46 95.335 20.3 97.6 20.3Z" fill="#F2F2F2"/>
<path d="M83.801 5.6C85.347 5.6 86.601 4.34 86.601 2.8C86.601 1.25 85.347 0 83.801 0C82.254 0 81.001 1.25 81.001 2.8C81.001 4.34 82.254 5.6 83.801 5.6Z" fill="#F2F2F2"/>
<path d="M4.0998 12.225C5.6458 12.225 6.8998 10.965 6.8998 9.425C6.8998 7.875 5.6458 6.625 4.0998 6.625C2.5528 6.625 1.2998 7.875 1.2998 9.425C1.2998 10.965 2.5528 12.225 4.0998 12.225Z" fill="#F2F2F2"/>
<path d="M9.9002 102.4C12.7712 102.4 15.1002 100.07 15.1002 97.2C15.1002 94.33 12.7712 92 9.9002 92C7.0282 92 4.7002 94.33 4.7002 97.2C4.7002 100.07 7.0282 102.4 9.9002 102.4Z" fill="#F2F2F2"/>
<path d="M86.6004 27V89.8C77.5004 98.9 64.9004 104.4 51.0004 104.4C37.2004 104.4 24.6004 98.8 15.4004 89.8V27H86.6004Z" fill="#999999"/>
<path opacity="0.5" d="M52.2578 59.05L38.3288 45.12L33.5908 49.86L47.5208 63.79L52.2578 59.05Z" fill="#F2F2F2"/>
<path opacity="0.5" d="M63.6835 38.2L42.8945 58.99L47.6325 63.72L68.4215 42.93L63.6835 38.2Z" fill="#F2F2F2"/>
<path d="M69.1998 72.3H32.7998V76.9H69.1998V72.3Z" fill="#F2F2F2"/>
<path d="M69.1998 82.4H32.7998V87H69.1998V82.4Z" fill="#F2F2F2"/>
<path d="M60.3012 92.6H41.7012V97.2H60.3012V92.6Z" fill="#F2F2F2"/>
</svg>
