<svg width="24" height="25" viewBox="0 0 24 25" fill="none" xmlns="http://www.w3.org/2000/svg">
<path d="M5 19.5H19V20.5C19 21.6046 18.1046 22.5 17 22.5H7C5.89543 22.5 5 21.6046 5 20.5V19.5Z" fill="#020202"/>
<path fill-rule="evenodd" clip-rule="evenodd" d="M13 5.5C13 4.94772 13.4477 4.5 14 4.5C14.5523 4.5 15 4.94772 15 5.5V13.5C15 14.0523 15.4477 14.5 16 14.5C16.5523 14.5 17 14.0523 17 13.5V11.5298C17.5523 11.5997 17.9726 11.7909 18.2725 12.0868C18.6537 12.4629 19 13.1661 19 14.5C19 15.6823 18.4001 16.8449 17.683 17.8608C17.3878 18.2791 17.095 18.6427 16.8356 18.9648C16.785 19.0277 16.7357 19.089 16.6879 19.1487C16.5947 19.2652 16.5 19.385 16.415 19.5H18.9604C19.0771 19.3464 19.1972 19.1839 19.317 19.0142C20.0999 17.9051 21 16.3177 21 14.5C21 12.8339 20.5628 11.5371 19.6773 10.6632C18.925 9.92093 17.9655 9.59878 17 9.51997V5.5C17 3.84315 15.6569 2.5 14 2.5C12.3431 2.5 11 3.84315 11 5.5V7.67071C10.6872 7.56015 10.3506 7.5 10 7.5C9.1115 7.5 8.31321 7.88625 7.76389 8.5H7C4.79086 8.5 3 10.2909 3 12.5V13.5C3 15.5085 3.85023 17.441 4.63176 18.8086C4.77227 19.0545 4.91268 19.2858 5.04867 19.5H7.48194C7.43774 19.442 7.38923 19.3773 7.33713 19.3064C7.07303 18.9469 6.72023 18.4323 6.36824 17.8164C5.64977 16.559 5 14.9915 5 13.5V12.5C5 11.3954 5.89543 10.5 7 10.5V12.5C7 13.0523 7.44772 13.5 8 13.5C8.55228 13.5 9 13.0523 9 12.5V10.5C9 9.94772 9.44772 9.5 10 9.5C10.5523 9.5 11 9.94772 11 10.5V11.5C11 12.0523 11.4477 12.5 12 12.5C12.5523 12.5 13 12.0523 13 11.5V10.5V5.5Z" fill="#020202"/>
</svg>
