<svg width="30" height="30" viewBox="0 0 30 30" fill="none" xmlns="http://www.w3.org/2000/svg">
<path d="M30 15C30 16.28 28.4275 17.335 28.1125 18.515C27.7875 19.735 28.61 21.435 27.9925 22.5025C27.365 23.5875 25.4775 23.7175 24.5975 24.5975C23.7175 25.4775 23.5875 27.365 22.5025 27.9925C21.435 28.61 19.735 27.7875 18.515 28.1125C17.335 28.4275 16.28 30 15 30C13.72 30 12.665 28.4275 11.485 28.1125C10.265 27.7875 8.565 28.61 7.4975 27.9925C6.4125 27.365 6.2825 25.4775 5.4025 24.5975C4.5225 23.7175 2.635 23.5875 2.0075 22.5025C1.39 21.435 2.2125 19.735 1.8875 18.515C1.5725 17.335 0 16.28 0 15C0 13.72 1.5725 12.665 1.8875 11.485C2.2125 10.265 1.39 8.565 2.0075 7.4975C2.635 6.4125 4.5225 6.2825 5.4025 5.4025C6.2825 4.5225 6.4125 2.635 7.4975 2.0075C8.565 1.39 10.265 2.2125 11.485 1.8875C12.665 1.5725 13.72 0 15 0C16.28 0 17.335 1.5725 18.515 1.8875C19.735 2.2125 21.435 1.39 22.5025 2.0075C23.5875 2.635 23.7175 4.5225 24.5975 5.4025C25.4775 6.2825 27.365 6.4125 27.9925 7.4975C28.61 8.565 27.7875 10.265 28.1125 11.485C28.4275 12.665 30 13.72 30 15Z" fill="#FF6900"/>
<path d="M19.3348 10.53L13.6248 16.24L10.6648 13.2825C10.0223 12.64 8.97984 12.64 8.33734 13.2825C7.69484 13.925 7.69484 14.9675 8.33734 15.61L12.4898 19.7625C13.1148 20.3875 14.1298 20.3875 14.7548 19.7625L21.6598 12.8575C22.3023 12.215 22.3023 11.1725 21.6598 10.53C21.0173 9.88747 19.9773 9.88747 19.3348 10.53Z" fill="white"/>
</svg>
