<svg width="24" height="25" viewBox="0 0 24 25" fill="none" xmlns="http://www.w3.org/2000/svg">
<path fill-rule="evenodd" clip-rule="evenodd" d="M4 6.11426C4 3.90512 5.79086 2.11426 8 2.11426H16C18.2091 2.11426 20 3.90512 20 6.11426V21.1143C20 21.4504 19.8311 21.7641 19.5505 21.9491C19.2699 22.1341 18.915 22.1658 18.6061 22.0334L12 19.2022L5.39392 22.0334C5.08495 22.1658 4.73014 22.1341 4.44951 21.9491C4.16888 21.7641 4 21.4504 4 21.1143V6.11426ZM8 4.11426C6.89543 4.11426 6 5.00969 6 6.11426V19.5977L11.6061 17.1951C11.8576 17.0873 12.1424 17.0873 12.3939 17.1951L18 19.5977V6.11426C18 5.00969 17.1046 4.11426 16 4.11426H8Z" fill="#4D4D4D"/>
<path fill-rule="evenodd" clip-rule="evenodd" d="M15.7071 8.40715C16.0976 8.79768 16.0976 9.43084 15.7071 9.82136L11.7071 13.8214C11.3166 14.2119 10.6834 14.2119 10.2929 13.8214L8.29289 11.8214C7.90237 11.4308 7.90237 10.7977 8.29289 10.4072C8.68342 10.0166 9.31658 10.0166 9.70711 10.4072L11 11.7L14.2929 8.40715C14.6834 8.01663 15.3166 8.01663 15.7071 8.40715Z" fill="#999999"/>
</svg>
