<svg width="24" height="25" viewBox="0 0 24 25" fill="none" xmlns="http://www.w3.org/2000/svg">
<path d="M12.013 2.11426C6.49043 2.11426 2.01353 6.56186 2.00003 12.0847C1.98653 17.6005 6.41043 22.1041 12.001 22.1101C17.504 22.116 22.007 17.6119 21.998 12.1188C21.988 6.59586 17.536 2.11426 12.013 2.11426ZM12 4.11146C16.418 4.11146 20 7.69316 20 12.1115C20 14.3863 19.033 16.4094 17.606 17.8285C15.982 16.712 14.003 16.1115 12 16.1115C9.99303 16.1115 8.06973 16.7003 6.40603 17.8306C4.89493 16.3136 4.00003 14.3926 4.00003 12.1115C4.00003 7.69316 7.58183 4.11146 12 4.11146ZM12 18.1115C13.316 18.1115 14.753 18.4612 15.869 19.109C14.698 19.7865 13.339 20.1115 12 20.1115C10.661 20.1115 9.28463 19.7501 8.11273 19.1151C9.26753 18.4674 10.692 18.1115 12 18.1115Z" fill="#4D4D4D"/>
<path d="M12 6.11145C11.448 6.11145 11 6.55915 11 7.11145C11 7.66365 11.448 8.11145 12 8.11145C12.552 8.11145 13 7.66365 13 7.11145C13 6.55915 12.552 6.11145 12 6.11145ZM8.4688 7.51765C7.9165 7.51765 7.4688 7.96535 7.4688 8.51765C7.4688 9.06995 7.9165 9.51765 8.4688 9.51765C9.0211 9.51765 9.4688 9.06995 9.4688 8.51765C9.4688 7.96535 9.0211 7.51765 8.4688 7.51765ZM15.688 7.61145C15.469 7.57985 15.227 7.61925 15 7.76765C14.855 7.86275 13.192 8.96985 12.688 9.33015C12.566 9.41725 12.459 9.49635 12.344 9.58015C10.53 10.9004 10 11.3567 10 12.1115C10 13.216 10.895 14.1115 12 14.1115C12.751 14.1115 13.204 13.6022 14.531 11.799C14.615 11.6852 15.51 10.3977 15.875 9.86145C16.094 9.53975 16.279 9.28745 16.375 9.14265C16.824 8.46345 16.344 7.70625 15.688 7.61145ZM7 11.1115C6.4477 11.1115 6 11.5592 6 12.1115C6 12.6637 6.4477 13.1115 7 13.1115C7.5523 13.1115 8 12.6637 8 12.1115C8 11.5592 7.5523 11.1115 7 11.1115ZM17 11.1115C16.448 11.1115 16 11.5592 16 12.1115C16 12.6637 16.448 13.1115 17 13.1115C17.552 13.1115 18 12.6637 18 12.1115C18 11.5592 17.552 11.1115 17 11.1115Z" fill="#999999"/>
</svg>
