<svg width="24" height="25" viewBox="0 0 24 25" fill="none" xmlns="http://www.w3.org/2000/svg">
<path d="M15.5 3.11426C13.0147 3.11426 11 5.12926 11 7.61426C11 10.0993 13.0147 12.1143 15.5 12.1143C17.9853 12.1143 20 10.0993 20 7.61426C20 5.12926 17.9853 3.11426 15.5 3.11426ZM15.5 5.11426C16.8807 5.11426 18 6.23326 18 7.61426C18 8.99526 16.8807 10.1143 15.5 10.1143C14.1193 10.1143 13 8.99526 13 7.61426C13 6.23326 14.1193 5.11426 15.5 5.11426ZM12.0625 13.4583C10.2284 14.2153 9 16.0703 9 18.1143V20.1143C9 20.6663 9.4477 21.1143 10 21.1143H21C21.5523 21.1143 22 20.6663 22 20.1143V18.1143C22 16.1183 20.7648 14.3083 18.9375 13.5203C18.6803 13.4093 18.3806 13.4063 18.125 13.5203C17.2402 13.9173 16.3782 14.1143 15.5 14.1143C14.6248 14.1143 13.7598 13.9063 12.8438 13.4893C12.5919 13.3743 12.3183 13.3523 12.0625 13.4583ZM12.447 15.5043C13.3918 15.8623 14.5309 16.1143 15.5 16.1143C16.4615 16.1143 17.5535 15.8792 18.4792 15.5372C19.3818 16.0512 20 17.0133 20 18.1143V19.1143H11V18.1143C11 16.9493 11.6559 15.9673 12.447 15.5043Z" fill="#FF6900"/>
<path d="M8 4.11426C5.7909 4.11426 4 5.90526 4 8.11426C4 10.3233 5.7909 12.1143 8 12.1143C8.8294 12.1143 9.615 11.8613 10.2812 11.3953C10.7339 11.0793 10.8476 10.4423 10.5312 9.98926C10.2148 9.53626 9.6089 9.45426 9.1562 9.77026C8.8233 10.0033 8.4162 10.1143 8 10.1143C6.8954 10.1143 6 9.21926 6 8.11426C6 7.00926 6.8954 6.11426 8 6.11426C8.3262 6.11426 8.6246 6.18625 8.9062 6.33325C9.3962 6.58825 10.0264 6.41627 10.2812 5.92627C10.5361 5.43727 10.3337 4.80625 9.8438 4.55225C9.2787 4.25825 8.6494 4.11426 8 4.11426ZM5.0625 13.4583C3.2284 14.2153 2 16.0703 2 18.1143V20.1143C2 20.6663 2.4477 21.1143 3 21.1143H7C7.5523 21.1143 8 20.6663 8 20.1143C8 19.5623 7.5523 19.1143 7 19.1143H4V18.1143C4 16.9903 4.6667 15.9583 5.433 15.5043C6.1537 15.8083 6.9161 16.0383 7.5941 16.0953C8.1445 16.1423 8.6408 15.7273 8.6875 15.1763C8.7342 14.6263 8.3365 14.1603 7.7862 14.1133C7.3472 14.0763 6.8674 13.9443 6.3125 13.7083C6.1785 13.6513 6.1007 13.6063 5.8438 13.4893C5.5919 13.3743 5.3183 13.3523 5.0625 13.4583Z" fill="#FFC499"/>
</svg>
