<svg width="24" height="25" viewBox="0 0 24 25" fill="none" xmlns="http://www.w3.org/2000/svg">
<path d="M11.999 2.11426C6.47602 2.11426 1.99902 6.59126 1.99902 12.1143C1.99902 17.6373 6.47602 22.1143 11.999 22.1143C17.522 22.1143 21.999 17.6373 21.999 12.1143C21.999 6.59126 17.522 2.11426 11.999 2.11426ZM11.999 4.11426C16.417 4.11426 19.999 7.69626 19.999 12.1143C19.999 16.5323 16.417 20.1143 11.999 20.1143C7.58102 20.1143 3.99902 16.5323 3.99902 12.1143C3.99902 7.69626 7.58102 4.11426 11.999 4.11426ZM11.999 10.1143C10.894 10.1143 9.99902 11.0093 9.99902 12.1143C9.99902 13.2193 10.894 14.1143 11.999 14.1143C13.104 14.1143 13.999 13.2193 13.999 12.1143C13.999 11.0093 13.104 10.1143 11.999 10.1143Z" fill="#FF6900"/>
<path d="M12 6.11426C8.686 6.11426 6 8.80026 6 12.1143C6 15.4283 8.686 18.1143 12 18.1143C15.314 18.1143 18 15.4283 18 12.1143C18 8.80026 15.314 6.11426 12 6.11426ZM12 8.11426C14.209 8.11426 16 9.90526 16 12.1143C16 14.3233 14.209 16.1143 12 16.1143C9.791 16.1143 8 14.3233 8 12.1143C8 9.90526 9.791 8.11426 12 8.11426Z" fill="#FFC499"/>
</svg>
