<svg width="24" height="25" viewBox="0 0 24 25" fill="none" xmlns="http://www.w3.org/2000/svg">
<path fill-rule="evenodd" clip-rule="evenodd" d="M8 4.11426H16C17.1046 4.11426 18 5.00969 18 6.11426V18.1143C18 19.2188 17.1046 20.1143 16 20.1143H8C6.89543 20.1143 6 19.2188 6 18.1143V6.11426C6 5.00969 6.89543 4.11426 8 4.11426ZM4 6.11426C4 3.90512 5.79086 2.11426 8 2.11426H16C18.2091 2.11426 20 3.90512 20 6.11426V18.1143C20 20.3234 18.2091 22.1143 16 22.1143H8C5.79086 22.1143 4 20.3234 4 18.1143V6.11426ZM10 6.11426C9.44772 6.11426 9 6.56197 9 7.11426C9 7.66654 9.44772 8.11426 10 8.11426H14C14.5523 8.11426 15 7.66654 15 7.11426C15 6.56197 14.5523 6.11426 14 6.11426H10Z" fill="#FFC499"/>
<path fill-rule="evenodd" clip-rule="evenodd" d="M11.9999 16.1143C13.6568 16.1143 14.9999 14.7711 14.9999 13.1143C14.9999 11.4574 13.6568 10.1143 11.9999 10.1143C10.3431 10.1143 8.99994 11.4574 8.99994 13.1143C8.99994 14.7711 10.3431 16.1143 11.9999 16.1143ZM12.9999 17.1143C14.8487 17.1143 16.463 18.1176 17.3282 19.6095C16.975 19.9235 16.5098 20.1143 15.9999 20.1143H7.99993C7.49012 20.1143 7.02486 19.9235 6.67163 19.6095C7.53683 18.1176 9.15122 17.1143 10.9999 17.1143H12.9999Z" fill="#FF6900"/>
</svg>
