<svg width="24" height="25" viewBox="0 0 24 25" fill="none" xmlns="http://www.w3.org/2000/svg">
<path d="M3 7.11426C3 4.90526 4.791 3.11426 7 3.11426H9C9.55201 3.11426 10 3.56226 10 4.11426C10 4.66626 9.55201 5.11426 9 5.11426H7C5.895 5.11426 5 6.00926 5 7.11426V17.1143C5 18.2193 5.895 19.1143 7 19.1143H17C18.105 19.1143 19 18.2193 19 17.1143V7.11426C19 6.00926 18.105 5.11426 17 5.11426H15C13.895 5.11426 13 6.00926 13 7.11426L13 13.1143H11V7.11426C11 4.90526 12.791 3.11426 15 3.11426H17C19.209 3.11426 21 4.90526 21 7.11426V17.1143C21 19.3233 19.209 21.1143 17 21.1143H7C4.791 21.1143 3 19.3233 3 17.1143V7.11426Z" fill="#4D4D4D"/>
<path d="M16 13.1143H8L12 17.1143L16 13.1143Z" fill="#999999"/>
</svg>
