<svg width="24" height="25" viewBox="0 0 24 25" fill="none" xmlns="http://www.w3.org/2000/svg">
<path d="M14.2388 2.14006C13.6169 1.99574 13.0271 2.47532 13.0181 3.11985C13.0091 3.83407 12.987 9.71761 12.987 10.7998C12.991 11.2011 13.0291 11.4252 13.5819 11.7163C13.652 11.7563 16.8025 13.2892 17.4625 13.6126C17.6007 13.6805 19.6486 14.7377 20.2475 15.0663C20.8293 15.3859 21.5704 15.055 21.7186 14.4027C21.8948 13.6277 22 12.7461 22 12.0007C22 7.26306 18.7523 3.18691 14.2388 2.14006ZM15.0069 4.50621C17.9882 5.71417 19.9971 8.67946 19.9971 12.0007C19.9971 12.1826 19.9941 12.4142 19.9781 12.6157C19.5404 12.3921 19.1839 12.2151 18.6201 11.9375C18.4879 11.8726 15.4986 10.4187 14.9899 10.1677C14.9919 8.86403 14.9989 6.19214 15.0069 4.50621ZM11.547 13.3598C11.4929 13.3869 4.59296 16.8176 4.50583 16.8679C3.96906 17.1778 3.83386 17.9007 4.22442 18.3849C6.11414 20.7288 8.9342 22.1143 11.9856 22.1143C15.047 22.1143 17.8891 20.7106 19.7778 18.3532C20.1744 17.8591 20.0211 17.1349 19.4653 16.8362C19.3302 16.7637 12.4783 13.3868 12.4242 13.3598C12.1458 13.2226 11.8254 13.2215 11.547 13.3598ZM11.9856 15.3825C12.6185 15.695 15.6999 17.211 17.3443 18.0257C15.8341 19.3779 13.9634 20.0916 11.9856 20.0916C10.0067 20.0916 8.13706 19.3762 6.65593 18.0359C8.26124 17.2354 11.3457 15.7013 11.9856 15.3825Z" fill="#4D4D4D"/>
<path d="M9.75 2.13989C5.241 3.17889 2 7.23229 2 11.9455C2 12.6778 2.10801 13.5685 2.28101 14.3341C2.42801 14.9813 3.13699 15.3071 3.71899 14.994C4.12499 14.7758 5.27999 14.1891 6.93799 13.3598C6.95999 13.3484 10.384 11.6265 10.438 11.5998C10.779 11.4302 11 11.0719 11 10.6884C11 10.625 10.976 3.77235 10.969 3.11422C10.962 2.47238 10.372 1.99658 9.75 2.13989ZM8.992 4.48892C9 6.35029 8.998 9.29601 9 10.0913C8.268 10.4574 5.64402 11.759 4.02802 12.575C4.01202 12.3742 4 12.1239 4 11.9455C4 8.64652 5.967 5.76748 8.992 4.48892Z" fill="#999999"/>
</svg>
