<svg width="24" height="25" viewBox="0 0 24 25" fill="none" xmlns="http://www.w3.org/2000/svg">
<path fill-rule="evenodd" clip-rule="evenodd" d="M10.019 11.1143C10.0955 9.11701 10.3973 7.35683 10.8274 6.06652C11.0794 5.31042 11.3575 4.77067 11.6177 4.4405C11.7455 4.27834 11.8494 4.19178 11.9186 4.14933C11.9515 4.12909 11.9736 4.12071 11.9847 4.11731C11.9948 4.11424 11.999 4.11425 11.9999 4.11426L12 4.11426L12.0001 4.11426C12.001 4.11425 12.0052 4.11424 12.0153 4.11731C12.0264 4.12071 12.0485 4.12909 12.0814 4.14933C12.1506 4.19178 12.2545 4.27834 12.3823 4.4405C12.6425 4.77067 12.9206 5.31042 13.1726 6.06652C13.6027 7.35683 13.9045 9.11701 13.981 11.1143H10.019ZM8.01766 11.1143H3C2.44772 11.1143 2 11.562 2 12.1143C2 12.6665 2.44772 13.1143 3 13.1143H8.01766C8.09487 15.288 8.42177 17.2698 8.93 18.7944C9.22085 19.667 9.58923 20.4453 10.0469 21.026C10.4956 21.5954 11.1481 22.1143 12 22.1143C12.8519 22.1143 13.5044 21.5954 13.9531 21.026C14.4108 20.4453 14.7791 19.667 15.07 18.7944C15.5782 17.2698 15.9051 15.288 15.9823 13.1143H21C21.5523 13.1143 22 12.6665 22 12.1143C22 11.562 21.5523 11.1143 21 11.1143H15.9823C15.9051 8.94056 15.5782 6.95874 15.07 5.43407C14.7791 4.56149 14.4108 3.78322 13.9531 3.20255C13.5044 2.63315 12.8519 2.11426 12 2.11426C11.1481 2.11426 10.4956 2.63315 10.0469 3.20255C9.58923 3.78322 9.22085 4.56149 8.93 5.43407C8.42177 6.95874 8.09487 8.94056 8.01766 11.1143ZM13.981 13.1143C13.9045 15.1115 13.6027 16.8717 13.1726 18.162C12.9206 18.9181 12.6425 19.4578 12.3823 19.788C12.2545 19.9502 12.1506 20.0367 12.0814 20.0792C12.0485 20.0994 12.0264 20.1078 12.0153 20.1112C12.0052 20.1143 12.001 20.1143 12.0001 20.1143H12H11.9999C11.999 20.1143 11.9948 20.1143 11.9847 20.1112C11.9736 20.1078 11.9515 20.0994 11.9186 20.0792C11.8494 20.0367 11.7455 19.9502 11.6177 19.788C11.3575 19.4578 11.0794 18.9181 10.8274 18.162C10.3973 16.8717 10.0955 15.1115 10.019 13.1143H13.981Z" fill="#999999"/>
<path fill-rule="evenodd" clip-rule="evenodd" d="M12 4.11426C7.58172 4.11426 4 7.69598 4 12.1143C4 16.5325 7.58172 20.1143 12 20.1143C16.4183 20.1143 20 16.5325 20 12.1143C20 7.69598 16.4183 4.11426 12 4.11426ZM2 12.1143C2 6.59141 6.47715 2.11426 12 2.11426C17.5228 2.11426 22 6.59141 22 12.1143C22 17.6371 17.5228 22.1143 12 22.1143C6.47715 22.1143 2 17.6371 2 12.1143Z" fill="#4D4D4D"/>
</svg>
