<svg width="32" height="32" viewBox="0 0 32 32" fill="none" xmlns="http://www.w3.org/2000/svg">
<g clip-path="url(#clip0_7424_19392)">
<path fill-rule="evenodd" clip-rule="evenodd" d="M30.6663 16.0001L26.6663 21.3334L22.6663 16.0001C31.6937 16.0001 23.0568 16.0001 30.6663 16.0001ZM1.33301 16.0001L5.33288 10.6667L9.33289 16.0001C1.96961 16.0001 9.86633 16.0001 1.33301 16.0001Z" fill="#1A1A1A"/>
<path fill-rule="evenodd" clip-rule="evenodd" d="M16 6.66667C14.2978 6.66667 12.7058 7.12114 11.3343 7.91448C10.9248 8.15138 10.5347 8.41862 10.1673 8.71317C9.59273 9.17375 8.75359 9.08136 8.293 8.5068C7.83242 7.93224 7.92481 7.09309 8.49937 6.63251C8.9712 6.25428 9.47237 5.91086 9.99903 5.6062C11.7654 4.5844 13.8165 4 16 4C22.6274 4 28 9.37258 28 16H25.3333C25.3333 10.8453 21.1547 6.66667 16 6.66667ZM4 16H6.66667C6.66667 21.1547 10.8453 25.3333 16 25.3333C18.2085 25.3333 20.2346 24.5679 21.8327 23.2868C22.4073 22.8262 23.2464 22.9186 23.707 23.4932C24.1676 24.0678 24.0752 24.9069 23.5006 25.3675C21.4465 27.0142 18.8365 28 16 28C9.37258 28 4 22.6274 4 16Z" fill="#007A53"/>
</g>
<defs>
<clipPath id="clip0_7424_19392">
<rect width="32" height="32" fill="white"/>
</clipPath>
</defs>
</svg>
