<svg width="37" height="48" viewBox="0 0 37 48" fill="none" xmlns="http://www.w3.org/2000/svg">
<g clip-path="url(#clip0_10716_188)">
<path fill-rule="evenodd" clip-rule="evenodd" d="M0.00195312 0H36.4065V36.4046H0.00195312V0Z" fill="#FF6900"/>
<mask id="mask0_10716_188" style="mask-type:luminance" maskUnits="userSpaceOnUse" x="0" y="0" width="37" height="37">
<path d="M0.00390625 0H36.4085V36.4046H0.00390625V0Z" fill="white"/>
</mask>
<g mask="url(#mask0_10716_188)">
<path fill-rule="evenodd" clip-rule="evenodd" d="M-3.18555 8.99268V14.4824C2.10088 14.4824 21.0578 14.5143 26.3769 14.5143C29.5167 14.5143 29.5167 19.289 26.3769 19.289C23.4292 19.289 21.4058 19.3528 18.4262 19.3528C13.7798 19.3528 10.8148 22.1713 10.7132 26.5627C10.6563 28.9962 10.7132 36.6178 10.7132 39.0212H16.1693V27.2518C16.1693 25.9382 17.2891 24.8485 18.5407 24.8485H26.3795C37.141 24.8485 36.9989 8.99268 26.3795 8.99268H-3.18555Z" fill="white"/>
</g>
</g>
<g clip-path="url(#clip1_10716_188)">
<path d="M33.2023 39.1699L35.4656 45.3351C35.7736 46.1743 36.0819 47.0138 36.3904 47.8536C36.406 47.8951 36.4199 47.9401 36.438 47.9886H33.9386C33.929 47.9635 33.9169 47.9332 33.9065 47.902C33.7058 47.2886 33.5042 46.6752 33.3061 46.0601C33.3008 46.0287 33.2833 46.0006 33.2573 45.9821C33.2314 45.9636 33.1991 45.9562 33.1677 45.9615C32.2195 45.9615 31.2715 45.9615 30.3239 45.9615C30.2908 45.9568 30.2571 45.9653 30.2302 45.9852C30.2034 46.0051 30.1854 46.0348 30.1803 46.0679C29.9787 46.6778 29.7711 47.2852 29.5695 47.8951C29.5641 47.9283 29.546 47.958 29.519 47.9779C29.492 47.9978 29.4582 48.0063 29.425 48.0015C28.7121 48.0015 27.9992 48.0015 27.2872 48.0015C27.2534 48.0015 27.2197 48.0015 27.1738 47.9963C27.2361 47.8354 27.2932 47.684 27.3512 47.5335C28.4182 44.784 29.4844 42.0365 30.5497 39.291C30.5661 39.2495 30.5878 39.2106 30.6068 39.1699H33.2023ZM30.8404 44.2164H32.7317L31.8198 41.1728H31.7921C31.4754 42.1868 31.1596 43.1973 30.8404 44.2164Z" fill="#333333"/>
<path d="M3.54718 39.1699C3.74357 39.1838 3.93996 39.195 4.13636 39.2114C4.7385 39.2553 5.32087 39.4453 5.83295 39.7652C6.1209 39.9404 6.3658 40.178 6.54955 40.4606C6.73329 40.7432 6.85118 41.0635 6.89451 41.3977C6.98084 41.8969 6.9419 42.4097 6.78117 42.8901C6.48874 43.7302 5.88313 44.2407 5.03959 44.4812C4.65611 44.588 4.25928 44.6393 3.86123 44.6334C3.40443 44.6334 2.94762 44.6334 2.49168 44.6334H2.36969C2.35498 45.7582 2.34027 46.869 2.32557 47.9946H0V47.5793C0.00519099 47.4868 0.0138427 47.3942 0.0147078 47.3025C0.0389325 44.6383 0.0628687 41.9748 0.0865166 39.3118C0.089723 39.2642 0.0954992 39.2169 0.10382 39.1699H3.54718ZM2.34806 40.8501L2.28404 42.9619C2.80314 42.9412 3.31705 43.0043 3.82057 42.904C3.9685 42.882 4.10936 42.8262 4.23213 42.7408C4.3549 42.6554 4.45625 42.5428 4.52828 42.4117C4.61567 42.2299 4.65186 42.0277 4.63296 41.8268C4.61566 41.3458 4.39504 41.0586 3.93131 40.9349C3.41481 40.7964 2.88619 40.876 2.34806 40.8501Z" fill="#333333"/>
<path d="M14.8468 39.1699C14.8468 39.8101 14.8468 40.4495 14.8372 41.0897C14.8222 42.7232 14.807 44.3563 14.7914 45.9892C14.7914 46.0194 14.7914 46.0497 14.7966 46.0921H18.7426V47.9886H12.5013C12.5013 47.9548 12.4961 47.9211 12.4961 47.8882C12.522 45.0274 12.5486 42.166 12.5757 39.304C12.5757 39.2599 12.5809 39.2175 12.5835 39.1699H14.8468Z" fill="#333333"/>
<path d="M22.6325 39.1699C22.6325 39.4883 22.6325 39.8067 22.6325 40.1216C22.6147 42.0619 22.5959 44.003 22.5763 45.945V46.0912H26.5258V47.9877H20.2854C20.2818 47.959 20.2797 47.9301 20.2793 47.9012C20.3041 45.0496 20.3301 42.1983 20.3572 39.3473C20.3572 39.2893 20.3649 39.2305 20.3693 39.1742L22.6325 39.1699Z" fill="#333333"/>
<path d="M10.5102 47.9946H8.22266C8.24457 45.0704 8.26591 42.1479 8.28668 39.2271H10.5724C10.5543 42.1504 10.5309 45.0661 10.5102 47.9946Z" fill="#333333"/>
</g>
<defs>
<clipPath id="clip0_10716_188">
<rect width="36.4373" height="36.4373" fill="white"/>
</clipPath>
<clipPath id="clip1_10716_188">
<rect width="36.4373" height="8.82988" fill="white" transform="translate(0 39.1699)"/>
</clipPath>
</defs>
</svg>
