<svg width="20" height="21" viewBox="0 0 20 21" fill="none" xmlns="http://www.w3.org/2000/svg">
<g clip-path="url(#clip0_7319_19795)">
<path d="M5.83333 3C5.37308 3 5 3.37314 5 3.8329C5 4.29267 5.37308 4.66581 5.83333 4.66581C5.83333 9.11051 5.82465 13.5553 5.83415 18L10 17.9923C10.46 17.9923 10.8333 17.6191 10.8333 17.1594V15.4936C10.8333 15.0338 11.2067 14.6607 11.6667 14.6607C12.1267 14.6607 12.5 15.0338 12.5 15.4936V17.1594C12.5 17.6191 12.8733 17.9923 13.3333 17.9923H16.6667C17.1267 17.9923 17.5 17.6191 17.5 17.1594V4.66581C17.96 4.66581 18.3333 4.29267 18.3333 3.8329C18.3333 3.37314 17.96 3 17.5 3H5.83333ZM7.5 4.66581H15.8333V16.3265H14.1667V15.4936C14.1667 14.1134 13.0475 12.9948 11.6667 12.9948C10.2858 12.9948 9.16667 14.1134 9.16667 15.4936V16.3265H7.5V4.66581Z" fill="#FF6900"/>
<path fill-rule="evenodd" clip-rule="evenodd" d="M2.49935 6.3335C2.03911 6.3335 1.66602 6.70659 1.66602 7.16683C1.66602 7.62707 2.03911 8.00016 2.49935 8.00016V17.1668C2.49935 17.6271 2.87244 18.0002 3.33268 18.0002H5.83268V16.3335H4.16602V8.00016H5.83268V6.3335H2.49935ZM10.8327 7.16683C10.8327 7.62707 10.4596 8.00016 9.99935 8.00016C9.53911 8.00016 9.16602 7.62707 9.16602 7.16683C9.16602 6.70659 9.53911 6.3335 9.99935 6.3335C10.4596 6.3335 10.8327 6.70659 10.8327 7.16683ZM14.166 7.16683C14.166 7.62707 13.7929 8.00016 13.3327 8.00016C12.8724 8.00016 12.4993 7.62707 12.4993 7.16683C12.4993 6.70659 12.8724 6.3335 13.3327 6.3335C13.7929 6.3335 14.166 6.70659 14.166 7.16683ZM9.99935 11.3335C10.4596 11.3335 10.8327 10.9604 10.8327 10.5002C10.8327 10.0399 10.4596 9.66683 9.99935 9.66683C9.53911 9.66683 9.16602 10.0399 9.16602 10.5002C9.16602 10.9604 9.53911 11.3335 9.99935 11.3335ZM14.166 10.5002C14.166 10.9604 13.7929 11.3335 13.3327 11.3335C12.8724 11.3335 12.4993 10.9604 12.4993 10.5002C12.4993 10.0399 12.8724 9.66683 13.3327 9.66683C13.7929 9.66683 14.166 10.0399 14.166 10.5002Z" fill="#1A1A1A"/>
</g>
<defs>
<clipPath id="clip0_7319_19795">
<rect width="20" height="20" fill="white" transform="translate(0 0.5)"/>
</clipPath>
</defs>
</svg>
