<svg width="20" height="21" viewBox="0 0 20 21" fill="none" xmlns="http://www.w3.org/2000/svg">
<g clip-path="url(#clip0_7319_19785)">
<path fill-rule="evenodd" clip-rule="evenodd" d="M19.1673 10.4998L16.6673 13.8332L14.1673 10.4998C19.8094 10.4998 14.4113 10.4998 19.1673 10.4998ZM0.833984 10.4998L3.3339 7.1665L5.83391 10.4998C1.23186 10.4998 6.16731 10.4998 0.833984 10.4998Z" fill="#1A1A1A"/>
<path fill-rule="evenodd" clip-rule="evenodd" d="M10 4.66667C8.93611 4.66667 7.94109 4.95071 7.08394 5.44655C6.82798 5.59462 6.58421 5.76164 6.35456 5.94573C5.99546 6.2336 5.47099 6.17585 5.18313 5.81675C4.89526 5.45765 4.95301 4.93318 5.31211 4.64532C5.607 4.40892 5.92023 4.19429 6.2494 4.00388C7.35339 3.36525 8.63531 3 10 3C14.1421 3 17.5 6.35786 17.5 10.5H15.8333C15.8333 7.27834 13.2217 4.66667 10 4.66667ZM2.5 10.5H4.16667C4.16667 13.7217 6.77834 16.3333 10 16.3333C11.3803 16.3333 12.6466 15.855 13.6454 15.0543C14.0045 14.7664 14.529 14.8242 14.8169 15.1833C15.1047 15.5423 15.047 16.0668 14.6879 16.3547C13.4041 17.3839 11.7728 18 10 18C5.85786 18 2.5 14.6421 2.5 10.5Z" fill="#FF6900"/>
</g>
<defs>
<clipPath id="clip0_7319_19785">
<rect width="20" height="20" fill="white" transform="translate(0 0.5)"/>
</clipPath>
</defs>
</svg>
