<svg width="20" height="21" viewBox="0 0 20 21" fill="none" xmlns="http://www.w3.org/2000/svg">
<g clip-path="url(#clip0_7319_19780)">
<path fill-rule="evenodd" clip-rule="evenodd" d="M3.33333 8C3.79357 8 4.16667 8.3731 4.16667 8.83333V14.6671C4.16667 15.5874 4.91267 16.3333 5.83333 16.3333H7.5V13C7.5 11.6193 8.61929 10.5 10 10.5C11.3807 10.5 12.5 11.6193 12.5 13V16.3333H14.1667C15.0873 16.3333 15.8333 15.5874 15.8333 14.6671V8.83333C15.8333 8.3731 16.2064 8 16.6667 8C17.1269 8 17.5 8.3731 17.5 8.83333V14.6671C17.5 16.5082 16.0074 18 14.1667 18H11.6667C11.2064 18 10.8333 17.6269 10.8333 17.1667V13C10.8333 12.5398 10.4602 12.1667 10 12.1667C9.53976 12.1667 9.16667 12.5398 9.16667 13V17.1667C9.16667 17.6269 8.79357 18 8.33333 18H5.83333C3.99258 18 2.5 16.5082 2.5 14.6671V8.83333C2.5 8.3731 2.8731 8 3.33333 8Z" fill="#FF6900"/>
<path fill-rule="evenodd" clip-rule="evenodd" d="M10.8819 4.2007C10.3941 3.71066 9.60463 3.71066 9.11678 4.2007L3.08991 10.2544C2.7652 10.5806 2.23757 10.5818 1.91141 10.2571C1.58525 9.93236 1.58407 9.40472 1.90878 9.07856L7.93565 3.02481C9.07497 1.8804 10.9237 1.8804 12.0631 3.02481L18.0899 9.07856C18.4146 9.40472 18.4135 9.93236 18.0873 10.2571C17.7611 10.5818 17.2335 10.5806 16.9088 10.2544L10.8819 4.2007Z" fill="#1A1A1A"/>
</g>
<defs>
<clipPath id="clip0_7319_19780">
<rect width="20" height="20" fill="white" transform="translate(0 0.5)"/>
</clipPath>
</defs>
</svg>
