<svg width="21" height="20" viewBox="0 0 21 20" fill="none" xmlns="http://www.w3.org/2000/svg">
<g opacity="0.8">
<path d="M7.2015 18.4286C4.89079 18.4286 2.73681 17.7565 0.923828 16.5969C2.46311 16.6965 5.17959 16.4579 6.86924 14.8463C4.32745 14.7296 3.18116 12.7802 3.03164 11.9471C3.24761 12.0304 4.27762 12.1304 4.85907 11.8971C1.93518 11.164 1.48663 8.59809 1.58631 7.81498C2.13454 8.1982 3.06487 8.3315 3.43035 8.29817C0.705823 6.34874 1.68599 3.41626 2.16777 2.78311C4.12299 5.4919 7.05326 7.01326 10.6784 7.09789C10.61 6.79811 10.5739 6.48601 10.5739 6.16546C10.5739 3.86494 12.4334 2 14.7272 2C15.9256 2 17.0055 2.50911 17.7636 3.32346C18.5645 3.13579 19.7698 2.69648 20.359 2.31657C20.062 3.38293 19.1374 4.27249 18.578 4.6022C18.5735 4.59093 18.5827 4.61341 18.578 4.6022C19.0693 4.52788 20.3987 4.27241 20.9238 3.91611C20.6641 4.51518 19.6838 5.51123 18.8793 6.06887C19.029 12.67 13.9785 18.4286 7.2015 18.4286Z" fill="#FF6900"/>
</g>
</svg>
