<svg width="120" height="120" viewBox="0 0 120 120" fill="none" xmlns="http://www.w3.org/2000/svg">
<mask id="mask0_7404_24834" style="mask-type:luminance" maskUnits="userSpaceOnUse" x="0" y="0" width="121" height="120">
<path d="M0.00195312 7.62939e-06H120.002V120H0.00195312V7.62939e-06Z" fill="white"/>
</mask>
<g mask="url(#mask0_7404_24834)">
<path d="M48.2359 37.0687C67.3984 37.0687 82.9328 52.6028 82.9328 71.7655C82.9328 90.928 67.3984 106.462 48.2359 106.462C29.0734 106.462 13.5391 90.928 13.5391 71.7655C13.5391 52.6028 29.0734 37.0687 48.2359 37.0687Z" fill="url(#paint0_linear_7404_24834)"/>
<path d="M106.467 48.2344C106.467 58.9263 101.627 68.4935 94.0215 74.8594C94.0894 73.8373 94.1246 72.8063 94.1246 71.7654C94.1246 46.4227 73.5793 25.8771 48.2363 25.8771C47.1957 25.8771 46.1645 25.9125 45.1426 25.9802C51.5082 18.375 61.0754 13.5349 71.7676 13.5349C90.9324 13.5349 106.467 29.0691 106.467 48.2344Z" fill="url(#paint1_linear_7404_24834)"/>
<path d="M48.2345 84.71H27.0547L31.7612 72.9434H43.528L48.2345 84.71Z" stroke="#F7F7F7" stroke-width="4.6875" stroke-miterlimit="10" stroke-linecap="round" stroke-linejoin="round"/>
<path d="M69.4141 84.71H48.2344L52.9409 72.9434H64.7074L69.4141 84.71Z" stroke="#F7F7F7" stroke-width="4.6875" stroke-miterlimit="10" stroke-linecap="round" stroke-linejoin="round"/>
<path d="M58.8243 61.1768H37.6445L42.351 49.4102H54.1176L58.8243 61.1768Z" stroke="#F7F7F7" stroke-width="4.6875" stroke-miterlimit="10" stroke-linecap="round" stroke-linejoin="round"/>
<path d="M29.7539 29.7505C36.8632 13.6115 52.9999 2.34389 71.7701 2.34389C97.1152 2.34389 117.66 22.8883 117.66 48.2333C117.66 67.0033 106.392 83.1402 90.2529 90.2495" stroke="url(#paint2_linear_7404_24834)" stroke-width="4.6875" stroke-miterlimit="10" stroke-linecap="round" stroke-linejoin="round"/>
<path d="M2.3457 71.7666C2.3457 46.4224 22.8912 25.8769 48.2354 25.8769C73.5795 25.8769 94.1251 46.4224 94.1251 71.7666C94.1251 97.1109 73.5795 117.656 48.2354 117.656C22.8912 117.656 2.3457 97.1109 2.3457 71.7666Z" stroke="url(#paint3_linear_7404_24834)" stroke-width="4.6875" stroke-miterlimit="10" stroke-linecap="round" stroke-linejoin="round"/>
</g>
<defs>
<linearGradient id="paint0_linear_7404_24834" x1="82.9328" y1="71.7656" x2="13.5391" y2="71.7656" gradientUnits="userSpaceOnUse">
<stop stop-color="#F2D4B5"/>
<stop offset="0.0446" stop-color="#EDBE8D"/>
<stop offset="0.1028" stop-color="#E8A55F"/>
<stop offset="0.1586" stop-color="#E4923A"/>
<stop offset="0.2105" stop-color="#E08320"/>
<stop offset="0.2571" stop-color="#DF7B11"/>
<stop offset="0.2937" stop-color="#DE780B"/>
<stop offset="0.6498" stop-color="#F2B072"/>
<stop offset="1" stop-color="#DE780B"/>
</linearGradient>
<linearGradient id="paint1_linear_7404_24834" x1="106.467" y1="44.1972" x2="45.1426" y2="44.1972" gradientUnits="userSpaceOnUse">
<stop stop-color="#F2D4B5"/>
<stop offset="0.0446" stop-color="#EDBE8D"/>
<stop offset="0.1028" stop-color="#E8A55F"/>
<stop offset="0.1586" stop-color="#E4923A"/>
<stop offset="0.2105" stop-color="#E08320"/>
<stop offset="0.2571" stop-color="#DF7B11"/>
<stop offset="0.2937" stop-color="#DE780B"/>
<stop offset="0.6498" stop-color="#F2B072"/>
<stop offset="1" stop-color="#DE780B"/>
</linearGradient>
<linearGradient id="paint2_linear_7404_24834" x1="117.66" y1="46.2967" x2="29.7539" y2="46.2967" gradientUnits="userSpaceOnUse">
<stop stop-color="#F2D4B5"/>
<stop offset="0.0446" stop-color="#EDBE8D"/>
<stop offset="0.1028" stop-color="#E8A55F"/>
<stop offset="0.1586" stop-color="#E4923A"/>
<stop offset="0.2105" stop-color="#E08320"/>
<stop offset="0.2571" stop-color="#DF7B11"/>
<stop offset="0.2937" stop-color="#DE780B"/>
<stop offset="0.6498" stop-color="#F2B072"/>
<stop offset="1" stop-color="#DE780B"/>
</linearGradient>
<linearGradient id="paint3_linear_7404_24834" x1="94.1251" y1="71.7666" x2="2.3457" y2="71.7666" gradientUnits="userSpaceOnUse">
<stop stop-color="#F2D4B5"/>
<stop offset="0.0446" stop-color="#EDBE8D"/>
<stop offset="0.1028" stop-color="#E8A55F"/>
<stop offset="0.1586" stop-color="#E4923A"/>
<stop offset="0.2105" stop-color="#E08320"/>
<stop offset="0.2571" stop-color="#DF7B11"/>
<stop offset="0.2937" stop-color="#DE780B"/>
<stop offset="0.6498" stop-color="#F2B072"/>
<stop offset="1" stop-color="#DE780B"/>
</linearGradient>
</defs>
</svg>
