<svg width="21" height="20" viewBox="0 0 21 20" fill="none" xmlns="http://www.w3.org/2000/svg">
<g opacity="0.8">
<path d="M17.9238 4.5C17.9238 5.32843 17.2523 6 16.4238 6C15.5954 6 14.9238 5.32843 14.9238 4.5C14.9238 3.67157 15.5954 3 16.4238 3C17.2523 3 17.9238 3.67157 17.9238 4.5Z" fill="#FF6900"/>
<path fill-rule="evenodd" clip-rule="evenodd" d="M10.9238 15C13.6853 15 15.9238 12.7614 15.9238 10C15.9238 7.23858 13.6853 5 10.9238 5C8.1624 5 5.92383 7.23858 5.92383 10C5.92383 12.7614 8.1624 15 10.9238 15ZM10.9238 13C12.5807 13 13.9238 11.6569 13.9238 10C13.9238 8.34315 12.5807 7 10.9238 7C9.26697 7 7.92383 8.34315 7.92383 10C7.92383 11.6569 9.26697 13 10.9238 13Z" fill="#FF6900"/>
<path fill-rule="evenodd" clip-rule="evenodd" d="M0.923828 9.6C0.923828 6.23969 0.923828 4.55953 1.57779 3.27606C2.15303 2.14708 3.07091 1.2292 4.19989 0.653961C5.48336 0 7.16351 0 10.5238 0H11.3238C14.6841 0 16.3643 0 17.6478 0.653961C18.7767 1.2292 19.6946 2.14708 20.2699 3.27606C20.9238 4.55953 20.9238 6.23969 20.9238 9.6V10.4C20.9238 13.7603 20.9238 15.4405 20.2699 16.7239C19.6946 17.8529 18.7767 18.7708 17.6478 19.346C16.3643 20 14.6841 20 11.3238 20H10.5238C7.16351 20 5.48336 20 4.19989 19.346C3.07091 18.7708 2.15303 17.8529 1.57779 16.7239C0.923828 15.4405 0.923828 13.7603 0.923828 10.4V9.6ZM10.5238 2H11.3238C13.037 2 14.2016 2.00156 15.1018 2.0751C15.9786 2.14674 16.427 2.27659 16.7398 2.43597C17.4924 2.81947 18.1044 3.43139 18.4879 4.18404C18.6472 4.49684 18.7771 4.94524 18.8487 5.82208C18.9223 6.72225 18.9238 7.88684 18.9238 9.6V10.4C18.9238 12.1132 18.9223 13.2777 18.8487 14.1779C18.7771 15.0548 18.6472 15.5032 18.4879 15.816C18.1044 16.5686 17.4924 17.1805 16.7398 17.564C16.427 17.7234 15.9786 17.8533 15.1018 17.9249C14.2016 17.9984 13.037 18 11.3238 18H10.5238C8.81067 18 7.64608 17.9984 6.7459 17.9249C5.86907 17.8533 5.42067 17.7234 5.10787 17.564C4.35522 17.1805 3.7433 16.5686 3.3598 15.816C3.20042 15.5032 3.07057 15.0548 2.99893 14.1779C2.92538 13.2777 2.92383 12.1132 2.92383 10.4V9.6C2.92383 7.88684 2.92538 6.72225 2.99893 5.82208C3.07057 4.94524 3.20042 4.49684 3.3598 4.18404C3.7433 3.43139 4.35522 2.81947 5.10787 2.43597C5.42067 2.27659 5.86907 2.14674 6.7459 2.0751C7.64608 2.00156 8.81067 2 10.5238 2Z" fill="#FF6900"/>
</g>
</svg>
