<svg width="18" height="18" viewBox="0 0 18 18" fill="none" xmlns="http://www.w3.org/2000/svg">
<g clip-path="url(#clip0_7319_19790)">
<path fill-rule="evenodd" clip-rule="evenodd" d="M3.4464 2.8335C3.82993 2.8335 4.14084 3.14441 4.14084 3.52794V12.5557C4.14084 13.3228 4.76267 13.9446 5.52973 13.9446H14.5575C14.941 13.9446 15.252 14.2555 15.252 14.6391C15.252 15.0226 14.941 15.3335 14.5575 15.3335H5.52973C3.99561 15.3335 2.75195 14.0898 2.75195 12.5557V3.52794C2.75195 3.14441 3.06287 2.8335 3.4464 2.8335Z" fill="#1A1A1A"/>
<path d="M10.3945 4.22217V5.61106H12.866L10.9364 7.54231C10.8739 7.60551 10.6789 7.69439 10.5894 7.69439H9.50562C9.04836 7.69439 8.48425 7.91314 8.1609 8.23676L5.73251 10.6673C5.46156 10.9388 5.46156 11.3944 5.73251 11.6659C5.86802 11.8013 6.05371 11.8611 6.23127 11.8611C6.40883 11.8611 6.59451 11.8013 6.73002 11.6659L9.15869 9.23536C9.22113 9.17216 9.41611 9.08328 9.50562 9.08328H10.5894C11.0467 9.08328 11.6108 8.86452 11.9341 8.54091L13.8638 6.60966V9.08328H15.2515V4.91661C15.2515 4.53328 14.9407 4.22217 14.5577 4.22217H10.3945Z" fill="#FF6900"/>
</g>
<defs>
<clipPath id="clip0_7319_19790">
<rect width="16.6667" height="16.6667" fill="white" transform="translate(0.667969 0.75)"/>
</clipPath>
</defs>
</svg>
