<svg width="20" height="21" viewBox="0 0 20 21" fill="none" xmlns="http://www.w3.org/2000/svg">
<g clip-path="url(#clip0_7319_19776)">
<path d="M14.9987 2.1665C14.5387 2.1665 14.1654 2.53984 14.1654 2.99984V5.13566L10.417 8.88317C10.417 8.88317 10.1295 8.83317 9.9987 8.83317C9.07786 8.83317 8.33203 9.579 8.33203 10.4998C8.33203 11.4207 9.07786 12.1665 9.9987 12.1665C10.9195 12.1665 11.6654 11.4207 11.6654 10.4998C11.6654 10.369 11.612 10.084 11.612 10.084L15.3637 6.33317H17.4987C17.9587 6.33317 18.332 5.95984 18.332 5.49984C18.332 5.03984 17.9587 4.6665 17.4987 4.6665H15.832V2.99984C15.832 2.53984 15.4587 2.1665 14.9987 2.1665Z" fill="#1A1A1A"/>
<path d="M9.99934 2.1665C5.39685 2.1665 1.66602 5.89734 1.66602 10.4998C1.66602 15.1023 5.39685 18.8332 9.99934 18.8332C14.6018 18.8332 18.3327 15.1023 18.3327 10.4998C18.3327 9.8715 18.261 9.25401 18.1243 8.65068C18.0227 8.20234 17.5835 7.92401 17.1343 8.02568C16.686 8.12734 16.4077 8.5665 16.5093 9.01567C16.6193 9.49733 16.666 9.99567 16.666 10.4998C16.666 14.1815 13.681 17.1665 9.99934 17.1665C6.31768 17.1665 3.33268 14.1815 3.33268 10.4998C3.33268 6.81817 6.31768 3.83317 9.99934 3.83317C10.5027 3.83317 11.0018 3.87983 11.4835 3.98983C11.9327 4.09149 12.3718 3.81316 12.4735 3.36483C12.5752 2.91566 12.2968 2.4765 11.8485 2.37484C11.246 2.23817 10.6268 2.1665 9.99934 2.1665ZM9.99934 5.49984C7.23768 5.49984 4.99935 7.73817 4.99935 10.4998C4.99935 13.2615 7.23768 15.4998 9.99934 15.4998C12.761 15.4998 14.9993 13.2615 14.9993 10.4998C14.9993 10.0398 14.626 9.6665 14.166 9.6665C13.706 9.6665 13.3327 10.0398 13.3327 10.4998C13.3327 12.3407 11.8402 13.8332 9.99934 13.8332C8.15851 13.8332 6.66601 12.3407 6.66601 10.4998C6.66601 8.659 8.15851 7.1665 9.99934 7.1665C10.4593 7.1665 10.8327 6.79317 10.8327 6.33317C10.8327 5.87317 10.4593 5.49984 9.99934 5.49984Z" fill="#FF6900"/>
</g>
<defs>
<clipPath id="clip0_7319_19776">
<rect width="20" height="20" fill="white" transform="translate(0 0.5)"/>
</clipPath>
</defs>
</svg>
