<svg width="52" height="65" viewBox="0 0 52 65" fill="none" xmlns="http://www.w3.org/2000/svg">
<path d="M47.1394 63.25H4.86478C3.14666 63.25 1.75391 61.8571 1.75391 60.139V4.861C1.75391 3.14288 3.14666 1.75 4.86478 1.75H47.1394C48.8575 1.75 50.2504 3.14288 50.2504 4.861V60.139C50.2504 61.8571 48.8575 63.25 47.1394 63.25Z" stroke="#05038D" stroke-width="2.5" stroke-miterlimit="10" stroke-linecap="round" stroke-linejoin="round"/>
<path d="M42.5345 49.9253H9.4707V25.1864H42.5345V49.9253Z" fill="#9D9BFD"/>
<path d="M28.2041 9.85803V18.2683C28.2971 18.2843 31.1516 18.2683 31.1516 18.2683" stroke="#05038D" stroke-width="2.5" stroke-miterlimit="10" stroke-linecap="round" stroke-linejoin="round"/>
<path d="M35.2754 9.85803V18.2683C35.3684 18.2843 38.2229 18.2683 38.2229 18.2683" stroke="#05038D" stroke-width="2.5" stroke-miterlimit="10" stroke-linecap="round" stroke-linejoin="round"/>
<path d="M23.3154 9.85802V18.2754" stroke="#05038D" stroke-width="2.5" stroke-miterlimit="10" stroke-linecap="round" stroke-linejoin="round"/>
<path d="M18.1631 11.7949C18.1631 12.8646 17.296 13.7317 16.2262 13.7317C15.6957 13.7317 13.7812 13.7402 13.7812 13.7402V11.7949V9.85798H16.2262C17.296 9.85798 18.1631 10.7251 18.1631 11.7949Z" stroke="#05038D" stroke-width="2.5" stroke-miterlimit="10" stroke-linecap="round" stroke-linejoin="round"/>
<path d="M18.919 15.9996C18.919 17.2509 17.9046 18.2653 16.6534 18.2653C16.0327 18.2653 13.7812 18.2754 13.7812 18.2754V15.9996V13.734H16.6534C17.9046 13.734 18.919 14.7484 18.919 15.9996Z" stroke="#05038D" stroke-width="2.5" stroke-miterlimit="10" stroke-linecap="round" stroke-linejoin="round"/>
<path d="M17.6006 56.0664H34.4038" stroke="#05038D" stroke-width="2.5" stroke-miterlimit="10" stroke-linecap="round" stroke-linejoin="round"/>
<path d="M17.6006 31.7207H34.4038" stroke="#05038D" stroke-width="2.5" stroke-miterlimit="10" stroke-linecap="round" stroke-linejoin="round"/>
<path d="M17.6006 37.5562H34.4038" stroke="#05038D" stroke-width="2.5" stroke-miterlimit="10" stroke-linecap="round" stroke-linejoin="round"/>
<path d="M29.1162 43.3911H34.4035" stroke="#05038D" stroke-width="2.5" stroke-miterlimit="10" stroke-linecap="round" stroke-linejoin="round"/>
</svg>
