<svg width="56" height="65" viewBox="0 0 56 65" fill="none" xmlns="http://www.w3.org/2000/svg">
<path d="M48 57.625C47.3098 57.625 46.75 57.0652 46.75 56.375V53.25C46.75 52.5598 47.3098 52 48 52C48.6902 52 49.25 52.5598 49.25 53.25V56.375C49.25 57.0652 48.6902 57.625 48 57.625Z" fill="#05038D"/>
<path d="M35.5 57.625C34.8098 57.625 34.25 57.0652 34.25 56.375V53.25C34.25 52.5598 34.8098 52 35.5 52C36.1902 52 36.75 52.5598 36.75 53.25V56.375C36.75 57.0652 36.1902 57.625 35.5 57.625Z" fill="#05038D"/>
<path fill-rule="evenodd" clip-rule="evenodd" d="M28.625 43.8755H54.8749V54.5005H28.625V43.8755Z" fill="#9D9BFD"/>
<path fill-rule="evenodd" clip-rule="evenodd" d="M18 22.7671C23.5 22.7671 28 27.267 28 32.7671V34.7678H8V32.7671C8 27.267 12.5 22.7671 18 22.7671Z" fill="#9D9BFD"/>
<path d="M23.697 17.2164C23.7724 14.0752 21.2872 11.4677 18.146 11.3924C15.0049 11.317 12.3974 13.8022 12.322 16.9434C12.2467 20.0845 14.7319 22.692 17.873 22.7674C21.0142 22.8427 23.6217 20.3575 23.697 17.2164Z" fill="#9D9BFD"/>
<path d="M40.5001 27.2676H34.25C33.5598 27.2676 33 27.8273 33 28.5176C33 29.2078 33.5598 29.7676 34.25 29.7676H40.5001C41.1904 29.7676 41.7501 29.2078 41.7501 28.5176C41.7501 27.8273 41.1904 27.2676 40.5001 27.2676Z" fill="#05038D"/>
<path d="M31.75 23.5176H40.5001C41.1904 23.5176 41.7501 22.9578 41.7501 22.2676C41.7501 21.5773 41.1904 21.0176 40.5001 21.0176H31.75C31.0598 21.0176 30.5 21.5773 30.5 22.2676C30.5 22.9578 31.0598 23.5176 31.75 23.5176Z" fill="#05038D"/>
<path d="M21.7501 46.0176H8C7.30975 46.0176 6.75 46.5773 6.75 47.2676C6.75 47.9578 7.30975 48.5176 8 48.5176H21.7501C22.4404 48.5176 23.0001 47.9578 23.0001 47.2676C23.0001 46.5773 22.4404 46.0176 21.7501 46.0176Z" fill="#05038D"/>
<path d="M25.5 39.7676H8C7.30975 39.7676 6.75 40.3273 6.75 41.0176C6.75 41.7078 7.30975 42.2676 8 42.2676H25.5C26.1903 42.2676 26.75 41.7078 26.75 41.0176C26.75 40.3273 26.1903 39.7676 25.5 39.7676Z" fill="#05038D"/>
<path d="M54.2498 43.2501H49.2498V38.25C49.2498 37.5597 48.6901 37 47.9998 37V14.2499C47.9998 13.9184 47.8681 13.6006 47.6337 13.3661L35.1337 0.866124C34.8992 0.631749 34.5814 0.5 34.2499 0.5H1.75C1.05975 0.5 0.5 1.05975 0.5 1.75V56.9998C0.5 57.69 1.05975 58.2498 1.75 58.2498H27.9999V63.25C27.9999 63.9403 28.5596 64.5 29.2499 64.5H54.2498C54.94 64.5 55.4998 63.9403 55.4998 63.25V44.5001C55.4998 43.8097 54.94 43.2501 54.2498 43.2501ZM36.7499 43.2501V39.5H46.7498V43.2501H36.7499ZM35.4999 4.76786L43.732 13H35.4999V4.76786ZM2.99999 55.7498V2.99999H32.9999V14.2499C32.9999 14.9402 33.5596 15.4999 34.2499 15.4999H45.4998V37H35.4999C34.8096 37 34.2499 37.5597 34.2499 38.25V43.2501H29.2499C28.5596 43.2501 27.9999 43.8098 27.9999 44.5001V55.7498H2.99999ZM52.9998 62H30.4999V45.7501H52.9998V62Z" fill="#05038D"/>
</svg>
