<svg width="64" height="53" viewBox="0 0 64 53" fill="none" xmlns="http://www.w3.org/2000/svg">
<path d="M40.3059 6.36523H58.2006C60.7131 6.36523 62.75 8.40211 62.75 10.9146V46.5849C62.75 49.0974 60.7131 51.1342 58.2006 51.1342H5.79938C3.28688 51.1342 1.25 49.0974 1.25 46.5849V10.9146C1.25 8.40211 3.28688 6.36523 5.79938 6.36523H23.6462" stroke="#05038D" stroke-width="2.5" stroke-miterlimit="10" stroke-linecap="round" stroke-linejoin="round"/>
<path d="M21.7344 11.6797H42.2641" stroke="#05038D" stroke-width="2.5" stroke-miterlimit="10" stroke-linecap="round" stroke-linejoin="round"/>
<path d="M40.1614 11.68H23.8379V5.25598C23.8379 3.38336 25.356 1.86523 27.2286 1.86523H36.7706C38.6433 1.86523 40.1614 3.38336 40.1614 5.25598V11.68Z" stroke="#05038D" stroke-width="2.5" stroke-miterlimit="10" stroke-linecap="round" stroke-linejoin="round"/>
<path d="M25.1582 18.2773V42.9037" stroke="#05038D" stroke-width="2.5" stroke-miterlimit="10" stroke-linecap="round" stroke-linejoin="round"/>
<path d="M13.7036 27.1117C16.2193 27.1117 18.2587 25.0723 18.2587 22.5566C18.2587 20.0409 16.2193 18.0015 13.7036 18.0015C11.1878 18.0015 9.14844 20.0409 9.14844 22.5566C9.14844 25.0723 11.1878 27.1117 13.7036 27.1117Z" stroke="#05038D" stroke-width="2.5" stroke-miterlimit="10" stroke-linecap="round" stroke-linejoin="round"/>
<path d="M9.1377 29.3753C11.6596 26.8534 15.7483 26.8534 18.2702 29.3753" stroke="#05038D" stroke-width="2.5" stroke-miterlimit="10" stroke-linecap="round" stroke-linejoin="round"/>
<path d="M54.8523 18.001H31.8018V27.9072H54.8523V18.001Z" fill="#9D9BFD"/>
<path d="M54.8523 32.9971H31.8018V42.9033H54.8523V32.9971Z" fill="#9D9BFD"/>
<path d="M18.0125 42.9033H9.39551" stroke="#05038D" stroke-width="2.5" stroke-miterlimit="10" stroke-linecap="round" stroke-linejoin="round"/>
<path d="M18.0125 36.4839H9.39551" stroke="#05038D" stroke-width="2.5" stroke-miterlimit="10" stroke-linecap="round" stroke-linejoin="round"/>
</svg>
