<svg width="32" height="33" viewBox="0 0 32 33" fill="none" xmlns="http://www.w3.org/2000/svg">
<g clip-path="url(#clip0_7409_25210)">
<path fill-rule="evenodd" clip-rule="evenodd" d="M5.33333 12.5C6.06971 12.5 6.66667 13.097 6.66667 13.8333V23.1674C6.66667 24.6398 7.86027 25.8333 9.33333 25.8333H12V20.5C12 18.2909 13.7909 16.5 16 16.5C18.2091 16.5 20 18.2909 20 20.5V25.8333H22.6667C24.1397 25.8333 25.3333 24.6398 25.3333 23.1674V13.8333C25.3333 13.097 25.9303 12.5 26.6667 12.5C27.403 12.5 28 13.097 28 13.8333V23.1674C28 26.1132 25.6119 28.5 22.6667 28.5H18.6667C17.9303 28.5 17.3333 27.903 17.3333 27.1667V20.5C17.3333 19.7636 16.7364 19.1667 16 19.1667C15.2636 19.1667 14.6667 19.7636 14.6667 20.5V27.1667C14.6667 27.903 14.0697 28.5 13.3333 28.5H9.33333C6.38812 28.5 4 26.1132 4 23.1674V13.8333C4 13.097 4.59695 12.5 5.33333 12.5Z" fill="#3B37FB"/>
<path fill-rule="evenodd" clip-rule="evenodd" d="M17.4124 6.42146C16.6319 5.6374 15.3688 5.6374 14.5882 6.42145L4.94523 16.1075C4.42569 16.6293 3.58147 16.6312 3.05962 16.1117C2.53776 15.5921 2.53588 14.7479 3.05542 14.226L12.6984 4.54004C14.5213 2.70898 17.4793 2.70899 19.3023 4.54004L28.9452 14.226C29.4648 14.7479 29.4629 15.5921 28.941 16.1117C28.4192 16.6312 27.575 16.6293 27.0554 16.1075L17.4124 6.42146Z" fill="#1A1A1A"/>
</g>
<defs>
<clipPath id="clip0_7409_25210">
<rect width="32" height="32" fill="white" transform="translate(0 0.5)"/>
</clipPath>
</defs>
</svg>
