<svg width="24" height="24" viewBox="0 0 24 24" fill="none" xmlns="http://www.w3.org/2000/svg">
<g clip-path="url(#clip0_10956_8641)">
<path d="M8.96802 2.45571C7.55002 2.90571 6.32702 3.63971 5.24902 4.64371C4.91602 4.95371 4.81403 5.46172 5.03003 5.86172C5.83103 7.34272 4.99302 8.92771 3.18602 9.01871C2.74402 9.04071 2.35302 9.36872 2.24902 9.79972C2.07002 10.5447 1.99902 11.1687 1.99902 11.9867C1.99902 12.6737 2.07302 13.4517 2.21802 14.1437C2.30802 14.5757 2.68402 14.8867 3.12402 14.9247C4.94202 15.0817 5.84203 16.4687 5.03003 18.2367C4.85003 18.6297 4.93202 19.0997 5.24902 19.3937C6.31102 20.3757 7.53102 21.0687 8.96802 21.5187C9.37802 21.6467 9.84102 21.4917 10.093 21.1437C11.205 19.6047 12.818 19.5997 13.874 21.1437C14.123 21.5067 14.579 21.6817 14.999 21.5497C16.386 21.1127 17.678 20.3697 18.749 19.3937C19.079 19.0927 19.166 18.6057 18.968 18.2057C18.136 16.5267 19.093 14.9857 20.811 14.9557C21.267 14.9477 21.673 14.6487 21.78 14.2057C21.953 13.4887 21.999 12.8647 21.999 11.9867C21.999 11.2327 21.91 10.4897 21.749 9.76872C21.647 9.31172 21.248 8.98772 20.78 8.98672C19.089 8.98372 18.141 7.32172 18.968 5.86172C19.198 5.45572 19.126 4.95771 18.78 4.64371C17.69 3.65371 16.361 2.87971 14.968 2.45571C14.54 2.32571 14.085 2.48572 13.843 2.86172C12.877 4.36272 11.073 4.38871 10.124 2.89371C9.88102 2.50971 9.40002 2.31871 8.96802 2.45571ZM15.046 4.57972C15.729 4.86572 16.268 5.16472 16.887 5.63372C16.161 7.93072 17.392 10.3167 19.942 10.8977C20.005 11.3107 19.999 11.5607 19.999 11.9867C19.999 12.4957 20.006 12.6747 19.948 13.0427C17.409 13.5687 16.153 15.8877 16.86 18.3387C16.252 18.7797 15.817 19.0857 15.054 19.3807C13.262 17.5567 10.774 17.4767 8.94403 19.3927C8.23003 19.0787 7.68104 18.7997 7.12604 18.3307C7.81404 15.8417 6.65103 13.6927 4.06903 13.0407C3.95403 12.5847 4.00002 11.2967 4.06602 10.9057C6.73602 10.2657 7.78803 7.90272 7.12503 5.62672C7.71103 5.18572 8.23803 4.86472 8.92303 4.58672C10.648 6.34172 13.238 6.51672 15.046 4.57972Z" fill="white"/>
<path fill-rule="evenodd" clip-rule="evenodd" d="M12 10C10.8954 10 10 10.8954 10 12C10 13.1046 10.8954 14 12 14C13.1046 14 14 13.1046 14 12C14 10.8954 13.1046 10 12 10ZM8 12C8 9.79086 9.79086 8 12 8C14.2091 8 16 9.79086 16 12C16 14.2091 14.2091 16 12 16C9.79086 16 8 14.2091 8 12Z" fill="#FFC499"/>
</g>
<defs>
<clipPath id="clip0_10956_8641">
<rect width="24" height="24" fill="white"/>
</clipPath>
</defs>
</svg>
