<svg width="24" height="24" viewBox="0 0 24 24" fill="none" xmlns="http://www.w3.org/2000/svg">
<path fill-rule="evenodd" clip-rule="evenodd" d="M4.56934 7.03064C4.70989 7.01045 4.85358 7 4.99972 7C5.5754 7 6.11321 7.16215 6.56996 7.44327C7.53016 5.40763 9.60163 4 11.9998 4C14.398 4 16.4694 5.40758 17.4297 7.44316C17.8864 7.16211 18.4241 7 18.9997 7C19.1459 7 19.2897 7.01046 19.4304 7.03068C18.2514 4.08334 15.3701 2 11.9998 2C8.62963 2 5.74825 4.08333 4.56934 7.03064ZM16.6206 15.8277C17.0344 16.3656 17.6265 16.7591 18.3085 16.92C17.4444 18.0265 16.2949 18.9004 14.969 19.4306C14.9893 19.29 14.9997 19.1462 14.9997 19C14.9997 18.4244 14.8376 17.8866 14.5565 17.4298C15.3567 17.0523 16.0609 16.5025 16.6206 15.8277Z" fill="#FFC499"/>
<path fill-rule="evenodd" clip-rule="evenodd" d="M2 10C2 8.34315 3.34315 7 5 7C6.65685 7 8 8.34315 8 10V14C8 15.6569 6.65685 17 5 17C3.34315 17 2 15.6569 2 14V10ZM5 9C4.44772 9 4 9.44772 4 10V14C4 14.5523 4.44772 15 5 15C5.55228 15 6 14.5523 6 14V10C6 9.44772 5.55228 9 5 9ZM16 10C16 8.34315 17.3431 7 19 7C20.6569 7 22 8.34315 22 10V14C22 15.6569 20.6569 17 19 17C17.3431 17 16 15.6569 16 14V10ZM19 9C18.4477 9 18 9.44772 18 10V14C18 14.5523 18.4477 15 19 15C19.5523 15 20 14.5523 20 14V10C20 9.44772 19.5523 9 19 9ZM11 19C11 18.4477 11.4477 18 12 18C12.5523 18 13 18.4477 13 19C13 19.5523 12.5523 20 12 20C11.4477 20 11 19.5523 11 19ZM12 16C10.3431 16 9 17.3431 9 19C9 20.6569 10.3431 22 12 22C13.6569 22 15 20.6569 15 19C15 17.3431 13.6569 16 12 16Z" fill="white"/>
</svg>
