<svg width="20" height="20" viewBox="0 0 20 20" fill="none" xmlns="http://www.w3.org/2000/svg">
<path d="M5.68346 4.18976C5.47454 4.23138 5.2647 4.3371 5.13719 4.52859L1.80777 9.52394C1.64213 9.77204 1.62223 10.0892 1.75583 10.3565L4.25289 15.3518C4.4584 15.7623 4.96014 15.9471 5.37133 15.7415C5.78251 15.5359 5.96704 15.0338 5.76145 14.6225L3.47248 10.0701L6.54187 5.46441C6.79682 5.08226 6.69019 4.54942 6.30773 4.29383C6.11645 4.16644 5.89238 4.14813 5.68346 4.18976ZM15.2555 4.21557C15.0534 4.14896 14.8369 4.13896 14.6313 4.2422C14.2201 4.44784 14.0356 4.94987 14.2412 5.36115L16.5301 9.91359L13.4607 14.5193C13.2058 14.9014 13.3124 15.4343 13.6949 15.6899C14.0773 15.9446 14.6104 15.8381 14.8654 15.4551L18.1948 10.4598C18.3605 10.2117 18.3804 9.89445 18.2468 9.6272L15.7497 4.63185C15.647 4.42704 15.4576 4.28384 15.2555 4.21557Z" fill="#4D4D4D"/>
<path fill-rule="evenodd" clip-rule="evenodd" d="M11.8958 3.36529C12.3383 3.49172 12.5946 3.95296 12.4682 4.39549L9.13482 16.0622C9.00838 16.5047 8.54714 16.7609 8.10461 16.6345C7.66208 16.5081 7.40584 16.0468 7.53228 15.6043L10.8656 3.93762C10.992 3.49509 11.4533 3.23885 11.8958 3.36529Z" fill="#999999"/>
</svg>
