<svg width="20" height="20" viewBox="0 0 20 20" fill="none" xmlns="http://www.w3.org/2000/svg">
<g clip-path="url(#clip0_905_13337)">
<path fill-rule="evenodd" clip-rule="evenodd" d="M12.5 2.5C11.5792 2.5 10.8333 3.24583 10.8333 4.16667V7.5C10.8333 8.42083 11.5792 9.16667 12.5 9.16667H15.8333C16.7542 9.16667 17.5 8.42083 17.5 7.5V4.16667C17.5 3.24583 16.7542 2.5 15.8333 2.5H12.5ZM12.5 4.16667H15.8333V7.5H12.5V4.16667ZM4.16667 10.8333C3.24583 10.8333 2.5 11.5792 2.5 12.5V15.8333C2.5 16.7542 3.24583 17.5 4.16667 17.5H7.5C8.42083 17.5 9.16667 16.7542 9.16667 15.8333V12.5C9.16667 11.5792 8.42083 10.8333 7.5 10.8333H4.16667ZM4.16667 12.5H7.5V15.8333H4.16667V12.5ZM10.8333 12.5C10.8333 11.5792 11.5792 10.8333 12.5 10.8333H15.8333C16.7542 10.8333 17.5 11.5792 17.5 12.5V15.8333C17.5 16.7542 16.7542 17.5 15.8333 17.5H12.5C11.5792 17.5 10.8333 16.7542 10.8333 15.8333V12.5ZM15.8333 12.5H12.5V15.8333H15.8333V12.5Z" fill="#4D4D4D"/>
<path d="M4.16667 2.5C3.24617 2.5 2.5 3.24583 2.5 4.16667V7.5C2.5 8.42083 3.24617 9.16667 4.16667 9.16667H7.5C8.42083 9.16667 9.16667 8.42083 9.16667 7.5V4.16667C9.16667 3.24583 8.42083 2.5 7.5 2.5H4.16667ZM4.16667 4.16667H7.5V7.5H4.16667V4.16667Z" fill="#999999"/>
</g>
<defs>
<clipPath id="clip0_905_13337">
<rect width="20" height="20" fill="white"/>
</clipPath>
</defs>
</svg>
