<svg width="20" height="20" viewBox="0 0 20 20" fill="none" xmlns="http://www.w3.org/2000/svg">
<path fill-rule="evenodd" clip-rule="evenodd" d="M8.3337 10.0003C8.3337 7.9939 8.60601 6.21201 9.02317 4.96055C9.2332 4.33046 9.46492 3.88067 9.68176 3.60552C9.78826 3.47039 9.87489 3.39826 9.93251 3.36289C9.95999 3.34602 9.97834 3.33903 9.98762 3.3362C9.99602 3.33365 9.99957 3.33366 10.0003 3.33366L10.0004 3.33366L10.0004 3.33366C10.0012 3.33366 10.0047 3.33365 10.0131 3.3362C10.0224 3.33903 10.0407 3.34602 10.0682 3.36289C10.1258 3.39826 10.2125 3.47039 10.319 3.60552C10.5358 3.88067 10.7675 4.33046 10.9776 4.96055C11.1393 5.44582 11.2793 6.01085 11.3901 6.63779C10.9383 6.65703 10.4741 6.66707 10.0003 6.66707C9.52645 6.66707 9.06238 6.65703 8.6107 6.6378C8.51979 7.15237 8.44855 7.70864 8.4011 8.29676C8.9222 8.32113 9.45652 8.33374 10.0003 8.33374C10.5441 8.33374 11.0785 8.32113 11.5997 8.29675C11.6435 8.84002 11.667 9.41047 11.667 10.0003C11.667 10.5902 11.6435 11.1607 11.5997 11.704C11.0785 11.6796 10.5441 11.667 10.0003 11.667C9.45666 11.667 8.9223 11.6796 8.40109 11.704C8.44854 12.2921 8.51978 12.8484 8.6107 13.3629C9.06234 13.3437 9.52643 13.3337 10.0003 13.3337C10.4742 13.3337 10.9383 13.3437 11.3901 13.3629C11.2793 13.9899 11.1393 14.5549 10.9776 15.0401C10.7675 15.6702 10.5358 16.12 10.319 16.3951C10.2125 16.5303 10.1258 16.6024 10.0682 16.6378C10.0407 16.6546 10.0224 16.6616 10.0131 16.6644C10.0045 16.6671 10.001 16.667 10.0004 16.667H10.0003C9.99957 16.667 9.99602 16.667 9.98762 16.6644C9.97834 16.6616 9.95999 16.6546 9.93251 16.6378C9.87489 16.6024 9.78826 16.5303 9.68176 16.3951C9.46492 16.12 9.2332 15.6702 9.02317 15.0401C8.60601 13.7886 8.3337 12.0068 8.3337 10.0003ZM10.0004 1.66699C9.29041 1.66699 8.74669 2.0994 8.37274 2.5739C7.99139 3.05779 7.68441 3.70636 7.44203 4.4335C7.23711 5.04828 7.06756 5.75224 6.93984 6.52035C6.06526 6.4333 5.26055 6.31045 4.55036 6.15981C4.21991 6.62786 3.94825 7.14037 3.74609 7.6866C4.62589 7.89812 5.63804 8.06426 6.7388 8.17522C6.69168 8.76356 6.66703 9.37475 6.66703 10.0003C6.66703 10.6259 6.69169 11.2372 6.73881 11.8255C5.63851 11.9364 4.62636 12.1025 3.7462 12.3141C3.94835 12.8604 4.22002 13.3729 4.55046 13.8409C5.26034 13.6903 6.065 13.5675 6.93985 13.4804C7.06757 14.2485 7.23711 14.9524 7.44203 15.5672C7.68441 16.2943 7.99139 16.9429 8.37274 17.4268C8.74669 17.9012 9.29041 18.3337 10.0004 18.3337C10.7103 18.3337 11.254 17.9012 11.628 17.4268C12.0093 16.9429 12.3163 16.2943 12.5587 15.5672C13.0464 14.1041 13.3337 12.136 13.3337 10.0003C13.3337 7.86461 13.0464 5.8965 12.5587 4.4335C12.3163 3.70636 12.0093 3.05779 11.628 2.5739C11.254 2.0994 10.7103 1.66699 10.0004 1.66699ZM15.4502 6.15979C14.7401 6.31042 13.9354 6.43327 13.0609 6.52033C13.1481 7.04471 13.2158 7.59899 13.262 8.1752C14.3627 8.06424 15.3748 7.8981 16.2545 7.68658C16.0523 7.14035 15.7807 6.62784 15.4502 6.15979ZM16.2546 12.3141C15.3748 12.1026 14.3627 11.9365 13.2619 11.8255C13.2158 12.4017 13.1481 12.956 13.0609 13.4804C13.9354 13.5675 14.7401 13.6903 15.4503 13.8409C15.7807 13.3729 16.0524 12.8604 16.2546 12.3141Z" fill="#FFC499"/>
<path fill-rule="evenodd" clip-rule="evenodd" d="M10.0013 3.33366C6.3194 3.33366 3.33464 6.31843 3.33464 10.0003C3.33464 13.6822 6.3194 16.667 10.0013 16.667C13.6832 16.667 16.668 13.6822 16.668 10.0003C16.668 6.31843 13.6832 3.33366 10.0013 3.33366ZM1.66797 10.0003C1.66797 5.39795 5.39893 1.66699 10.0013 1.66699C14.6037 1.66699 18.3346 5.39795 18.3346 10.0003C18.3346 14.6027 14.6037 18.3337 10.0013 18.3337C5.39893 18.3337 1.66797 14.6027 1.66797 10.0003Z" fill="#FF6900"/>
</svg>
