<svg width="20" height="20" viewBox="0 0 20 20" fill="none" xmlns="http://www.w3.org/2000/svg">
<path d="M14.1654 16.6665C16.4662 16.6665 18.332 14.8007 18.332 12.4998V11.6665C18.332 10.7498 18.057 9.75485 17.2645 8.90568C16.9504 8.56985 16.4287 8.53984 16.092 8.854C15.7562 9.16817 15.7262 9.71568 16.0404 10.0515C16.4904 10.534 16.6654 11.1323 16.6654 11.6665V12.4998C16.6654 13.8807 15.5462 14.9998 14.1654 14.9998H9.16536C7.78453 14.9998 6.66536 13.8807 6.66536 12.4998V11.6665C6.66536 10.2857 7.78453 9.1665 9.16536 9.1665H10.832C11.292 9.1665 11.6654 8.79317 11.6654 8.33317C11.6654 7.87317 11.292 7.49984 10.832 7.49984H9.16536C6.86453 7.49984 4.9987 9.36567 4.9987 11.6665V12.4998C4.9987 14.8007 6.86453 16.6665 9.16536 16.6665H14.1654Z" fill="#FFC499"/>
<path d="M5.83464 3.3335C3.5338 3.3335 1.66797 5.19933 1.66797 7.50016V8.3335C1.66797 9.25016 1.94297 10.2452 2.73547 11.0943C3.04964 11.4302 3.5713 11.4602 3.90797 11.146C4.2438 10.8318 4.2738 10.2843 3.95964 9.94849C3.50964 9.46599 3.33464 8.86766 3.33464 8.3335V7.50016C3.33464 6.11933 4.4538 5.00016 5.83464 5.00016H10.8346C12.2155 5.00016 13.3346 6.11933 13.3346 7.50016V8.3335C13.3346 9.71433 12.2155 10.8335 10.8346 10.8335H9.16797C8.70797 10.8335 8.33464 11.2068 8.33464 11.6668C8.33464 12.1268 8.70797 12.5002 9.16797 12.5002H10.8346C13.1355 12.5002 15.0013 10.6343 15.0013 8.3335V7.50016C15.0013 5.19933 13.1355 3.3335 10.8346 3.3335H5.83464Z" fill="#FF6900"/>
</svg>
