<svg width="20" height="20" viewBox="0 0 20 20" fill="none" xmlns="http://www.w3.org/2000/svg">
<g clip-path="url(#clip0_3641_21251)">
<path fill-rule="evenodd" clip-rule="evenodd" d="M3.33333 2.5C3.79357 2.5 4.16667 2.8731 4.16667 3.33333V14.1667C4.16667 15.0871 4.91286 15.8333 5.83333 15.8333H16.6667C17.1269 15.8333 17.5 16.2064 17.5 16.6667C17.5 17.1269 17.1269 17.5 16.6667 17.5H5.83333C3.99238 17.5 2.5 16.0076 2.5 14.1667V3.33333C2.5 2.8731 2.8731 2.5 3.33333 2.5Z" fill="#4D4D4D"/>
<path d="M11.6702 4.1665V5.83317H14.6361L12.3205 8.15068C12.2456 8.22651 12.0116 8.33317 11.9042 8.33317H10.6036C10.0549 8.33317 9.37797 8.59567 8.98996 8.98401L6.07589 11.9007C5.75074 12.2265 5.75074 12.7732 6.07589 13.099C6.2385 13.2615 6.46132 13.3332 6.67439 13.3332C6.88747 13.3332 7.11028 13.2615 7.2729 13.099L10.1873 10.1823C10.2622 10.1065 10.4962 9.99984 10.6036 9.99984H11.9042C12.4529 9.99984 13.1298 9.73733 13.5179 9.349L15.8334 7.03149V9.99984H17.4987V4.99984C17.4987 4.53984 17.1257 4.1665 16.6661 4.1665H11.6702Z" fill="#999999"/>
</g>
<defs>
<clipPath id="clip0_3641_21251">
<rect width="20" height="20" fill="white"/>
</clipPath>
</defs>
</svg>
