<svg width="20" height="20" viewBox="0 0 20 20" fill="none" xmlns="http://www.w3.org/2000/svg">
<g clip-path="url(#clip0_11347_16569)">
<path d="M14.9987 1.6665C14.5387 1.6665 14.1654 2.03984 14.1654 2.49984V4.63566L10.417 8.38317C10.417 8.38317 10.1295 8.33317 9.9987 8.33317C9.07786 8.33317 8.33203 9.079 8.33203 9.99984C8.33203 10.9207 9.07786 11.6665 9.9987 11.6665C10.9195 11.6665 11.6654 10.9207 11.6654 9.99984C11.6654 9.869 11.612 9.58401 11.612 9.58401L15.3637 5.83317H17.4987C17.9587 5.83317 18.332 5.45984 18.332 4.99984C18.332 4.53984 17.9587 4.1665 17.4987 4.1665H15.832V2.49984C15.832 2.03984 15.4587 1.6665 14.9987 1.6665Z" fill="#FFC499"/>
<path d="M10.0013 1.6665C5.3988 1.6665 1.66797 5.39734 1.66797 9.99984C1.66797 14.6023 5.3988 18.3332 10.0013 18.3332C14.6038 18.3332 18.3346 14.6023 18.3346 9.99984C18.3346 9.3715 18.263 8.75401 18.1263 8.15068C18.0246 7.70234 17.5855 7.42401 17.1363 7.52568C16.688 7.62734 16.4096 8.0665 16.5113 8.51567C16.6213 8.99733 16.668 9.49567 16.668 9.99984C16.668 13.6815 13.683 16.6665 10.0013 16.6665C6.31963 16.6665 3.33463 13.6815 3.33463 9.99984C3.33463 6.31817 6.31963 3.33317 10.0013 3.33317C10.5046 3.33317 11.0038 3.37983 11.4855 3.48983C11.9346 3.59149 12.3738 3.31316 12.4755 2.86483C12.5771 2.41566 12.2988 1.9765 11.8505 1.87484C11.248 1.73817 10.6288 1.6665 10.0013 1.6665ZM10.0013 4.99984C7.23963 4.99984 5.0013 7.23817 5.0013 9.99984C5.0013 12.7615 7.23963 14.9998 10.0013 14.9998C12.763 14.9998 15.0013 12.7615 15.0013 9.99984C15.0013 9.53984 14.628 9.1665 14.168 9.1665C13.708 9.1665 13.3346 9.53984 13.3346 9.99984C13.3346 11.8407 11.8421 13.3332 10.0013 13.3332C8.16046 13.3332 6.66796 11.8407 6.66796 9.99984C6.66796 8.159 8.16046 6.6665 10.0013 6.6665C10.4613 6.6665 10.8346 6.29317 10.8346 5.83317C10.8346 5.37317 10.4613 4.99984 10.0013 4.99984Z" fill="#FF6900"/>
</g>
<defs>
<clipPath id="clip0_11347_16569">
<rect width="20" height="20" fill="white"/>
</clipPath>
</defs>
</svg>
