<svg width="20" height="20" viewBox="0 0 20 20" fill="none" xmlns="http://www.w3.org/2000/svg">
<g clip-path="url(#clip0_11347_16590)">
<path fill-rule="evenodd" clip-rule="evenodd" d="M4.9987 10.8335V14.1668C4.9987 15.0873 5.74489 15.8335 6.66536 15.8335H13.332C14.2525 15.8335 14.9987 15.0873 14.9987 14.1668V10.8335H16.6654V14.1668C16.6654 16.0078 15.173 17.5002 13.332 17.5002H6.66536C4.82442 17.5002 3.33203 16.0078 3.33203 14.1668V10.8335H4.9987Z" fill="#FFC499"/>
<path fill-rule="evenodd" clip-rule="evenodd" d="M7.5 4.16667C6.57953 4.16667 5.83333 4.91286 5.83333 5.83333H9.16667C9.16667 4.91286 8.42047 4.16667 7.5 4.16667ZM10 3.62848C9.38921 2.93646 8.49558 2.5 7.5 2.5C5.65905 2.5 4.16667 3.99238 4.16667 5.83333H3.33333C2.8731 5.83333 2.5 6.20643 2.5 6.66667V10C2.5 10.4602 2.8731 10.8333 3.33333 10.8333H9.16667V15.8333H10.8333V10.8333H16.6667C17.1269 10.8333 17.5 10.4602 17.5 10V6.66667C17.5 6.20643 17.1269 5.83333 16.6667 5.83333H15.8333C15.8333 3.99238 14.3409 2.5 12.5 2.5C11.5044 2.5 10.6108 2.93646 10 3.62848ZM10.8333 5.83333H14.1667C14.1667 4.91286 13.4205 4.16667 12.5 4.16667C11.5795 4.16667 10.8333 4.91286 10.8333 5.83333ZM4.16667 9.16667V7.5H15.8333V9.16667H4.16667Z" fill="#FF6900"/>
</g>
<defs>
<clipPath id="clip0_11347_16590">
<rect width="20" height="20" fill="white"/>
</clipPath>
</defs>
</svg>
