<svg width="20" height="20" viewBox="0 0 20 20" fill="none" xmlns="http://www.w3.org/2000/svg">
<path d="M7.47156 2.04643C6.28989 2.42143 5.27073 3.0331 4.3724 3.86976C4.0949 4.1281 4.0099 4.55143 4.1899 4.88476C4.8574 6.11893 4.15906 7.43976 2.65323 7.5156C2.28489 7.53393 1.95906 7.80727 1.8724 8.16643C1.72323 8.78727 1.66406 9.30726 1.66406 9.98893C1.66406 10.5614 1.72572 11.2098 1.84656 11.7864C1.92156 12.1464 2.2349 12.4056 2.60156 12.4373C4.11656 12.5681 4.86657 13.7239 4.1899 15.1973C4.0399 15.5248 4.10823 15.9164 4.3724 16.1614C5.2574 16.9798 6.27406 17.5573 7.47156 17.9323C7.81322 18.0389 8.19906 17.9098 8.40906 17.6198C9.33572 16.3373 10.6799 16.3331 11.5599 17.6198C11.7674 17.9223 12.1474 18.0681 12.4974 17.9581C13.6532 17.5939 14.7299 16.9748 15.6224 16.1614C15.8974 15.9106 15.9699 15.5048 15.8049 15.1714C15.1116 13.7723 15.9091 12.4881 17.3407 12.4631C17.7207 12.4564 18.0591 12.2073 18.1482 11.8381C18.2924 11.2406 18.3307 10.7206 18.3307 9.98893C18.3307 9.3606 18.2566 8.74143 18.1224 8.1406C18.0374 7.75976 17.7049 7.48976 17.3149 7.48893C15.9057 7.48643 15.1157 6.10143 15.8049 4.88476C15.9966 4.54643 15.9366 4.13143 15.6482 3.86976C14.7399 3.04476 13.6324 2.39976 12.4716 2.04643C12.1149 1.93809 11.7357 2.07143 11.5341 2.38476C10.7291 3.6356 9.22573 3.65726 8.4349 2.41143C8.2324 2.09143 7.83156 1.93226 7.47156 2.04643ZM12.5366 3.81643C13.1057 4.05477 13.5549 4.30393 14.0707 4.69477C13.4657 6.60893 14.4916 8.59726 16.6166 9.08143C16.6691 9.42559 16.6641 9.63393 16.6641 9.98893C16.6641 10.4131 16.6699 10.5623 16.6216 10.8689C14.5057 11.3073 13.4591 13.2398 14.0482 15.2823C13.5416 15.6498 13.1791 15.9048 12.5432 16.1506C11.0499 14.6306 8.97657 14.5639 7.45157 16.1606C6.85657 15.8989 6.39907 15.6664 5.93657 15.2756C6.50991 13.2014 5.54074 11.4106 3.38907 10.8673C3.29324 10.4873 3.33156 9.41394 3.38656 9.0881C5.61156 8.55477 6.48823 6.5856 5.93573 4.68893C6.42407 4.32143 6.86324 4.05394 7.43407 3.82227C8.87157 5.28477 11.0299 5.4306 12.5366 3.81643Z" fill="#4D4D4D"/>
<path fill-rule="evenodd" clip-rule="evenodd" d="M10.0013 8.33317C9.08083 8.33317 8.33464 9.07936 8.33464 9.99984C8.33464 10.9203 9.08083 11.6665 10.0013 11.6665C10.9218 11.6665 11.668 10.9203 11.668 9.99984C11.668 9.07936 10.9218 8.33317 10.0013 8.33317ZM6.66797 9.99984C6.66797 8.15889 8.16035 6.6665 10.0013 6.6665C11.8423 6.6665 13.3346 8.15889 13.3346 9.99984C13.3346 11.8408 11.8423 13.3332 10.0013 13.3332C8.16035 13.3332 6.66797 11.8408 6.66797 9.99984Z" fill="#999999"/>
</svg>
