<svg width="20" height="20" viewBox="0 0 20 20" fill="none" xmlns="http://www.w3.org/2000/svg">
<g clip-path="url(#clip0_905_13715)">
<path fill-rule="evenodd" clip-rule="evenodd" d="M3.80859 5.85871C3.92572 5.84188 4.04547 5.83317 4.16725 5.83317C4.64698 5.83317 5.09515 5.9683 5.47578 6.20256C6.27595 4.5062 8.00217 3.33317 10.0007 3.33317C11.9991 3.33317 13.7253 4.50615 14.5255 6.20247C14.9061 5.96826 15.3542 5.83317 15.8339 5.83317C15.9558 5.83317 16.0756 5.84189 16.1928 5.85874C15.2104 3.40262 12.8092 1.6665 10.0007 1.6665C7.19217 1.6665 4.79103 3.40261 3.80859 5.85871ZM13.8513 13.1896C14.1961 13.6378 14.6896 13.9658 15.2579 14.0998C14.5379 15.0219 13.5799 15.7502 12.475 16.192C12.4919 16.0748 12.5006 15.955 12.5006 15.8332C12.5006 15.3535 12.3655 14.9053 12.1312 14.5247C12.7981 14.2101 13.3849 13.7519 13.8513 13.1896Z" fill="#999999"/>
<path fill-rule="evenodd" clip-rule="evenodd" d="M1.66797 8.3335C1.66797 6.95278 2.78726 5.8335 4.16797 5.8335C5.54868 5.8335 6.66797 6.95278 6.66797 8.3335V11.6668C6.66797 13.0475 5.54868 14.1668 4.16797 14.1668C2.78726 14.1668 1.66797 13.0475 1.66797 11.6668V8.3335ZM4.16797 7.50016C3.70773 7.50016 3.33464 7.87326 3.33464 8.3335V11.6668C3.33464 12.1271 3.70773 12.5002 4.16797 12.5002C4.62821 12.5002 5.0013 12.1271 5.0013 11.6668V8.3335C5.0013 7.87326 4.62821 7.50016 4.16797 7.50016ZM13.3346 8.3335C13.3346 6.95278 14.4539 5.8335 15.8346 5.8335C17.2153 5.8335 18.3346 6.95278 18.3346 8.3335V11.6668C18.3346 13.0475 17.2153 14.1668 15.8346 14.1668C14.4539 14.1668 13.3346 13.0475 13.3346 11.6668V8.3335ZM15.8346 7.50016C15.3744 7.50016 15.0013 7.87326 15.0013 8.3335V11.6668C15.0013 12.1271 15.3744 12.5002 15.8346 12.5002C16.2949 12.5002 16.668 12.1271 16.668 11.6668V8.3335C16.668 7.87326 16.2949 7.50016 15.8346 7.50016ZM9.16797 15.8335C9.16797 15.3733 9.54107 15.0002 10.0013 15.0002C10.4615 15.0002 10.8346 15.3733 10.8346 15.8335C10.8346 16.2937 10.4615 16.6668 10.0013 16.6668C9.54107 16.6668 9.16797 16.2937 9.16797 15.8335ZM10.0013 13.3335C8.62059 13.3335 7.5013 14.4528 7.5013 15.8335C7.5013 17.2142 8.62059 18.3335 10.0013 18.3335C11.382 18.3335 12.5013 17.2142 12.5013 15.8335C12.5013 14.4528 11.382 13.3335 10.0013 13.3335Z" fill="#4D4D4D"/>
</g>
<defs>
<clipPath id="clip0_905_13715">
<rect width="20" height="20" fill="white"/>
</clipPath>
</defs>
</svg>
