<svg width="20" height="20" viewBox="0 0 20 20" fill="none" xmlns="http://www.w3.org/2000/svg">
<path d="M9.6862 1.73449C8.9537 2.04699 4.55869 3.92283 3.82703 4.23533C3.51953 4.36616 3.33203 4.65617 3.33203 4.99033C3.33203 8.64033 3.47786 10.2737 4.13953 12.1545C5.00536 14.617 6.70536 16.5795 9.58203 18.2237C9.83786 18.3703 10.1595 18.3703 10.4154 18.2237C13.3179 16.5645 15.0254 14.6086 15.8837 12.1545C16.537 10.287 16.6654 8.73366 16.6654 4.99033C16.6654 4.65783 16.4762 4.367 16.1704 4.23533L10.3637 1.73449C10.1537 1.64449 9.8962 1.64449 9.6862 1.73449ZM9.9987 3.37532L14.9954 5.54451C15.0679 11.5237 13.8962 14.1445 10.0062 16.5287C6.01537 14.0462 4.95537 11.397 4.99621 5.55117C6.13204 5.06617 9.03786 3.78532 9.9987 3.37532Z" fill="#4D4D4D"/>
<path fill-rule="evenodd" clip-rule="evenodd" d="M11.9107 7.74408C12.2362 7.41864 12.7638 7.41864 13.0893 7.74408C13.4147 8.06951 13.4147 8.59715 13.0893 8.92259L10.5893 11.4226C10.2638 11.748 9.73618 11.748 9.41074 11.4226L7.74408 9.75592C7.41864 9.43049 7.41864 8.90285 7.74408 8.57741C8.06951 8.25197 8.59715 8.25197 8.92259 8.57741L10 9.65482L11.9107 7.74408Z" fill="#999999"/>
</svg>
