<svg width="48" height="48" viewBox="0 0 48 48" fill="none" xmlns="http://www.w3.org/2000/svg">
<path d="M20 48C9 48 0 39 0 28C0 17 9 8 20 8C31 8 40 17 40 28C40 39 31 48 20 48ZM20 10C10 10 2 18 2 28C2 38 10 46 20 46C30 46 38 38 38 28C38 18 30 10 20 10Z" fill="#FF6900"/>
<path d="M20 41C12.8 41 7 35.2 7 28C7 20.8 12.8 15 20 15C27.2 15 33 20.8 33 28C33 35.2 27.2 41 20 41ZM20 17C14 17 9 22 9 28C9 34 14 39 20 39C26 39 31 34 31 28C31 22 26 17 20 17Z" fill="#FF6900"/>
<path d="M20 34C16.6 34 14 31.4 14 28C14 24.6 16.6 22 20 22C23.4 22 26 24.6 26 28C26 31.4 23.4 34 20 34ZM20 24C17.8 24 16 25.8 16 28C16 30.2 17.8 32 20 32C22.2 32 24 30.2 24 28C24 25.8 22.2 24 20 24Z" fill="#FF6900"/>
<path d="M20.0004 29.0001C19.8004 29.0001 19.4004 29.0001 19.2004 28.8001C18.8004 28.4001 18.8004 27.8001 19.2004 27.4001L34.2004 12.4001C34.6004 12.0001 35.2004 12.0001 35.6004 12.4001C36.0004 12.8001 36.0004 13.4001 35.6004 13.8001L20.6004 28.8001C20.6004 29.0001 20.2004 29.0001 20.0004 29.0001Z" fill="#FF6900"/>
<path d="M40 14H35C34.4 14 34 13.6 34 13V8C34 7.8 34.2 7.4 34.2 7.2L41.2 0.2C41.6 0 42 0 42.4 0C42.8 0.2 43 0.6 43 1V5H47C47.4 5 47.8 5.2 48 5.6C48 6 48 6.4 47.8 6.8L40.8 13.8C40.6 13.8 40.2 14 40 14ZM36 12H39.6L44.6 7H42C41.4 7 41 6.6 41 6V3.4L36 8.4V12Z" fill="#FF6900"/>
</svg>
