<svg width="48" height="48" viewBox="0 0 48 48" fill="none" xmlns="http://www.w3.org/2000/svg">
<path d="M5.73373 43.12V44.8C5.73373 46.5673 7.16642 48 8.93373 48H16.8001C18.5674 48 20.0001 46.5673 20.0001 44.8V43.2H28.0001V44.8C28.0001 46.5673 29.4328 48 31.2001 48H39.0665C40.8338 48 42.2665 46.5673 42.2665 44.8V43.1328C44.187 42.8083 45.5946 41.1477 45.6001 39.2V4C45.5975 1.79196 43.8082 0.0026449 41.6001 0H6.53613C4.32809 0.0026449 2.53878 1.79196 2.53613 4V7.2C2.53613 7.64183 2.8943 8 3.33613 8C3.77796 8 4.13613 7.64183 4.13613 7.2V4C4.13613 2.67452 5.21065 1.6 6.53613 1.6H41.6001C42.9256 1.6 44.0001 2.67452 44.0001 4V39.2C44.0001 40.5255 42.9256 41.6 41.6001 41.6H6.53613C5.21065 41.6 4.13613 40.5255 4.13613 39.2V11.2C4.13613 10.7582 3.77796 10.4 3.33613 10.4C2.8943 10.4 2.53613 10.7582 2.53613 11.2V39.2C2.5383 41.0993 3.87355 42.7363 5.73373 43.12ZM40.6665 43.2V44.8C40.6665 45.6837 39.9502 46.4 39.0665 46.4H31.2001C30.3165 46.4 29.6001 45.6837 29.6001 44.8V43.2H40.6665ZM18.4001 43.2V44.8C18.4001 45.6837 17.6838 46.4 16.8001 46.4H8.93373C8.05008 46.4 7.33373 45.6837 7.33373 44.8V43.2H18.4001Z" fill="#FF6900"/>
<path d="M8.8 27.2001C8.35817 27.2001 8 27.5583 8 28.0001V35.2001C8 36.5256 9.07452 37.6001 10.4 37.6001H37.6C38.9255 37.6001 40 36.5256 40 35.2001V34.4001C41.3255 34.4001 42.4 33.3256 42.4 32.0001V27.2001C42.4 25.8746 41.3255 24.8001 40 24.8001V18.4001C41.3255 18.4001 42.4 17.3256 42.4 16.0001V11.2001C42.4 9.87461 41.3255 8.8001 40 8.8001V8.0001C40 6.67461 38.9255 5.6001 37.6 5.6001H10.4C9.07452 5.6001 8 6.67461 8 8.0001V24.0001C8 24.4419 8.35817 24.8001 8.8 24.8001C9.24183 24.8001 9.6 24.4419 9.6 24.0001V8.0001C9.6 7.55827 9.95817 7.2001 10.4 7.2001H37.6C38.0418 7.2001 38.4 7.55827 38.4 8.0001V8.8001C37.0745 8.8001 36 9.87461 36 11.2001V16.0001C36 17.3256 37.0745 18.4001 38.4 18.4001V24.8001C37.0745 24.8001 36 25.8746 36 27.2001V32.0001C36 33.3256 37.0745 34.4001 38.4 34.4001V35.2001C38.4 35.6419 38.0418 36.0001 37.6 36.0001H10.4C9.95817 36.0001 9.6 35.6419 9.6 35.2001V28.0001C9.6 27.5583 9.24183 27.2001 8.8 27.2001ZM37.6 16.0001V11.2001C37.6 10.7583 37.9582 10.4001 38.4 10.4001H40C40.4418 10.4001 40.8 10.7583 40.8 11.2001V16.0001C40.8 16.4419 40.4418 16.8001 40 16.8001H38.4C37.9582 16.8001 37.6 16.4419 37.6 16.0001ZM37.6 32.0001V27.2001C37.6 26.7583 37.9582 26.4001 38.4 26.4001H40C40.4418 26.4001 40.8 26.7583 40.8 27.2001V32.0001C40.8 32.4419 40.4418 32.8001 40 32.8001H38.4C37.9582 32.8001 37.6 32.4419 37.6 32.0001Z" fill="#FF6900"/>
<path d="M15.1311 25.2736C16.8837 29.5049 21.3812 31.909 25.8732 31.0155C30.3651 30.1221 33.6004 26.1799 33.6004 21.6C33.6004 17.02 30.3651 13.0779 25.8732 12.1844C21.3812 11.291 16.8837 13.695 15.1311 17.9264C14.149 20.277 14.149 22.923 15.1311 25.2736ZM20.2143 14.5536L20.5055 15.256C20.6108 15.5261 20.8539 15.7181 21.1411 15.7578C21.4283 15.7976 21.7145 15.6789 21.8892 15.4476C22.0639 15.2163 22.0998 14.9085 21.9831 14.6432L21.6927 13.9408C23.1968 13.4832 24.803 13.4832 26.3071 13.9408L26.0167 14.6432C25.8999 14.9085 25.9358 15.2163 26.1106 15.4476C26.2853 15.6789 26.5715 15.7976 26.8586 15.7578C27.1458 15.7181 27.389 15.5261 27.4943 15.256L27.7855 14.5528C29.1723 15.2931 30.3079 16.4289 31.0479 17.816L30.3455 18.1072C30.0754 18.2125 29.8834 18.4556 29.8436 18.7428C29.8038 19.03 29.9225 19.3162 30.1539 19.4909C30.3852 19.6656 30.6929 19.7015 30.9583 19.5848L31.6607 19.2944C32.1182 20.7985 32.1182 22.4047 31.6607 23.9088L30.9583 23.6184C30.6929 23.5016 30.3852 23.5375 30.1539 23.7123C29.9225 23.887 29.8038 24.1732 29.8436 24.4603C29.8834 24.7475 30.0754 24.9907 30.3455 25.096L31.0487 25.3872C30.3083 26.774 29.1725 27.9096 27.7855 28.6496L27.4943 27.9472C27.389 27.6771 27.1458 27.4851 26.8586 27.4453C26.5715 27.4055 26.2853 27.5242 26.1106 27.7556C25.9358 27.9869 25.8999 28.2946 26.0167 28.56L26.3071 29.2624C24.803 29.7199 23.1968 29.7199 21.6927 29.2624L21.9831 28.56C22.0998 28.2946 22.0639 27.9869 21.8892 27.7556C21.7145 27.5242 21.4283 27.4055 21.1411 27.4453C20.8539 27.4851 20.6108 27.6771 20.5055 27.9472L20.2143 28.6504C18.8274 27.91 17.6919 26.7742 16.9519 25.3872L17.6543 25.096C17.9244 24.9907 18.1164 24.7475 18.1561 24.4603C18.1959 24.1732 18.0772 23.887 17.8459 23.7123C17.6146 23.5375 17.3068 23.5016 17.0415 23.6184L16.3391 23.9088C15.8815 22.4047 15.8815 20.7985 16.3391 19.2944L17.0415 19.5848C17.3068 19.7015 17.6146 19.6656 17.8459 19.4909C18.0772 19.3162 18.1959 19.03 18.1561 18.7428C18.1164 18.4556 17.9244 18.2125 17.6543 18.1072L16.9511 17.816C17.6911 16.4285 18.827 15.2924 20.2143 14.552V14.5536Z" fill="#FF6900"/>
<path d="M24.007 26.4001C26.1209 26.3968 27.9838 25.011 28.5947 22.9873C29.2056 20.9636 28.4207 18.7784 26.6617 17.606C24.9028 16.4336 22.5838 16.5499 20.951 17.8924C19.3182 19.2349 18.7558 21.4876 19.5662 23.4401C20.3125 25.2333 22.0646 26.4011 24.007 26.4001ZM22.7758 18.6401C24.4087 17.9664 26.2786 18.7433 26.9534 20.3758C27.6282 22.0082 26.8526 23.8787 25.2207 24.5547C23.5887 25.2306 21.7177 24.4564 21.0406 22.8249C20.7126 22.0401 20.7113 21.1569 21.0371 20.3713C21.3628 19.5856 21.9887 18.9624 22.7758 18.6401Z" fill="#FF6900"/>
<path d="M16.0002 8.80005H12.0002C11.5584 8.80005 11.2002 9.15822 11.2002 9.60005V13.6C11.2002 14.0419 11.5584 14.4 12.0002 14.4C12.442 14.4 12.8002 14.0419 12.8002 13.6V10.4H16.0002C16.442 10.4 16.8002 10.0419 16.8002 9.60005C16.8002 9.15822 16.442 8.80005 16.0002 8.80005Z" fill="#FF6900"/>
</svg>
