<svg width="48" height="48" viewBox="0 0 48 48" fill="none" xmlns="http://www.w3.org/2000/svg">
<g clip-path="url(#clip0_3650_27806)">
<path d="M39.1559 19.1847H21.2748C22.1017 18.2343 22.6041 16.9945 22.6041 15.6388C22.6041 12.6554 20.177 10.2283 17.1936 10.2283C14.2102 10.2283 11.783 12.6554 11.783 15.6388C11.783 16.9945 12.2854 18.2343 13.1122 19.1847H8.8438C6.26447 19.1847 4.16602 21.2832 4.16602 23.8625V29.3822C4.16602 29.8989 4.58486 30.3178 5.10157 30.3178C5.61828 30.3178 6.03713 29.8989 6.03713 29.3822V23.8625C6.03713 22.3149 7.2962 21.0559 8.8438 21.0559H35.0394C36.587 21.0559 37.8461 22.3149 37.8461 23.8625V28.9145H28.1163C25.537 28.9145 23.4385 31.013 23.4385 33.5923C23.4385 36.1717 25.537 38.2701 28.1163 38.2701H37.8461V43.3221C37.8461 44.8697 36.587 46.1288 35.0394 46.1288H8.8438C7.2962 46.1288 6.03713 44.8697 6.03713 43.3221V37.795C6.03713 37.2783 5.61828 36.8595 5.10157 36.8595C4.58486 36.8595 4.16602 37.2783 4.16602 37.795V43.3221C4.16602 45.9015 6.26447 47.9999 8.8438 47.9999H39.1559C41.7352 47.9999 43.8337 45.9015 43.8337 43.3221V23.8625C43.8337 21.2832 41.7352 19.1847 39.1559 19.1847ZM17.1936 12.0995C19.1452 12.0995 20.733 13.6872 20.733 15.6389C20.733 17.5905 19.1452 19.1783 17.1936 19.1783C15.242 19.1783 13.6542 17.5905 13.6542 15.6389C13.6542 13.6872 15.2419 12.0995 17.1936 12.0995ZM38.7791 21.0559H39.1559C40.7035 21.0559 41.9625 22.3149 41.9625 23.8625V28.9145H39.7172V23.8625C39.7172 22.8103 39.3678 21.8383 38.7791 21.0559ZM25.3096 33.5923C25.3096 32.0447 26.5687 30.7857 28.1163 30.7857H41.9625V36.399H28.1163C26.5687 36.399 25.3096 35.1399 25.3096 33.5923ZM39.1559 46.1288H38.7791C39.3678 45.3464 39.7172 44.3744 39.7172 43.3221V38.2701H41.9625V43.3221C41.9625 44.8697 40.7035 46.1288 39.1559 46.1288Z" fill="#FF6900"/>
<path d="M27.877 32.6567C27.63 32.6567 27.3886 32.7568 27.2146 32.9309C27.0406 33.1049 26.9414 33.3462 26.9414 33.5923C26.9414 33.8383 27.0406 34.0797 27.2146 34.2537C27.3895 34.4277 27.63 34.5279 27.877 34.5279C28.123 34.5279 28.3635 34.4277 28.5384 34.2537C28.7124 34.0797 28.8125 33.8383 28.8125 33.5923C28.8125 33.3462 28.7124 33.1049 28.5384 32.9309C28.3644 32.7567 28.123 32.6567 27.877 32.6567Z" fill="#FF6900"/>
<path d="M30.806 12.8789C33.7894 12.8789 36.2165 10.4518 36.2165 7.46838C36.2165 4.48507 33.7894 2.05786 30.806 2.05786C27.8226 2.05786 25.3955 4.48498 25.3955 7.46838C25.3955 10.4518 27.8226 12.8789 30.806 12.8789ZM30.806 3.92907C32.7576 3.92907 34.3454 5.5168 34.3454 7.46847C34.3454 9.42014 32.7577 11.0079 30.806 11.0079C28.8544 11.0079 27.2666 9.42014 27.2666 7.46847C27.2666 5.5168 28.8544 3.92907 30.806 3.92907Z" fill="#FF6900"/>
<path d="M21.669 9.22282C22.1857 9.22282 22.6045 8.80397 22.6045 8.28726V0.935558C22.6045 0.418849 22.1857 0 21.669 0C21.1522 0 20.7334 0.418849 20.7334 0.935558V8.28726C20.7334 8.80397 21.1522 9.22282 21.669 9.22282Z" fill="#FF6900"/>
<path d="M17.1777 5.98757C17.6945 5.98757 18.1133 5.56872 18.1133 5.05201V0.935558C18.1133 0.418849 17.6945 0 17.1777 0C16.661 0 16.2422 0.418849 16.2422 0.935558V5.05201C16.2422 5.56872 16.661 5.98757 17.1777 5.98757Z" fill="#FF6900"/>
<path d="M5.10157 34.5279C5.34762 34.5279 5.589 34.4277 5.76301 34.2537C5.93703 34.0797 6.03713 33.8383 6.03713 33.5923C6.03713 33.3462 5.93703 33.1049 5.76301 32.9309C5.589 32.7568 5.34856 32.6567 5.10157 32.6567C4.85552 32.6567 4.61415 32.7568 4.44013 32.9309C4.26612 33.1049 4.16602 33.3462 4.16602 33.5923C4.16602 33.8383 4.26612 34.0797 4.44013 34.2537C4.61415 34.4277 4.85543 34.5279 5.10157 34.5279Z" fill="#FF6900"/>
</g>
<defs>
<clipPath id="clip0_3650_27806">
<rect width="48" height="48" fill="white"/>
</clipPath>
</defs>
</svg>
