<svg width="25" height="24" viewBox="0 0 25 24" fill="none" xmlns="http://www.w3.org/2000/svg">
<path d="M18.499 2C17.947 2 17.499 2.448 17.499 3V5.56299L13.001 10.06C13.001 10.06 12.656 10 12.499 10C11.394 10 10.499 10.895 10.499 12C10.499 13.105 11.394 14 12.499 14C13.604 14 14.499 13.105 14.499 12C14.499 11.843 14.435 11.501 14.435 11.501L18.937 7H21.499C22.051 7 22.499 6.552 22.499 6C22.499 5.448 22.051 5 21.499 5H19.499V3C19.499 2.448 19.051 2 18.499 2Z" fill="white"/>
<path d="M12.5 2C6.977 2 2.5 6.477 2.5 12C2.5 17.523 6.977 22 12.5 22C18.023 22 22.5 17.523 22.5 12C22.5 11.246 22.414 10.505 22.25 9.78101C22.128 9.24301 21.601 8.90901 21.062 9.03101C20.524 9.15301 20.19 9.67999 20.312 10.219C20.444 10.797 20.5 11.395 20.5 12C20.5 16.418 16.918 20 12.5 20C8.082 20 4.5 16.418 4.5 12C4.5 7.582 8.082 4 12.5 4C13.104 4 13.703 4.05599 14.281 4.18799C14.82 4.30999 15.347 3.97599 15.469 3.43799C15.591 2.89899 15.257 2.372 14.719 2.25C13.996 2.086 13.253 2 12.5 2ZM12.5 6C9.186 6 6.5 8.686 6.5 12C6.5 15.314 9.186 18 12.5 18C15.814 18 18.5 15.314 18.5 12C18.5 11.448 18.052 11 17.5 11C16.948 11 16.5 11.448 16.5 12C16.5 14.209 14.709 16 12.5 16C10.291 16 8.5 14.209 8.5 12C8.5 9.791 10.291 8 12.5 8C13.052 8 13.5 7.552 13.5 7C13.5 6.448 13.052 6 12.5 6Z" fill="white"/>
</svg>
