<svg width="24" height="25" viewBox="0 0 24 25" fill="none" xmlns="http://www.w3.org/2000/svg">
<path fill-rule="evenodd" clip-rule="evenodd" d="M2.562 9.18085C2.746 8.65948 3.323 8.37217 3.84399 8.5554C4.36499 8.73864 4.621 9.31613 4.438 9.83762C4.14101 10.6824 4 11.5798 4 12.4957C4 13.419 4.168 14.3344 4.46899 15.1851C4.653 15.7061 4.364 16.2515 3.84399 16.436C3.323 16.6205 2.74699 16.3627 2.562 15.8419C2.18599 14.7772 2 13.6474 2 12.4957C2 11.3531 2.19099 10.2381 2.562 9.18085ZM19.562 9.86883C19.382 9.34655 19.666 8.79868 20.188 8.61795C20.709 8.43722 21.257 8.68981 21.438 9.21218C21.798 10.2563 22 11.3692 22 12.4957C22 13.6533 21.818 14.7724 21.438 15.8419C21.252 16.3624 20.677 16.6527 20.156 16.4673C19.636 16.2818 19.346 15.7058 19.531 15.1851C19.835 14.3306 20 13.4237 20 12.4957C20 11.5926 19.851 10.7032 19.562 9.86883ZM12 18.5C12.5523 18.5 13 18.052 13 17.4993C13 16.9466 12.5523 16.4986 12 16.4986C11.4477 16.4986 11 16.9466 11 17.4993C11 18.052 11.4477 18.5 12 18.5Z" fill="#FF6900"/>
<path d="M9.5 3.5C7.567 3.5 6 5.067 6 7V18C6 19.933 7.567 21.5 9.5 21.5H14.5C16.433 21.5 18 19.933 18 18V7C18 5.067 16.433 3.5 14.5 3.5H9.5ZM9.5 5.5H14.5C15.328 5.5 16 6.1716 16 7V18C16 18.8284 15.328 19.5 14.5 19.5H9.5C8.672 19.5 8 18.8284 8 18V7C8 6.1716 8.672 5.5 9.5 5.5Z" fill="#1A1A1A"/>
</svg>
