<svg width="40" height="40" viewBox="0 0 40 40" fill="none" xmlns="http://www.w3.org/2000/svg">
<g clip-path="url(#clip0_863_13285)">
<path d="M2.91699 29.1665H32.0837V32.0832H2.91699V29.1665ZM5.83366 17.4998H8.75033V27.7082H5.83366V17.4998ZM13.1253 17.4998H16.042V27.7082H13.1253V17.4998ZM18.9587 17.4998H21.8753V27.7082H18.9587V17.4998ZM26.2503 17.4998H29.167V27.7082H26.2503V17.4998ZM2.91699 10.2082L17.5003 2.9165L32.0837 10.2082V16.0415H2.91699V10.2082ZM5.83366 12.0107V13.1248H29.167V12.0107L17.5003 6.17734L5.83366 12.0107ZM17.5003 11.6665C17.1136 11.6665 16.7426 11.5129 16.4691 11.2394C16.1956 10.9659 16.042 10.5949 16.042 10.2082C16.042 9.8214 16.1956 9.45046 16.4691 9.17697C16.7426 8.90348 17.1136 8.74984 17.5003 8.74984C17.8871 8.74984 18.258 8.90348 18.5315 9.17697C18.805 9.45046 18.9587 9.8214 18.9587 10.2082C18.9587 10.5949 18.805 10.9659 18.5315 11.2394C18.258 11.5129 17.8871 11.6665 17.5003 11.6665Z" fill="#1A1A1A"/>
</g>
<ellipse cx="30.207" cy="28.958" rx="7.8125" ry="7.8125" fill="#FF6900"/>
<path fill-rule="evenodd" clip-rule="evenodd" d="M30.8575 28.3064V25.7012H29.5554V28.3064H26.9512V29.6085H29.5554V32.2116H30.8575V29.6085H33.4616V28.3064H30.8575Z" fill="white"/>
<defs>
<clipPath id="clip0_863_13285">
<rect width="35" height="35" fill="white"/>
</clipPath>
</defs>
</svg>
