<svg width="24" height="25" viewBox="0 0 24 25" fill="none" xmlns="http://www.w3.org/2000/svg">
<path d="M11 19.5V17.5H13V19.5H14C14.5523 19.5 15 19.9477 15 20.5C15 21.0523 14.5523 21.5 14 21.5H10C9.44772 21.5 9 21.0523 9 20.5C9 19.9477 9.44772 19.5 10 19.5H11Z" fill="#FF6900"/>
<path d="M5.156 4.5C3.406 4.5 2 5.90501 2 7.65601V14.344C2 16.094 3.406 17.5 5.156 17.5C11.3901 17.5 12.8536 17.5 18.844 17.5C20.594 17.5 22 16.095 22 14.344V7.65601C22 5.90601 20.594 4.5 18.844 4.5H5.156ZM5.156 6.5H18.844C19.49 6.5 20 7.01001 20 7.65601V14.344C20 14.99 19.49 15.5 18.844 15.5H5.156C4.51 15.5 4 14.99 4 14.344V7.65601C4 7.01001 4.51 6.5 5.156 6.5Z" fill="#1A1A1A"/>
</svg>
