<svg width="24" height="25" viewBox="0 0 24 25" fill="none" xmlns="http://www.w3.org/2000/svg">
<path d="M11.9979 16.5C11.756 16.5 11.5262 16.6 11.3417 16.781C11.3417 16.781 9.8592 18.242 9.2791 18.812C8.6991 19.383 9.0636 20.503 9.9979 20.5H13.9979C14.9164 20.503 15.3039 19.359 14.7167 18.781C14.1294 18.203 12.6854 16.781 12.6854 16.781C12.5008 16.6 12.2398 16.5 11.9979 16.5Z" fill="#FF6900"/>
<path d="M12.0292 4.5C8.2488 4.5 4.6818 6.1118 2.248 8.8438C1.8806 9.2561 1.9293 9.8827 2.3418 10.25C2.7541 10.617 3.3806 10.569 3.748 10.1562C5.8028 7.8497 8.8201 6.5 12.0292 6.5C15.2286 6.5 18.1838 7.8354 20.248 10.1562C20.615 10.569 21.2415 10.617 21.6542 10.25C22.0669 9.883 22.1151 9.2564 21.748 8.8438C19.3063 6.0985 15.8029 4.5 12.0292 4.5ZM12.0292 8.5C9.3892 8.5 6.9462 9.6399 5.248 11.594C4.8857 12.011 4.9249 12.638 5.3418 13C5.7586 13.362 6.3857 13.323 6.748 12.906C8.0703 11.385 9.9744 10.5 12.0292 10.5C14.0477 10.5 15.9275 11.369 17.248 12.844C17.6164 13.255 18.2427 13.275 18.6542 12.906C19.0657 12.538 19.1165 11.911 18.748 11.5C17.0519 9.6057 14.6225 8.5 12.0292 8.5ZM12.0292 12.5C10.5602 12.5 9.1912 13.13 8.248 14.219C7.8863 14.636 7.9243 15.263 8.3418 15.625C8.7591 15.987 9.3863 15.949 9.748 15.531C10.3152 14.877 11.1465 14.5 12.0292 14.5C12.8925 14.5 13.6818 14.87 14.248 15.5C14.6173 15.911 15.2749 15.932 15.6855 15.562C16.0962 15.193 16.1173 14.567 15.748 14.156C14.8063 13.109 13.4657 12.5 12.0292 12.5Z" fill="#1A1A1A"/>
</svg>
