<svg width="24" height="25" viewBox="0 0 24 25" fill="none" xmlns="http://www.w3.org/2000/svg">
<path d="M6.99902 3.5C6.44672 3.5 5.99902 3.94777 5.99902 4.49948C5.99902 5.0512 6.44672 5.49897 6.99902 5.49897C6.99902 10.8326 6.98861 16.1664 7 21.5L11.999 21.4907C12.551 21.4907 12.999 21.043 12.999 20.4912V18.4923C12.999 17.9406 13.447 17.4928 13.999 17.4928C14.551 17.4928 14.999 17.9406 14.999 18.4923V20.4912C14.999 21.043 15.447 21.4907 15.999 21.4907H19.999C20.551 21.4907 20.999 21.043 20.999 20.4912V5.49897C21.551 5.49897 21.999 5.0512 21.999 4.49948C21.999 3.94777 21.551 3.5 20.999 3.5H6.99902ZM8.99902 5.49897H18.999V19.4918H16.999V18.4923C16.999 16.8361 15.656 15.4938 13.999 15.4938C12.342 15.4938 10.999 16.8361 10.999 18.4923V19.4918H8.99902V5.49897Z" fill="#1A1A1A"/>
<path fill-rule="evenodd" clip-rule="evenodd" d="M3 7.5C2.44772 7.5 2 7.94772 2 8.5C2 9.05228 2.44772 9.5 3 9.5V20.5C3 21.0523 3.44772 21.5 4 21.5H7V19.5H5V9.5H7V7.5H3ZM13 8.5C13 9.05228 12.5523 9.5 12 9.5C11.4477 9.5 11 9.05228 11 8.5C11 7.94772 11.4477 7.5 12 7.5C12.5523 7.5 13 7.94772 13 8.5ZM17 8.5C17 9.05228 16.5523 9.5 16 9.5C15.4477 9.5 15 9.05228 15 8.5C15 7.94772 15.4477 7.5 16 7.5C16.5523 7.5 17 7.94772 17 8.5ZM12 13.5C12.5523 13.5 13 13.0523 13 12.5C13 11.9477 12.5523 11.5 12 11.5C11.4477 11.5 11 11.9477 11 12.5C11 13.0523 11.4477 13.5 12 13.5ZM17 12.5C17 13.0523 16.5523 13.5 16 13.5C15.4477 13.5 15 13.0523 15 12.5C15 11.9477 15.4477 11.5 16 11.5C16.5523 11.5 17 11.9477 17 12.5Z" fill="#FF6900"/>
</svg>
