<svg width="40" height="40" viewBox="0 0 40 40" fill="none" xmlns="http://www.w3.org/2000/svg">
<g clip-path="url(#clip0_863_13630)">
<path d="M2.91699 5.82313C2.91966 5.44013 3.07289 5.07357 3.34357 4.80261C3.61426 4.53165 3.98067 4.37805 4.36366 4.375H30.637C31.4362 4.375 32.0837 5.02396 32.0837 5.82313V29.1769C32.081 29.5599 31.9278 29.9264 31.6571 30.1974C31.3864 30.4683 31.02 30.6219 30.637 30.625H4.36366C3.97985 30.6246 3.61188 30.4719 3.34062 30.2003C3.06936 29.9288 2.91699 29.5607 2.91699 29.1769V5.82313ZM5.83366 7.29167V27.7083H29.167V7.29167H5.83366ZM8.75033 10.2083H17.5003V18.9583H8.75033V10.2083ZM11.667 13.125V16.0417H14.5837V13.125H11.667ZM8.75033 21.875H26.2503V24.7917H8.75033V21.875ZM20.417 10.2083H26.2503V13.125H20.417V10.2083ZM20.417 16.0417H26.2503V18.9583H20.417V16.0417Z" fill="#1A1A1A"/>
</g>
<ellipse cx="30.207" cy="28.958" rx="7.8125" ry="7.8125" fill="#FF6900"/>
<path fill-rule="evenodd" clip-rule="evenodd" d="M30.8575 28.3064V25.7012H29.5554V28.3064H26.9512V29.6085H29.5554V32.2116H30.8575V29.6085H33.4616V28.3064H30.8575Z" fill="white"/>
<defs>
<clipPath id="clip0_863_13630">
<rect width="35" height="35" fill="white"/>
</clipPath>
</defs>
</svg>
