<svg width="40" height="40" viewBox="0 0 40 40" fill="none" xmlns="http://www.w3.org/2000/svg">
<path d="M21.875 5.83317H7.29167V29.1665H27.7083V11.6665H21.875V5.83317ZM4.375 4.36288C4.375 3.56408 5.02759 2.9165 5.83115 2.9165H23.3333L30.6246 10.2082L30.625 30.6139C30.625 31.4253 29.9762 32.0832 29.1763 32.0832H5.82371C5.02361 32.0832 4.375 31.4192 4.375 30.6368V4.36288ZM17.5 16.7707C15.4865 16.7707 13.8542 15.1384 13.8542 13.1248C13.8542 11.1113 15.4865 9.479 17.5 9.479C19.5135 9.479 21.1458 11.1113 21.1458 13.1248C21.1458 15.1384 19.5135 16.7707 17.5 16.7707ZM10.9775 24.7915C11.3403 21.5103 14.1221 18.9582 17.5 18.9582C20.8779 18.9582 23.6597 21.5103 24.0224 24.7915H10.9775Z" fill="#1A1A1A"/>
<ellipse cx="30.207" cy="28.958" rx="7.8125" ry="7.8125" fill="#FF6900"/>
<path fill-rule="evenodd" clip-rule="evenodd" d="M30.8575 28.3064V25.7012H29.5554V28.3064H26.9512V29.6085H29.5554V32.2116H30.8575V29.6085H33.4616V28.3064H30.8575Z" fill="white"/>
</svg>
