<svg width="20" height="21" viewBox="0 0 20 21" fill="none" xmlns="http://www.w3.org/2000/svg">
<path fill-rule="evenodd" clip-rule="evenodd" d="M1.66602 14.6685C1.66602 16.0493 2.78518 17.1685 4.16602 17.1685H15.8327C17.2135 17.1685 18.3327 16.0493 18.3327 14.6685V8.83512H1.66602V14.6685ZM5.82088 10.5C5.36065 10.5 4.98755 10.8731 4.98755 11.3333V13C4.98755 13.4602 5.36065 13.8333 5.82088 13.8333H7.48755C7.94779 13.8333 8.32088 13.4602 8.32088 13V11.3333C8.32088 10.8731 7.94779 10.5 7.48755 10.5H5.82088Z" fill="#FF6900"/>
<path d="M1.66602 7.16675V6.33341C1.66602 4.95258 2.78518 3.83342 4.16602 3.83342H15.8327C17.2135 3.83342 18.3327 4.95258 18.3327 6.33341V7.16675H1.66602Z" fill="#FFC499"/>
</svg>
