<svg width="20" height="20" viewBox="0 0 20 20" fill="none" xmlns="http://www.w3.org/2000/svg">
<g clip-path="url(#clip0_11129_4101)">
<path d="M1.66602 5V14.1666C1.66602 15.8333 2.49935 16.6666 4.16602 16.6666H15.8327C17.4994 16.6666 18.3327 15.8333 18.3327 14.1666V7.49993C18.3327 7.03968 17.9594 6.6666 17.4994 6.6666C12.7771 6.6666 8.05491 6.66631 3.33268 6.66656C2.41223 6.6666 1.66602 5.92045 1.66602 5ZM14.166 9.99993C14.626 9.99993 14.9994 10.373 14.9994 10.8333C14.9994 11.2935 14.626 11.6666 14.166 11.6666C13.706 11.6666 13.3327 11.2935 13.3327 10.8333C13.3327 10.373 13.706 9.99993 14.166 9.99993Z" fill="#FF6900"/>
<path fill-rule="evenodd" clip-rule="evenodd" d="M3.33268 3.33325C2.41221 3.33325 1.66602 4.07944 1.66602 4.99992C1.66602 5.92039 2.41221 6.66659 3.33268 6.66659C7.77713 6.66659 12.2216 6.66659 16.666 6.66659V4.16659C16.666 3.70635 16.2929 3.33325 15.8327 3.33325H3.33268Z" fill="#FFC499"/>
</g>
<defs>
<clipPath id="clip0_11129_4101">
<rect width="20" height="20" fill="white"/>
</clipPath>
</defs>
</svg>
