<svg width="24" height="25" viewBox="0 0 24 25" fill="none" xmlns="http://www.w3.org/2000/svg">
<path fill-rule="evenodd" clip-rule="evenodd" d="M13 3.5C12.9972 3.67853 12.9465 3.85854 12.8437 4.02022L11 6.9174V10.4833C11 11.0356 11.4477 11.4833 12 11.4833H17.1783L13 18.0493V21.4833C13 21.6749 12.9461 21.8539 12.8527 22.006L19.8437 11.0202C20.0396 10.7123 20.0522 10.3221 19.8766 10.0021C19.701 9.68219 19.365 9.48334 19 9.48334H13V3.5Z" fill="#FF6900"/>
<path fill-rule="evenodd" clip-rule="evenodd" d="M12.5369 2.65646C13.0028 2.95297 13.1402 3.57106 12.8437 4.037L6.82167 13.5001H12C12.5523 13.5001 13 13.9478 13 14.5001V21.5001C13 22.0524 12.5523 22.5001 12 22.5001C11.4477 22.5001 11 22.0524 11 21.5001V15.5001H5C4.63502 15.5001 4.29903 15.3013 4.12339 14.9813C3.94776 14.6614 3.96039 14.2712 4.15634 13.9633L11.1563 2.96325C11.4528 2.49731 12.0709 2.35996 12.5369 2.65646Z" fill="#1A1A1A"/>
</svg>
