<svg width="40" height="40" viewBox="0 0 40 40" fill="none" xmlns="http://www.w3.org/2000/svg">
<g clip-path="url(#clip0_863_13651)">
<path d="M2.91699 7.2915L13.1253 2.9165L21.8753 7.2915L31.0672 3.35255C31.1782 3.30498 31.2992 3.28571 31.4194 3.29646C31.5397 3.30721 31.6554 3.34765 31.7561 3.41415C31.8569 3.48065 31.9396 3.57113 31.9967 3.67746C32.0539 3.78379 32.0838 3.90265 32.0837 4.02338V27.7082L21.8753 32.0832L13.1253 27.7082L3.93345 31.6471C3.82249 31.6947 3.70146 31.714 3.58121 31.7032C3.46097 31.6925 3.34527 31.652 3.24452 31.5855C3.14376 31.519 3.06108 31.4285 3.00392 31.3222C2.94675 31.2159 2.91689 31.097 2.91699 30.9763V7.2915ZM23.3337 28.2842L29.167 25.7846V7.33963L23.3337 9.83921V28.2842ZM20.417 28.0932V9.82317L14.5837 6.9065V25.1765L20.417 28.0932ZM11.667 25.1605V6.71546L5.83366 9.21504V27.66L11.667 25.1605Z" fill="#1A1A1A"/>
</g>
<ellipse cx="30.207" cy="28.958" rx="7.8125" ry="7.8125" fill="#FF6900"/>
<path fill-rule="evenodd" clip-rule="evenodd" d="M30.8575 28.3064V25.7012H29.5554V28.3064H26.9512V29.6085H29.5554V32.2116H30.8575V29.6085H33.4616V28.3064H30.8575Z" fill="white"/>
<defs>
<clipPath id="clip0_863_13651">
<rect width="35" height="35" fill="white"/>
</clipPath>
</defs>
</svg>
