<svg width="24" height="25" viewBox="0 0 24 25" fill="none" xmlns="http://www.w3.org/2000/svg">
<path fill-rule="evenodd" clip-rule="evenodd" d="M5 5.5C5.55229 5.5 6 5.94772 6 6.5V8.5C6 11.4301 6.02616 17.117 12 20.3721C17.9738 17.117 18 11.4301 18 8.5V6.5C18 5.94772 18.4477 5.5 19 5.5C19.5523 5.5 20 5.94772 20 6.5V8.53234C20.0001 11.5493 20.0003 18.6179 12.4472 22.3944L12 22.618L11.5528 22.3944C3.99967 18.6179 3.9999 11.5493 4 8.53234L4 6.5C4 5.94772 4.44772 5.5 5 5.5Z" fill="#1A1A1A"/>
<path fill-rule="evenodd" clip-rule="evenodd" d="M12.0003 2.41211L19.3942 5.58093C19.9018 5.79849 20.137 6.38637 19.9194 6.894C19.7018 7.40163 19.114 7.63678 18.6063 7.41922L12.0003 4.58804L5.39418 7.41922C4.88655 7.63678 4.29867 7.40163 4.08111 6.894C3.86356 6.38637 4.09871 5.79849 4.60634 5.58093L12.0003 2.41211Z" fill="#FF6900"/>
</svg>
