<svg width="25" height="24" viewBox="0 0 25 24" fill="none" xmlns="http://www.w3.org/2000/svg">
<path d="M5.938 2.10563C5.273 1.77302 4.5 2.26743 4.5 3.01055V19.9906C4.5 20.3692 4.724 20.7267 5.062 20.8955L7.062 21.8944C7.344 22.0352 7.65601 22.0352 7.93801 21.8944L9.5 21.1143L11.062 21.8944C11.344 22.0352 11.656 22.0352 11.938 21.8944L13.5 21.1143L15.062 21.8944C15.344 22.0352 15.656 22.0352 15.938 21.8944L17.5 21.1143L19.062 21.8944C19.727 22.227 20.5 21.7316 20.5 20.9894V4.00938C20.5 3.63082 20.276 3.27325 19.938 3.10445L17.938 2.10563C17.656 1.96479 17.344 1.96479 17.062 2.10563L15.5 2.8857L13.938 2.10563C13.656 1.96479 13.344 1.96479 13.062 2.10563L11.5 2.8857L9.93801 2.10563C9.65601 1.96479 9.344 1.96479 9.062 2.10563C8.867 2.20251 8.029 2.62101 7.5 2.8857L5.938 2.10563ZM9.5 4.13423L11.062 4.91432C11.344 5.05516 11.656 5.05516 11.938 4.91432L13.5 4.13423L15.062 4.91432C15.344 5.05516 15.656 5.05516 15.938 4.91432L17.5 4.13423L18.5 4.63365V19.3663L17.938 19.0857C17.656 18.9448 17.344 18.9448 17.062 19.0857L15.5 19.8658L13.938 19.0857C13.656 18.9448 13.344 18.9448 13.062 19.0857L11.5 19.8658L9.93801 19.0857C9.65601 18.9448 9.344 18.9448 9.062 19.0857L7.5 19.8658L6.5 19.3663V4.63365L7.062 4.91432C7.344 5.05516 7.65601 5.05516 7.93801 4.91432C8.13301 4.81644 8.971 4.39792 9.5 4.13423Z" fill="#1A1A1A"/>
<path d="M9.5 7C8.948 7 8.5 7.448 8.5 8C8.5 8.552 8.948 9 9.5 9H12.5C13.052 9 13.5 8.552 13.5 8C13.5 7.448 13.052 7 12.5 7H9.5ZM15.5 7C14.948 7 14.5 7.448 14.5 8C14.5 8.552 14.948 9 15.5 9C16.052 9 16.5 8.552 16.5 8C16.5 7.448 16.052 7 15.5 7ZM9.5 11C8.948 11 8.5 11.448 8.5 12C8.5 12.552 8.948 13 9.5 13H12.5C13.052 13 13.5 12.552 13.5 12C13.5 11.448 13.052 11 12.5 11H9.5ZM15.5 11C14.948 11 14.5 11.448 14.5 12C14.5 12.552 14.948 13 15.5 13C16.052 13 16.5 12.552 16.5 12C16.5 11.448 16.052 11 15.5 11ZM9.5 15C8.948 15 8.5 15.448 8.5 16C8.5 16.552 8.948 17 9.5 17H12.5C13.052 17 13.5 16.552 13.5 16C13.5 15.448 13.052 15 12.5 15H9.5ZM15.5 15C14.948 15 14.5 15.448 14.5 16C14.5 16.552 14.948 17 15.5 17C16.052 17 16.5 16.552 16.5 16C16.5 15.448 16.052 15 15.5 15Z" fill="#FF6900"/>
</svg>
