<svg width="24" height="25" viewBox="0 0 24 25" fill="none" xmlns="http://www.w3.org/2000/svg">
<path fill-rule="evenodd" clip-rule="evenodd" d="M7 8.5V18.5C7 19.6046 7.89543 20.5 9 20.5H15C16.1046 20.5 17 19.6046 17 18.5V8.5H19V18.5C19 20.7091 17.2091 22.5 15 22.5H9C6.79086 22.5 5 20.7091 5 18.5V8.5H7Z" fill="#FF6900"/>
<path fill-rule="evenodd" clip-rule="evenodd" d="M4 6.5C4 4.29086 5.79086 2.5 8 2.5H16C18.2091 2.5 20 4.29086 20 6.5V7.5C20 8.05228 19.5523 8.5 19 8.5H5C4.44772 8.5 4 8.05228 4 7.5V6.5ZM8 4.5C6.89543 4.5 6 5.39543 6 6.5H18C18 5.39543 17.1046 4.5 16 4.5H8ZM10 10.5C10.5523 10.5 11 10.9477 11 11.5V17.5C11 18.0523 10.5523 18.5 10 18.5C9.44772 18.5 9 18.0523 9 17.5V11.5C9 10.9477 9.44772 10.5 10 10.5ZM15 11.5C15 10.9477 14.5523 10.5 14 10.5C13.4477 10.5 13 10.9477 13 11.5V17.5C13 18.0523 13.4477 18.5 14 18.5C14.5523 18.5 15 18.0523 15 17.5V11.5Z" fill="#1A1A1A"/>
</svg>
