<svg width="24" height="25" viewBox="0 0 24 25" fill="none" xmlns="http://www.w3.org/2000/svg">
<path d="M2.91189 5.51227C2.65989 5.55743 2.4339 5.64505 2.2559 5.85565C1.8999 6.27695 1.8919 6.84491 2.3809 7.32305C3.3819 8.30222 4.46489 8.50943 5.28689 8.50943C5.97789 8.50943 6.8259 8.3226 7.5059 7.85375C7.7139 7.71019 8.0859 7.51447 8.5059 7.51037C8.9409 7.50608 9.43289 7.57771 9.72489 7.79131C10.3439 8.24488 11.1789 8.50703 11.9749 8.50943C12.8349 8.51192 13.6959 8.26226 14.2249 7.85375C14.5829 7.57701 15.0399 7.51037 15.4749 7.51037C15.9089 7.51037 16.1269 7.5911 16.6619 7.91619C17.3119 8.31101 18.0019 8.51362 18.7559 8.50943C20.0389 8.50213 20.8739 8.06055 21.7249 7.19817C22.1119 6.80544 22.0939 6.20322 21.6929 5.82448C21.2919 5.44574 20.6979 5.39329 20.3179 5.79321C20.2659 5.84865 20.0229 6.05755 20.0059 6.07424C19.7099 6.36316 19.2089 6.51842 18.7559 6.51132C18.3409 6.50473 17.9769 6.38704 17.6929 6.19912C16.8539 5.64235 16.1479 5.51217 15.2869 5.51227C14.7079 5.51227 13.8379 5.69959 13.2559 6.10541C12.5199 6.61862 11.5439 6.60543 10.9119 6.16785C10.2019 5.67632 9.3439 5.4828 8.5059 5.51227C7.6379 5.54274 6.96289 5.8019 6.34989 6.23029C5.82289 6.59794 4.7709 6.60503 4.1929 6.19912L3.6309 5.76204C3.3449 5.56222 3.18289 5.46362 2.91189 5.51227ZM2.91189 15.5028C2.65989 15.5479 2.4339 15.6355 2.2559 15.8462C1.8999 16.2675 1.92289 16.8354 2.41189 17.3136C3.41389 18.2927 4.46489 18.4999 5.28689 18.4999C5.97789 18.4999 6.8259 18.3131 7.5059 17.8443C7.7139 17.7007 8.0859 17.505 8.5059 17.5009C8.9409 17.4966 9.43289 17.5682 9.72489 17.7818C10.3439 18.2354 11.1789 18.4975 11.9749 18.4999C12.8349 18.5024 13.6959 18.2528 14.2249 17.8443C14.5829 17.5675 15.0399 17.5009 15.4749 17.5009C15.9089 17.5009 16.1269 17.5816 16.6619 17.9067C17.3119 18.3015 18.0019 18.5041 18.7559 18.4999C20.0389 18.4926 20.8739 18.0511 21.7249 17.1887C22.1119 16.796 22.0939 16.1936 21.6929 15.815C21.2919 15.4362 20.6979 15.3838 20.3179 15.7837C20.2659 15.8392 20.0229 16.0481 20.0059 16.0647C19.7099 16.3537 19.2089 16.5089 18.7559 16.5018C18.3409 16.4952 17.9769 16.3776 17.6929 16.1896C16.8539 15.6329 16.1479 15.5028 15.2869 15.5028C14.7079 15.5028 13.8379 15.6901 13.2559 16.0959C12.5199 16.6091 11.5439 16.5959 10.9119 16.1584C10.2019 15.6668 9.3439 15.4733 8.5059 15.5028C7.6379 15.5333 6.96289 15.7924 6.34989 16.2208C5.82289 16.5885 4.7709 16.5955 4.1929 16.1896L3.6309 15.7525C3.3449 15.5527 3.18289 15.4541 2.91189 15.5028Z" fill="#1A1A1A"/>
<path d="M2.91189 10.5122C2.65989 10.5572 2.4339 10.6446 2.2559 10.8545C1.8999 11.2745 1.8919 11.8407 2.3809 12.3173C3.3819 13.2934 4.46489 13.4999 5.28689 13.4999C5.97789 13.4999 6.8259 13.3137 7.5059 12.8463C7.7139 12.7032 8.0859 12.5081 8.5059 12.504C8.9409 12.4998 9.43289 12.5712 9.72489 12.7841C10.3439 13.2362 11.1789 13.4975 11.9749 13.4999C12.8349 13.5024 13.6959 13.2536 14.2249 12.8463C14.5829 12.5705 15.0399 12.504 15.4749 12.504C15.9089 12.504 16.1269 12.5845 16.6619 12.9086C17.3119 13.3022 18.0019 13.5041 18.7559 13.4999C20.0389 13.4927 20.8739 13.0525 21.7249 12.1928C22.1119 11.8013 22.0939 11.201 21.6929 10.8235C21.2919 10.4459 20.6979 10.3936 20.3179 10.7923C20.2659 10.8476 20.0229 11.0558 20.0059 11.0724C19.7099 11.3604 19.2089 11.5152 18.7559 11.5081C18.3409 11.5016 17.9769 11.3842 17.6929 11.1969C16.8539 10.6419 16.1479 10.5121 15.2869 10.5122C14.7079 10.5122 13.8379 10.699 13.2559 11.1035C12.5199 11.6151 11.5439 11.6019 10.9119 11.1657C10.2019 10.6758 9.3439 10.4829 8.5059 10.5122C7.6379 10.5426 6.96289 10.8009 6.34989 11.228C5.82289 11.5945 4.7709 11.6016 4.1929 11.1969L3.6309 10.7612C3.3449 10.562 3.18289 10.4637 2.91189 10.5122Z" fill="#FF6900"/>
</svg>
