<svg width="136" height="152" viewBox="0 0 136 152" fill="none" xmlns="http://www.w3.org/2000/svg">
<path d="M12.8428 28.0537C14.3568 27.5437 15.2408 25.9037 14.7358 24.3937C14.2308 22.8737 12.5898 21.9937 10.9488 22.4937C9.43382 23.0037 8.55082 24.6437 9.05582 26.1537C9.55982 27.6737 11.2018 28.5537 12.8428 28.0537Z" fill="#F7F7F7"/>
<path d="M19.2807 18.4539C20.2907 18.0839 20.9217 16.9439 20.5427 15.9339C20.1637 14.9239 19.0277 14.2939 18.0177 14.6739C17.0087 15.0539 16.3767 16.1839 16.7557 17.1939C17.0087 18.2039 18.1447 18.8339 19.2807 18.4539Z" fill="#F7F7F7"/>
<path d="M126.145 41.4037C128.045 39.7537 128.165 36.8537 126.405 35.0837C124.755 33.3237 121.855 33.1937 120.085 34.8337C118.195 36.4737 118.065 39.3837 119.835 41.1437C121.475 42.9137 124.385 43.0437 126.145 41.4037Z" fill="#F7F7F7"/>
<path d="M132.965 50.2436C133.725 49.4836 133.845 48.3536 133.095 47.5936C132.335 46.8336 131.195 46.7136 130.445 47.4636C129.685 48.2236 129.555 49.3636 130.315 50.1136C130.945 51.0036 132.205 51.0036 132.965 50.2436Z" fill="#F7F7F7"/>
<path d="M18.018 125.124C18.776 124.374 18.902 123.234 18.145 122.474C17.387 121.724 16.251 121.594 15.494 122.354C14.736 123.104 14.61 124.244 15.367 125.004C16.125 125.754 17.261 125.884 18.018 125.124Z" fill="#F7F7F7"/>
<path d="M65.7352 131.313C98.1752 131.313 124.565 105.053 124.565 72.7435C124.435 40.2935 98.1752 14.0435 65.7352 14.0435C33.1672 14.0435 6.91016 40.2935 6.91016 72.6135C6.91016 105.053 33.1672 131.313 65.7352 131.313Z" fill="#F7F7F7"/>
<path d="M104.775 42.4235V46.9535H104.425H100.005L32.1915 46.7235C30.9125 46.7235 29.6325 46.4935 28.3535 46.1435C28.2375 46.1435 28.1205 46.0235 28.0045 46.0235C26.3755 45.4435 24.9805 44.7435 23.8165 43.5835C22.8865 42.6535 22.1885 41.2535 22.1885 39.9835C22.1885 37.5335 24.1655 35.6735 26.9575 34.5135C27.8885 34.0435 29.0515 33.8135 30.2145 33.6935C30.6795 33.6935 31.1455 33.5835 31.6105 33.5835H95.9355C96.6355 33.5835 97.2155 33.6935 97.7955 33.8135C98.2655 33.9335 98.7255 34.0435 99.1955 34.2835C102.565 35.6735 104.775 38.7035 104.775 42.4235Z" fill="#E6E6E6"/>
<path d="M104.425 46.9538H100.005L32.1914 46.7238C30.9124 46.7238 29.6324 46.4938 28.3534 46.1438C28.2364 46.1438 28.1204 46.0238 28.0044 46.0238C26.3754 45.4438 24.9804 44.7438 23.8164 43.5838C24.6314 42.7738 25.6774 42.0738 26.9574 41.6038C27.8884 41.1438 29.0514 40.9138 30.2144 40.7938C30.6794 40.6738 31.1444 40.6738 31.6104 40.6738H95.9354C96.6354 40.6738 97.2154 40.7938 97.7954 40.9138C98.2654 41.0238 98.7254 41.1438 99.1954 41.3738C101.755 42.4238 103.615 44.5138 104.425 46.9538Z" fill="#CCCCCC"/>
<g filter="url(#filter0_d_11072_8699)">
<path d="M113.035 54.0539V111.164C113.035 115.124 109.895 118.264 105.935 118.264H37.4263C31.7263 118.264 27.3063 115.584 24.5143 113.374C23.2353 112.334 22.4213 110.704 22.4213 109.074C22.4213 108.264 22.4213 107.444 22.4213 106.634C22.4213 105.464 22.4213 104.074 22.4213 102.674C22.4213 96.1639 22.4213 87.4339 22.3043 78.5939C22.3043 77.3139 22.3043 76.0339 22.3043 74.6439C22.3043 69.9939 22.3043 65.3339 22.1883 60.9139C22.1883 59.6339 22.1883 58.3539 22.1883 56.9639C22.1883 48.2339 22.0723 41.7239 22.0723 40.2139C22.0723 42.7739 24.5143 45.0939 27.7713 46.0239C27.8883 46.0239 28.0043 46.1439 28.1203 46.1439C29.2833 46.4939 30.6793 46.7239 31.9593 46.7239L99.7753 47.0739H104.655H105.825C109.895 46.9539 113.035 50.1039 113.035 54.0539Z" fill="white"/>
</g>
<path opacity="0.1" d="M99.3051 73.4834C96.8651 73.4834 94.7751 74.4134 93.2551 75.9234C91.7451 77.4334 90.7051 79.6434 90.7051 81.9734C90.7051 82.0834 90.7051 82.3234 90.7051 82.4334C90.9351 86.9734 94.7751 90.5734 99.3051 90.5734H113.035V73.4834H99.3051Z" fill="white"/>
<path d="M113.035 70.2236V72.3136C112.915 72.3136 112.805 72.3136 112.565 72.3136H98.6049C96.1649 72.3136 94.0749 73.2436 92.5649 74.7636C91.1649 76.1536 90.1149 78.2436 90.0049 80.4536C90.0049 80.5736 90.0049 80.8036 90.0049 80.9236C90.0049 85.6936 93.8449 89.5336 98.6049 89.5336H112.565C113.265 89.5336 113.845 89.3036 114.085 88.9536C114.195 88.8336 114.315 88.6036 114.315 88.4836V71.2736C114.315 70.6836 113.735 70.3336 113.035 70.2236Z" fill="#F2F2F2"/>
<path d="M97.9149 86.0437C100.705 86.0437 103.035 83.7137 103.035 80.9237C103.035 78.1337 100.705 75.8037 97.9149 75.8037C95.1249 75.8037 92.7949 78.1337 92.7949 80.9237C92.7949 83.7137 95.1249 86.0437 97.9149 86.0437Z" fill="white"/>
<path d="M53.2668 85.5636C55.1888 85.5636 56.8148 83.9436 56.8148 82.0136C56.8148 80.0936 55.1888 78.4736 53.2668 78.4736C51.3448 78.4736 49.7188 80.0936 49.7188 82.0136C49.7188 83.9436 51.3448 85.5636 53.2668 85.5636Z" fill="#CCCCCC"/>
<path d="M80.4699 85.5636C82.3919 85.5636 84.0179 83.9436 84.0179 82.0136C84.0179 80.0936 82.3919 78.4736 80.4699 78.4736C78.5479 78.4736 76.9219 80.0936 76.9219 82.0136C76.9219 84.0836 78.5479 85.5636 80.4699 85.5636Z" fill="#CCCCCC"/>
<path d="M53.1292 70.2734L45.3232 74.4934L46.3772 76.4434L54.1822 72.2334L53.1292 70.2734Z" fill="#CCCCCC"/>
<path d="M79.9876 70.2236L78.9346 72.1736L86.7406 76.3836L87.7956 74.4336L79.9876 70.2236Z" fill="#CCCCCC"/>
<path d="M66.8695 93.8438C69.1555 93.8438 71.0085 92.4538 71.0085 90.7438C71.0085 89.0238 69.1555 87.6338 66.8695 87.6338C64.5825 87.6338 62.7295 89.0238 62.7295 90.7438C62.7295 92.4538 64.5825 93.8438 66.8695 93.8438Z" fill="#CCCCCC"/>
<path d="M127.795 4.67357C116.255 2.13357 103.895 2.54358 92.5549 5.88357C90.2249 6.59357 87.6959 7.50357 85.8729 9.12357C83.0369 11.4536 81.8219 15.6036 82.7329 19.1536C83.6449 22.6936 86.6829 25.6336 90.4249 26.3436C92.7549 26.9436 95.5949 26.1336 97.0149 24.2136C98.3249 22.1936 98.0249 19.1536 96.4049 17.3236C94.7849 15.3036 92.1549 14.4936 89.7249 14.5936C87.2909 14.6936 84.8599 15.6036 82.7329 16.7236C75.8469 20.4636 70.2769 27.0536 67.9479 34.7436C66.7669 38.4836 66.3509 42.4136 66.6539 46.2836" stroke="#CCCCCC" stroke-width="2" stroke-dasharray="4"/>
<path d="M133.876 2.03364C133.776 3.55364 133.676 4.97364 132.556 5.27364C131.446 5.58364 130.936 4.56364 130.226 3.15364C129.526 1.83364 129.926 0.413639 131.146 0.113639C132.256 -0.196361 134.076 0.213639 133.876 2.03364Z" fill="#CCCCCC"/>
<path d="M132.655 9.32367C132.965 7.50367 133.265 6.49367 132.255 5.98367C131.145 5.48367 130.435 6.39367 129.215 7.60367C128.205 8.72367 128.815 10.3437 129.825 10.8437C131.035 11.4537 132.355 10.8437 132.655 9.32367Z" fill="#CCCCCC"/>
<path d="M134.075 5.98376C133.975 6.69376 133.475 7.20376 132.765 7.30376C132.455 7.30376 132.155 7.30376 131.745 7.30376C130.335 7.10376 129.215 6.18376 129.315 5.27376C129.415 4.36376 130.735 3.86376 132.355 4.06376C132.665 4.06376 132.965 4.16376 133.165 4.26376C133.775 4.46376 134.175 5.17376 134.075 5.98376C134.075 5.98376 134.075 5.88376 134.075 5.98376Z" fill="#CCCCCC"/>
<path d="M22.5928 21.2239C22.5928 19.5039 22.5928 17.7839 23.8078 17.2739C25.1248 16.7739 25.8338 17.9839 26.8458 19.7039C27.7578 21.2239 27.3528 22.8439 26.0358 23.3539C24.9218 23.8639 22.5928 23.5539 22.5928 21.2239Z" fill="#CCCCCC"/>
<path d="M23.3021 12.7237C23.0991 14.8437 22.7951 16.0637 24.1121 16.5637C25.4291 17.0737 26.1371 15.9637 27.4541 14.3437C28.4671 12.9237 27.7581 11.1037 26.4411 10.5937C25.1251 10.0837 23.5041 10.9937 23.3021 12.7237Z" fill="#CCCCCC"/>
<path d="M22.1885 16.7737C22.1885 15.9637 22.7965 15.3537 23.5045 15.2537C23.8085 15.1537 24.2135 15.1537 24.6185 15.2537C26.2395 15.3537 27.6575 16.2637 27.5555 17.2737C27.4545 18.2937 26.1375 18.9937 24.4165 18.7937C24.1125 18.7937 23.8085 18.6937 23.5045 18.5937C22.6945 18.4937 22.1885 17.6837 22.1885 16.7737Z" fill="#CCCCCC"/>
<path d="M29.0742 17.0737C39.7082 17.0737 59.3542 23.2537 59.6582 45.9337" stroke="#CCCCCC" stroke-width="2" stroke-dasharray="4"/>
<defs>
<filter id="filter0_d_11072_8699" x="0.0722656" y="29.2139" width="134.963" height="122.05" filterUnits="userSpaceOnUse" color-interpolation-filters="sRGB">
<feFlood flood-opacity="0" result="BackgroundImageFix"/>
<feColorMatrix in="SourceAlpha" type="matrix" values="0 0 0 0 0 0 0 0 0 0 0 0 0 0 0 0 0 0 127 0" result="hardAlpha"/>
<feOffset dy="11"/>
<feGaussianBlur stdDeviation="11"/>
<feColorMatrix type="matrix" values="0 0 0 0 0.396078 0 0 0 0 0.478431 0 0 0 0 0.576471 0 0 0 0.27 0"/>
<feBlend mode="normal" in2="BackgroundImageFix" result="effect1_dropShadow_11072_8699"/>
<feBlend mode="normal" in="SourceGraphic" in2="effect1_dropShadow_11072_8699" result="shape"/>
</filter>
</defs>
</svg>
