<svg width="32" height="32" viewBox="0 0 32 32" fill="none" xmlns="http://www.w3.org/2000/svg">
<g clip-path="url(#clip0_7388_22099)">
<path d="M23.9987 2.66675C23.2627 2.66675 22.6654 3.26408 22.6654 4.00008V7.4174L16.668 13.4134C16.668 13.4134 16.208 13.3334 15.9987 13.3334C14.5254 13.3334 13.332 14.5267 13.332 16.0001C13.332 17.4734 14.5254 18.6667 15.9987 18.6667C17.472 18.6667 18.6654 17.4734 18.6654 16.0001C18.6654 15.7907 18.58 15.3348 18.58 15.3348L24.5827 9.33341H27.9987C28.7347 9.33341 29.332 8.73608 29.332 8.00008C29.332 7.26408 28.7347 6.66675 27.9987 6.66675H25.332V4.00008C25.332 3.26408 24.7347 2.66675 23.9987 2.66675Z" fill="#1A1A1A"/>
<path d="M15.9993 2.66675C8.63535 2.66675 2.66602 8.63608 2.66602 16.0001C2.66602 23.3641 8.63535 29.3334 15.9993 29.3334C23.3633 29.3334 29.3327 23.3641 29.3327 16.0001C29.3327 14.9947 29.218 14.0068 28.9993 13.0414C28.8367 12.3241 28.134 11.8788 27.4153 12.0414C26.698 12.2041 26.2527 12.9067 26.4153 13.6254C26.5913 14.3961 26.666 15.1934 26.666 16.0001C26.666 21.8907 21.89 26.6667 15.9993 26.6667C10.1087 26.6667 5.33268 21.8907 5.33268 16.0001C5.33268 10.1094 10.1087 5.33341 15.9993 5.33341C16.8047 5.33341 17.6033 5.40807 18.374 5.58407C19.0927 5.74673 19.7953 5.3014 19.958 4.58407C20.1207 3.8654 19.6753 3.16275 18.958 3.00008C17.994 2.78141 17.0033 2.66675 15.9993 2.66675ZM15.9993 8.00008C11.5807 8.00008 7.99934 11.5814 7.99934 16.0001C7.99934 20.4187 11.5807 24.0001 15.9993 24.0001C20.418 24.0001 23.9993 20.4187 23.9993 16.0001C23.9993 15.2641 23.402 14.6667 22.666 14.6667C21.93 14.6667 21.3327 15.2641 21.3327 16.0001C21.3327 18.9454 18.9447 21.3334 15.9993 21.3334C13.054 21.3334 10.666 18.9454 10.666 16.0001C10.666 13.0547 13.054 10.6667 15.9993 10.6667C16.7353 10.6667 17.3327 10.0694 17.3327 9.33341C17.3327 8.59741 16.7353 8.00008 15.9993 8.00008Z" fill="#FF6900"/>
</g>
<defs>
<clipPath id="clip0_7388_22099">
<rect width="32" height="32" fill="white"/>
</clipPath>
</defs>
</svg>
