<svg width="35" height="42" viewBox="0 0 35 42" fill="none" xmlns="http://www.w3.org/2000/svg">
<path d="M28.4698 22.6545C28.4222 17.4977 32.8028 14.9889 33.0031 14.8721C30.5222 11.3473 26.6769 10.8657 25.3256 10.8273C22.096 10.4961 18.9633 12.7105 17.3181 12.7105C15.6401 12.7105 13.1067 10.8593 10.3762 10.9137C6.86255 10.9665 3.57549 12.9489 1.77269 16.0273C-1.94783 22.3041 0.826962 31.5281 4.39151 36.6017C6.1746 39.0865 8.25816 41.8609 10.9853 41.7633C13.6534 41.6561 14.65 40.1057 17.8698 40.1057C21.06 40.1057 21.9959 41.7633 24.7772 41.7009C27.6407 41.6561 29.4435 39.2049 31.1642 36.6977C33.2247 33.8497 34.0523 31.0449 34.0851 30.9009C34.0178 30.8785 28.524 28.8353 28.4698 22.6545Z" fill="white"/>
<path d="M23.2158 7.48967C24.6508 5.74087 25.6326 3.36167 25.3601 0.947266C23.2831 1.03687 20.6856 2.34727 19.1899 4.05767C17.8665 5.56487 16.6843 8.03526 16.9897 10.3585C19.3229 10.5281 21.7184 9.21126 23.2158 7.48967Z" fill="white"/>
</svg>
