<svg width="136" height="120" viewBox="0 0 136 120" fill="none" xmlns="http://www.w3.org/2000/svg">
<g opacity="0.2" clip-path="url(#clip0_10792_1652)">
<path d="M16.9667 80.3563C16.9667 77.9061 18.9424 75.9039 21.419 75.9039H61.7021C64.1522 75.9039 66.1545 77.8797 66.1545 80.3563V130.941H78.5898C77.2987 126.936 76.614 122.695 76.614 118.242C76.614 97.4812 91.8948 80.2507 111.786 77.1155V58.4363C109.02 60.1487 105.726 61.1236 102.249 61.1236C96.6634 61.1236 91.6576 58.5944 88.2591 54.6689C84.8867 58.5944 79.8809 61.1236 74.2694 61.1236C68.6576 61.1236 63.6783 58.5944 60.2798 54.6689C56.9074 58.5944 51.9015 61.1236 46.2901 61.1236C40.7047 61.1236 35.6989 58.5944 32.3004 54.6689C28.928 58.5944 23.9222 61.1236 18.3107 61.1236C14.8067 61.1236 11.5663 60.1223 8.77344 58.4098V130.914H16.8615V80.3563H16.9667Z" fill="white"/>
<path d="M107.333 26.1354L94.397 8.87891H26.2663L13.3301 26.1354H107.333Z" fill="white"/>
<path d="M120.665 76.7201V30.588H120.613C120.613 29.6397 120.349 28.6909 119.77 27.9007L100.194 1.76506C99.3513 0.632504 98.0602 0 96.6375 0H24.0278C22.6316 0 21.314 0.658587 20.4712 1.79155L0.869286 27.9268C0.263272 28.717 0.0260827 29.6658 0.0260827 30.6141H0V135.419C0 137.869 1.97576 139.872 4.45239 139.872H82.6739C89.9717 151.912 103.198 160 118.294 160C141.294 160 160 141.294 160 118.294C159.974 96.1105 142.532 77.9847 120.665 76.7201ZM26.2673 8.8787H94.4245L107.334 26.1352H13.3311L26.2673 8.8787ZM111.76 35.0404V42.7862C111.76 48.0553 107.466 52.3234 102.223 52.3234C96.9537 52.3234 92.6856 48.0292 92.6856 42.7862V35.0404H111.76ZM83.8333 35.0404V42.7862C83.8333 48.0553 79.5391 52.3234 74.2961 52.3234C69.0269 52.3234 64.7588 48.0292 64.7588 42.7862V35.0404C64.7323 35.0404 83.8333 35.0404 83.8333 35.0404ZM55.9066 35.0404V42.7862C55.9066 48.0553 51.6123 52.3234 46.3693 52.3234C41.1262 52.3234 36.8581 48.0027 36.8581 42.7597V35.0139H55.9062C55.9066 35.0139 55.9066 35.0404 55.9066 35.0404ZM8.8787 35.0404H27.9268V42.7862C27.9268 48.0553 23.6325 52.3234 18.3895 52.3234C13.1465 52.3234 8.85221 48.0553 8.85221 42.7862V35.0404H8.8787ZM57.2502 130.967H25.8455V84.8347H57.2502V130.967ZM78.5903 130.967H66.1285V80.3558C66.1285 77.9056 64.1528 75.9034 61.6761 75.9034H21.4192C18.969 75.9034 16.9668 77.8792 16.9668 80.3558V130.94H8.8787V58.4883C11.6451 60.2008 14.9384 61.2021 18.416 61.2021C24.0013 61.2021 29.0072 58.6729 32.4057 54.7475C35.7781 58.6729 40.7839 61.2021 46.3954 61.2021C51.9807 61.2021 56.9865 58.6729 60.385 54.7475C63.7574 58.6729 68.7633 61.2021 74.3747 61.2021C79.9601 61.2021 84.9659 58.6729 88.3644 54.7475C91.7368 58.6729 96.7426 61.2021 102.354 61.2021C105.858 61.2021 109.098 60.2273 111.891 58.5148V77.168C92.0001 80.3297 76.7193 97.5337 76.7193 118.294C76.6146 122.72 77.2996 126.962 78.5903 130.967ZM118.294 151.095C100.221 151.095 85.4672 136.394 85.4672 118.268C85.4672 100.195 100.168 85.4933 118.294 85.4933C136.42 85.4933 151.121 100.195 151.121 118.268C151.095 136.394 136.394 151.095 118.294 151.095Z" fill="#1A1A1A"/>
<path d="M18.4162 52.2967C23.6853 52.2967 27.9535 48.0024 27.9535 42.7594V35.0137H8.87891V42.7594C8.87891 48.0289 13.1732 52.2967 18.4162 52.2967Z" fill="#FF6900"/>
<path d="M46.3428 52.2967C51.6119 52.2967 55.8801 48.0024 55.8801 42.7594V35.0137H36.832V42.7594C36.832 48.0289 41.0998 52.2967 46.3428 52.2967Z" fill="#FFF0E5"/>
<path d="M74.2959 52.2967C79.5651 52.2967 83.8332 48.0024 83.8332 42.7594V35.0137H64.7852V42.7594C64.7852 48.0289 69.0529 52.2967 74.2959 52.2967Z" fill="#FF6900"/>
<path d="M102.249 52.2967C107.518 52.2967 111.786 48.0024 111.786 42.7594V35.0137H92.7384V42.7594C92.7119 48.0289 96.9801 52.2967 102.249 52.2967Z" fill="#FFF0E5"/>
<path d="M57.2505 84.834H25.8457V130.966H57.2505V84.834Z" fill="#FFF0E5"/>
<path d="M118.294 85.4932C100.221 85.4932 85.4668 100.194 85.4668 118.268C85.4668 136.341 100.168 151.095 118.294 151.095C136.42 151.095 151.121 136.393 151.121 118.268C151.094 100.194 136.394 85.4932 118.294 85.4932Z" fill="#FF6900"/>
<path d="M118.294 103.672C121.139 103.672 123.405 105.964 123.405 108.783C123.405 111.233 125.381 113.235 127.857 113.235C130.307 113.235 132.31 111.26 132.31 108.783C132.31 102.618 128.305 97.375 122.746 95.5309V93.4231C122.746 90.9729 120.77 88.9707 118.294 88.9707C115.817 88.9707 113.841 90.9465 113.841 93.4231V95.5309C108.308 97.4015 104.277 102.618 104.277 108.783C104.277 116.502 110.548 122.799 118.294 122.799C118.188 122.799 118.294 122.799 118.32 122.799C120.902 123.089 123.431 125.223 123.431 127.831C123.431 130.676 121.139 132.942 118.32 132.942C115.501 132.942 113.209 130.65 113.209 127.831C113.209 125.381 111.233 123.379 108.757 123.379C106.306 123.379 104.304 125.354 104.304 127.831C104.304 133.996 108.309 139.239 113.868 141.083V143.164C113.868 145.614 115.844 147.617 118.32 147.617C120.797 147.617 122.773 145.641 122.773 143.164V141.083C128.306 139.212 132.337 133.996 132.337 127.831C132.337 120.112 125.539 113.841 117.82 113.841C117.926 113.841 117.82 113.841 117.793 113.841C115.212 113.552 113.236 111.391 113.236 108.783C113.183 105.937 115.475 103.672 118.294 103.672Z" fill="#1A1A1A"/>
</g>
<defs>
<clipPath id="clip0_10792_1652">
<rect width="136" height="120" fill="white"/>
</clipPath>
</defs>
</svg>
