<svg width="137" height="120" viewBox="0 0 137 120" fill="none" xmlns="http://www.w3.org/2000/svg">
<g opacity="0.2" clip-path="url(#clip0_10792_1632)">
<path d="M74.9521 31.0586C70.6058 36.959 63.1513 42.8594 52.4306 42.8594C51.7982 42.8594 51.1663 42.833 50.5078 42.7539C50.6659 61.0871 63.8362 75.9696 80.0095 75.9696C96.2883 75.9696 109.511 60.929 109.511 42.4377C109.511 41.7793 109.459 41.1208 109.406 40.4884C90.4665 42.28 80.1411 36.169 74.9521 31.0586Z" fill="white"/>
<path d="M94.4435 56.3196C92.7048 54.581 89.9129 54.581 88.1478 56.3196C83.6433 60.8241 76.3209 60.8241 71.8164 56.3196C70.0778 54.581 67.2859 54.581 65.5208 56.3196C63.7821 58.0582 63.7821 60.8501 65.5208 62.6153C73.423 70.6491 86.804 70.3594 94.4166 62.6153C96.1556 60.8766 96.1556 58.0582 94.4435 56.3196Z" fill="#1A1A1A"/>
<path d="M144.334 91.0115C139.013 84.953 126.053 79.1846 105.771 73.7845C113.489 66.0139 118.362 54.8719 118.362 42.4652C118.389 19.0745 101.162 0.0302734 79.9836 0.0302734C58.8319 0.0302734 41.6049 19.0745 41.6049 42.4652C41.6049 54.8715 46.4782 66.0139 54.1959 73.7845C33.9133 79.1581 20.9537 84.953 15.6331 91.0115C4.80687 103.391 0.513465 149.857 0.0391825 155.125C-0.329568 157.601 1.96198 159.972 4.49068 159.972H155.529C158.242 159.972 160.218 157.654 159.98 155.151C159.48 149.857 155.213 103.391 144.334 91.0115ZM79.9836 8.93327C92.9167 8.93327 103.901 18.4686 107.879 31.6654C84.6196 33.5622 78.6931 21.7878 78.4295 21.3135C77.7446 19.6804 76.138 18.6267 74.3468 18.6267C74.3203 18.6267 74.3203 18.6267 74.2942 18.6267C72.503 18.6532 70.8964 19.7595 70.2375 21.4191C70.0269 22.0249 64.7588 34.4313 51.483 33.9309C54.8282 19.5488 66.3129 8.93327 79.9836 8.93327ZM50.5083 42.8078C51.1668 42.8604 51.7992 42.9134 52.4311 42.9134C63.1253 42.9134 70.6063 36.9869 74.9527 31.1125C80.1417 36.2225 90.4675 42.281 109.433 40.5688C109.459 41.2273 109.538 41.8597 109.538 42.5181C109.538 61.0095 96.3149 76.05 80.0365 76.05C63.8368 76.0235 50.6664 61.1411 50.5083 42.8078ZM51.1668 83.8728C54.9334 82.7666 59.0165 81.7129 63.3099 80.6592C68.3408 83.3725 73.978 84.9 79.9575 84.9C85.937 84.9 91.5738 83.346 96.6051 80.6592C100.951 81.6864 105.008 82.7666 108.748 83.8728V105.183L82.8289 86.4806C81.0641 85.2953 78.509 85.4008 77.034 86.4806L51.1146 105.183V83.8728H51.1668ZM90.9414 103.234L79.6939 113.348L68.9997 103.313L80.0101 95.384L90.9414 103.234ZM56.5929 151.069H9.36389C11.3393 132.024 16.1334 103.945 22.2971 96.8855C25.142 93.6718 32.0957 90.1424 42.2899 86.6651V113.901C42.0267 117.009 46.0304 119.749 49.3491 117.484L61.6503 108.607L65.2327 111.979L56.5929 151.069ZM65.6805 151.069L72.7662 119.038L76.5858 122.621C78.2453 124.122 80.8792 124.359 82.5913 122.673L87.1218 118.616L94.3127 151.068H65.6805V151.069ZM103.401 151.069L94.7083 111.794L98.2907 108.581L110.644 117.484C114.2 119.802 118.02 116.799 117.704 113.901V86.6651C127.871 90.1685 134.852 93.6983 137.697 96.8855C143.86 103.945 148.654 132.024 150.63 151.069H103.401Z" fill="#1A1A1A"/>
<path d="M61.6237 108.58L49.3489 117.457C46.0302 119.696 42.079 116.957 42.2897 113.875V86.6387C32.1219 90.142 25.1417 93.6718 22.2969 96.859C16.1328 103.918 11.3391 131.997 9.36328 151.042H56.5923L65.2586 111.926L61.6237 108.58Z" fill="#FF6900"/>
<path d="M117.676 86.6377V113.874C118.018 116.771 114.173 119.8 110.617 117.456L98.2629 108.553L94.707 111.793L103.399 151.094H150.628C148.653 132.05 143.859 103.97 137.695 96.911C134.824 93.6709 127.87 90.141 117.676 86.6377Z" fill="#FF6900"/>
<path d="M51.4824 33.9039C64.7583 34.4307 70.0263 21.9979 70.237 21.392C70.8954 19.7324 72.5025 18.6262 74.2936 18.5997C74.3201 18.5997 74.3201 18.5997 74.3462 18.5997C76.1109 18.5997 77.7179 19.6269 78.429 21.2865C78.6396 21.7608 84.5926 33.5612 107.878 31.6384C103.9 18.4416 92.9166 8.90625 79.983 8.90625C66.3123 8.93273 54.8277 19.5483 51.4824 33.9039Z" fill="#FF6900"/>
</g>
<defs>
<clipPath id="clip0_10792_1632">
<rect width="137" height="120" fill="white"/>
</clipPath>
</defs>
</svg>
