<svg width="32" height="32" viewBox="0 0 32 32" fill="none" xmlns="http://www.w3.org/2000/svg">
<path fill-rule="evenodd" clip-rule="evenodd" d="M5.33333 4C6.06971 4 6.66667 4.59695 6.66667 5.33333V22.6667C6.66667 24.1394 7.86057 25.3333 9.33333 25.3333H26.6667C27.403 25.3333 28 25.9303 28 26.6667C28 27.403 27.403 28 26.6667 28H9.33333C6.38781 28 4 25.6122 4 22.6667V5.33333C4 4.59695 4.59695 4 5.33333 4Z" fill="#1A1A1A"/>
<path d="M18.6751 6.66675V9.33341H23.4205L19.7156 13.0414C19.5957 13.1628 19.2213 13.3334 19.0494 13.3334H16.9685C16.0906 13.3334 15.0075 13.7534 14.3867 14.3748L9.72416 19.0414C9.20393 19.5628 9.20393 20.4374 9.72416 20.9587C9.98434 21.2187 10.3408 21.3334 10.6818 21.3334C11.0227 21.3334 11.3792 21.2187 11.6394 20.9587L16.3024 16.2921C16.4223 16.1707 16.7967 16.0001 16.9685 16.0001H19.0494C19.9274 16.0001 21.0105 15.5801 21.6313 14.9587L25.3362 11.2507V16.0001H28.0007V8.00008C28.0007 7.26408 27.4038 6.66675 26.6684 6.66675H18.6751Z" fill="#1BCC00"/>
</svg>
