<svg width="92" height="120" viewBox="0 0 92 120" fill="none" xmlns="http://www.w3.org/2000/svg">
<g clip-path="url(#clip0_10671_3194)">
<path fill-rule="evenodd" clip-rule="evenodd" d="M0.00195312 0H91.0134V91.0115H0.00195312V0Z" fill="#FF6900"/>
<mask id="mask0_10671_3194" style="mask-type:luminance" maskUnits="userSpaceOnUse" x="0" y="0" width="92" height="92">
<path d="M0.00195312 0H91.0134V91.0115H0.00195312V0Z" fill="white"/>
</mask>
<g mask="url(#mask0_10671_3194)">
<path fill-rule="evenodd" clip-rule="evenodd" d="M-7.9668 22.4826V36.2069C5.24927 36.2069 52.6415 36.2865 65.9394 36.2865C73.7889 36.2865 73.7889 48.2234 65.9394 48.2234C58.5701 48.2234 53.5115 48.3828 46.0625 48.3828C34.4465 48.3828 27.0341 55.429 26.78 66.4076C26.6379 72.4913 26.78 91.5455 26.78 97.5538H40.4203V68.1304C40.4203 64.8463 43.2199 62.1221 46.3489 62.1221H65.9458C92.8496 62.1221 92.4942 22.4826 65.9458 22.4826H-7.9668Z" fill="white"/>
</g>
</g>
<g clip-path="url(#clip1_10671_3194)">
<path d="M83.0048 97.9253L88.663 113.338C89.433 115.436 90.2037 117.535 90.9751 119.634C91.0141 119.738 91.0487 119.851 91.0941 119.972H84.8454C84.8216 119.909 84.7913 119.833 84.7654 119.756C84.2636 118.222 83.7596 116.689 83.2643 115.151C83.2511 115.072 83.2072 115.002 83.1423 114.956C83.0774 114.91 82.9968 114.891 82.9183 114.904C80.5477 114.904 78.1779 114.904 75.8088 114.904C75.726 114.892 75.6418 114.914 75.5746 114.963C75.5074 115.013 75.4625 115.088 75.4497 115.17C74.9458 116.695 74.4267 118.213 73.9227 119.738C73.9094 119.821 73.8641 119.895 73.7965 119.945C73.7289 119.995 73.6446 120.016 73.5615 120.004C71.7793 120.004 69.997 120.004 68.2169 120.004C68.1326 120.004 68.0482 120.004 67.9336 119.991C68.0893 119.589 68.2321 119.211 68.377 118.834C71.0446 111.96 73.71 105.092 76.3733 98.2281C76.4144 98.1243 76.4685 98.0269 76.516 97.9253H83.0048ZM77.1 110.542H81.8282L79.5484 102.932H79.4792C78.6876 105.467 77.8981 107.994 77.1 110.542Z" fill="white"/>
<path d="M8.86795 97.9253C9.35893 97.9599 9.84991 97.988 10.3409 98.0291C11.8463 98.1387 13.3022 98.6139 14.5824 99.4134C15.3023 99.8514 15.9145 100.446 16.3739 101.152C16.8332 101.858 17.128 102.659 17.2363 103.495C17.4521 104.743 17.3547 106.025 16.9529 107.226C16.2219 109.326 14.7078 110.602 12.599 111.203C11.6403 111.471 10.6482 111.599 9.65309 111.584C8.51107 111.584 7.36905 111.584 6.22919 111.584H5.92422C5.88745 114.396 5.85068 117.173 5.81391 119.987H0V118.949C0.0129775 118.717 0.0346066 118.486 0.0367695 118.257C0.0973311 111.596 0.157172 104.937 0.216291 98.28C0.224308 98.1611 0.238748 98.0427 0.25955 97.9253H8.86795ZM5.87015 102.126L5.71009 107.405C7.00784 107.353 8.29261 107.511 9.55143 107.26C9.92126 107.206 10.2734 107.066 10.5803 106.852C10.8872 106.639 11.1406 106.357 11.3207 106.03C11.5392 105.575 11.6296 105.07 11.5824 104.568C11.5391 103.365 10.9876 102.647 9.82828 102.338C8.53702 101.992 7.21548 102.191 5.87015 102.126Z" fill="white"/>
<path d="M37.1149 97.9253C37.1149 99.5258 37.1149 101.124 37.0911 102.725C37.0536 106.808 37.0154 110.891 36.9765 114.973C36.9765 115.049 36.9765 115.125 36.9895 115.231H46.8545V119.972H31.2513C31.2513 119.888 31.2383 119.803 31.2383 119.721C31.3032 112.569 31.3695 105.415 31.4373 98.2605C31.4373 98.1502 31.4502 98.0443 31.4567 97.9253H37.1149Z" fill="white"/>
<path d="M56.5823 97.9253C56.5823 98.7212 56.5823 99.5172 56.5823 100.304C56.5376 105.155 56.4908 110.008 56.4418 114.863V115.229H66.3155V119.97H50.7144C50.7054 119.898 50.7003 119.826 50.6992 119.753C50.7612 112.624 50.8261 105.496 50.8939 98.3687C50.8939 98.2238 50.9133 98.0767 50.9242 97.9361L56.5823 97.9253Z" fill="white"/>
<path d="M26.2773 119.987H20.5586C20.6134 112.676 20.6667 105.37 20.7186 98.0681H26.4331C26.3876 105.377 26.3292 112.666 26.2773 119.987Z" fill="white"/>
</g>
<defs>
<clipPath id="clip0_10671_3194">
<rect width="91.0933" height="91.0933" fill="white"/>
</clipPath>
<clipPath id="clip1_10671_3194">
<rect width="91.0933" height="22.0747" fill="white" transform="translate(0 97.9253)"/>
</clipPath>
</defs>
</svg>
