<svg width="38" height="42" viewBox="0 0 38 42" fill="none" xmlns="http://www.w3.org/2000/svg">
<path d="M0.788769 1.06195C0.306464 1.55395 0.0273438 2.31995 0.0273438 3.31195V38.696C0.0273438 39.688 0.306464 40.454 0.788769 40.946L0.907807 41.054L21.2549 21.234V20.766L0.907807 0.945951L0.788769 1.06195Z" fill="url(#paint0_linear_1089_18595)"/>
<path d="M28.0288 27.8438L21.2539 21.2338V20.7657L28.037 14.1558L28.1888 14.2418L36.2218 18.6958C38.5143 19.9597 38.5143 22.0398 36.2218 23.3117L28.1888 27.7577L28.0288 27.8438Z" fill="url(#paint1_linear_1089_18595)"/>
<path d="M28.1882 27.758L21.2533 21L0.787109 40.946C1.54854 41.726 2.79021 41.82 4.20224 41.04L28.1882 27.758Z" fill="url(#paint2_linear_1089_18595)"/>
<path d="M28.1882 14.242L4.20224 0.960005C2.79021 0.188006 1.54854 0.282005 0.787109 1.062L21.2533 21L28.1882 14.242Z" fill="url(#paint3_linear_1089_18595)"/>
<defs>
<linearGradient id="paint0_linear_1089_18595" x1="19.4484" y1="39.0644" x2="-7.39452" y2="11.5188" gradientUnits="userSpaceOnUse">
<stop stop-color="#00A0FF"/>
<stop offset="0.0066" stop-color="#00A1FF"/>
<stop offset="0.2601" stop-color="#00BEFF"/>
<stop offset="0.5122" stop-color="#00D2FF"/>
<stop offset="0.7604" stop-color="#00DFFF"/>
<stop offset="1" stop-color="#00E3FF"/>
</linearGradient>
<linearGradient id="paint1_linear_1089_18595" x1="39.207" y1="20.9975" x2="-0.521655" y2="20.9975" gradientUnits="userSpaceOnUse">
<stop stop-color="#FFE000"/>
<stop offset="0.4087" stop-color="#FFBD00"/>
<stop offset="0.7754" stop-color="#FFA500"/>
<stop offset="1" stop-color="#FF9C00"/>
</linearGradient>
<linearGradient id="paint2_linear_1089_18595" x1="24.4172" y1="17.3262" x2="-11.9839" y2="-20.0279" gradientUnits="userSpaceOnUse">
<stop stop-color="#FF3A44"/>
<stop offset="1" stop-color="#C31162"/>
</linearGradient>
<linearGradient id="paint3_linear_1089_18595" x1="-4.36465" y1="52.7181" x2="11.8901" y2="36.0379" gradientUnits="userSpaceOnUse">
<stop stop-color="#32A071"/>
<stop offset="0.0685" stop-color="#2DA771"/>
<stop offset="0.4762" stop-color="#15CF74"/>
<stop offset="0.8009" stop-color="#06E775"/>
<stop offset="1" stop-color="#00F076"/>
</linearGradient>
</defs>
</svg>
