<svg width="21" height="20" viewBox="0 0 21 20" fill="none" xmlns="http://www.w3.org/2000/svg">
<path fill-rule="evenodd" clip-rule="evenodd" d="M8 4.99984V3.41652C6.36739 3.74792 5.08142 5.0339 4.75002 6.6665H6.33333C7.25381 6.6665 8 5.92031 8 4.99984ZM3 7.49984V8.33317V11.6665C3 13.5075 4.49238 14.9998 6.33333 14.9998H11.3333C13.1743 14.9998 14.6667 13.5075 14.6667 11.6665V4.99984C14.6667 3.15889 13.1743 1.6665 11.3333 1.6665H9.66667H8.83333C5.61167 1.6665 3 4.27818 3 7.49984ZM9.66667 3.33317V4.99984C9.66667 6.84079 8.17428 8.33317 6.33333 8.33317H4.66667V11.6665C4.66667 12.587 5.41286 13.3332 6.33333 13.3332H11.3333C12.2538 13.3332 13 12.587 13 11.6665V4.99984C13 4.07936 12.2538 3.33317 11.3333 3.33317H9.66667Z" fill="#4D4D4D"/>
<path fill-rule="evenodd" clip-rule="evenodd" d="M14.6654 5C16.5063 5 17.9987 6.49238 17.9987 8.33333V15C17.9987 16.841 16.5063 18.3333 14.6654 18.3333H9.66536C7.82442 18.3333 6.33203 16.841 6.33203 15H7.9987C7.9987 15.9205 8.74489 16.6667 9.66536 16.6667H14.6654C15.5858 16.6667 16.332 15.9205 16.332 15V8.33333C16.332 7.41286 15.5858 6.66667 14.6654 6.66667V5Z" fill="#999999"/>
</svg>
