<svg width="20" height="20" viewBox="0 0 20 20" fill="none" xmlns="http://www.w3.org/2000/svg">
<path d="M9.9974 1.66699C5.39506 1.66699 1.66406 5.39783 1.66406 10.0003C1.66406 14.6028 5.39506 18.3337 9.9974 18.3337C14.5997 18.3337 18.3307 14.6028 18.3307 10.0003C18.3307 5.39783 14.5997 1.66699 9.9974 1.66699ZM9.9974 3.33366C13.6793 3.33366 16.6641 6.31866 16.6641 10.0003C16.6641 13.682 13.6793 16.667 9.9974 16.667C6.31548 16.667 3.33073 13.682 3.33073 10.0003C3.33073 6.31866 6.31548 3.33366 9.9974 3.33366Z" fill="#999999"/>
<path d="M10.0013 5.83301C9.54105 5.83301 9.16797 6.20634 9.16797 6.66634C9.16797 7.12634 9.54105 7.49967 10.0013 7.49967C10.4616 7.49967 10.8346 7.12634 10.8346 6.66634C10.8346 6.20634 10.4616 5.83301 10.0013 5.83301ZM10.0013 8.33301C9.54105 8.33301 9.16797 8.70634 9.16797 9.16634V13.333C9.16797 13.793 9.54105 14.1663 10.0013 14.1663C10.4616 14.1663 10.8346 13.793 10.8346 13.333V9.16634C10.8346 8.70634 10.4616 8.33301 10.0013 8.33301Z" fill="#1A1A1A"/>
</svg>
