<svg width="20" height="20" viewBox="0 0 20 20" fill="none" xmlns="http://www.w3.org/2000/svg">
<g clip-path="url(#clip0_11347_16582)">
<path d="M5.83333 2.5C5.37308 2.5 5 2.87314 5 3.3329C5 3.79267 5.37308 4.16581 5.83333 4.16581C5.83333 8.61051 5.82465 13.0553 5.83415 17.5L10 17.4923C10.46 17.4923 10.8333 17.1191 10.8333 16.6594V14.9936C10.8333 14.5338 11.2067 14.1607 11.6667 14.1607C12.1267 14.1607 12.5 14.5338 12.5 14.9936V16.6594C12.5 17.1191 12.8733 17.4923 13.3333 17.4923H16.6667C17.1267 17.4923 17.5 17.1191 17.5 16.6594V4.16581C17.96 4.16581 18.3333 3.79267 18.3333 3.3329C18.3333 2.87314 17.96 2.5 17.5 2.5H5.83333ZM7.5 4.16581H15.8333V15.8265H14.1667V14.9936C14.1667 13.6134 13.0475 12.4948 11.6667 12.4948C10.2858 12.4948 9.16667 13.6134 9.16667 14.9936V15.8265H7.5V4.16581Z" fill="#FF6900"/>
<path fill-rule="evenodd" clip-rule="evenodd" d="M2.5013 5.8335C2.04106 5.8335 1.66797 6.20659 1.66797 6.66683C1.66797 7.12707 2.04106 7.50016 2.5013 7.50016V16.6668C2.5013 17.1271 2.8744 17.5002 3.33464 17.5002H5.83464V15.8335H4.16797V7.50016H5.83464V5.8335H2.5013ZM10.8346 6.66683C10.8346 7.12707 10.4615 7.50016 10.0013 7.50016C9.54106 7.50016 9.16797 7.12707 9.16797 6.66683C9.16797 6.20659 9.54106 5.8335 10.0013 5.8335C10.4615 5.8335 10.8346 6.20659 10.8346 6.66683ZM14.168 6.66683C14.168 7.12707 13.7949 7.50016 13.3346 7.50016C12.8744 7.50016 12.5013 7.12707 12.5013 6.66683C12.5013 6.20659 12.8744 5.8335 13.3346 5.8335C13.7949 5.8335 14.168 6.20659 14.168 6.66683ZM10.0013 10.8335C10.4615 10.8335 10.8346 10.4604 10.8346 10.0002C10.8346 9.53993 10.4615 9.16683 10.0013 9.16683C9.54106 9.16683 9.16797 9.53993 9.16797 10.0002C9.16797 10.4604 9.54106 10.8335 10.0013 10.8335ZM14.168 10.0002C14.168 10.4604 13.7949 10.8335 13.3346 10.8335C12.8744 10.8335 12.5013 10.4604 12.5013 10.0002C12.5013 9.53993 12.8744 9.16683 13.3346 9.16683C13.7949 9.16683 14.168 9.53993 14.168 10.0002Z" fill="#FFC499"/>
</g>
<defs>
<clipPath id="clip0_11347_16582">
<rect width="20" height="20" fill="white"/>
</clipPath>
</defs>
</svg>
