<svg width="48" height="48" viewBox="0 0 48 48" fill="none" xmlns="http://www.w3.org/2000/svg">
<g clip-path="url(#clip0_4276_40911)">
<path d="M37.6798 14.0177C36.0111 5.90814 28.0841 0.686818 19.9745 2.35555C13.0304 3.78451 8.03673 9.88255 8.00487 16.972C8.00487 17.3098 8.01884 17.6556 8.04882 18.0214C3.10868 18.5443 -0.472212 22.973 0.0507075 27.9131C0.535399 32.4921 4.39972 35.9657 9.00424 35.9612H10.0536C10.0297 35.6294 10.0037 35.2996 10.0037 34.9617C10.0037 27.7861 15.8207 21.9691 22.9963 21.9691C30.1719 21.9691 35.9888 27.7861 35.9888 34.9617C35.9888 35.2995 35.9628 35.6293 35.9389 35.9612H36.9883C43.0532 35.9777 47.9833 31.0745 47.9999 25.0095C48.0159 19.1899 43.489 14.3684 37.6798 14.0177Z" fill="white"/>
<path d="M22.9937 45.9551C29.0653 45.9551 33.9874 41.0331 33.9874 34.9614C33.9874 28.8898 29.0653 23.9678 22.9937 23.9678C16.922 23.9678 12 28.8898 12 34.9614C12 41.0331 16.922 45.9551 22.9937 45.9551Z" fill="#FF6900"/>
<path d="M22.9995 41.9574C22.4475 41.9574 22 41.5099 22 40.9579V28.9648C22 28.4128 22.4475 27.9653 22.9995 27.9653C23.5514 27.9653 23.9989 28.4128 23.9989 28.9648V40.9579C23.9988 41.5099 23.5514 41.9574 22.9995 41.9574Z" fill="white"/>
<path d="M26.9973 33.9618C26.7321 33.9622 26.4775 33.8573 26.2897 33.6699L22.9996 30.3778L19.7094 33.6699C19.3125 34.0534 18.6797 34.0423 18.2962 33.6453C17.9221 33.258 17.9221 32.644 18.2962 32.2567L22.294 28.2589C22.6842 27.8688 23.3168 27.8688 23.7072 28.2589L27.7049 32.2567C28.0946 32.6476 28.0937 33.2804 27.7027 33.6701C27.5155 33.8568 27.2618 33.9617 26.9973 33.9618Z" fill="white"/>
</g>
<defs>
<clipPath id="clip0_4276_40911">
<rect width="48" height="48" fill="white"/>
</clipPath>
</defs>
</svg>
