<svg width="48" height="48" viewBox="0 0 48 48" fill="none" xmlns="http://www.w3.org/2000/svg">
<path d="M24 4C12.954 4 4 12.954 4 24C4 35.046 12.954 44 24 44C35.046 44 44 35.046 44 24C44 12.954 35.046 4 24 4ZM24 8C32.836 8 40 15.164 40 24C40 32.836 32.836 40 24 40C15.164 40 8 32.836 8 24C8 15.164 15.164 8 24 8Z" fill="#E6E6E6"/>
<path d="M18.0172 16C17.5067 16 16.9742 16.1718 16.5833 16.5612C15.8056 17.3421 15.8056 18.6522 16.5833 19.4331L21.1322 23.9885L16.5833 28.544C15.8056 29.3249 15.8056 30.635 16.5833 31.4158C17.3631 32.1947 18.6713 32.1947 19.4511 31.4158L24 26.8604L28.5489 31.4158C29.3287 32.1947 30.6369 32.1947 31.4167 31.4158C32.1944 30.635 32.1944 29.3249 31.4167 28.544L26.8678 23.9885L31.4167 19.4331C32.1944 18.6522 32.1944 17.3421 31.4167 16.5612C31.0258 16.1718 30.4933 16 29.9828 16C29.4723 16 28.9398 16.1718 28.5489 16.5612L24 21.1166L19.4511 16.5612C19.0602 16.1718 18.5277 16 18.0172 16Z" fill="#4D4D4D"/>
</svg>
