<svg width="64" height="58" viewBox="0 0 64 58" fill="none" xmlns="http://www.w3.org/2000/svg">
<path d="M20.8995 48.3425L9.77344 29.0001L20.8995 9.65771H43.099L54.2251 29.0001L43.099 48.3425H20.8995Z" fill="white"/>
<path d="M62.9791 25.1634L50.8142 4.01519C49.4453 1.63553 46.8894 0.157227 44.1442 0.157227H19.8559C17.1105 0.157227 14.5547 1.63553 13.1858 4.01519L1.02097 25.1635C-0.340322 27.53 -0.340322 30.4703 1.02097 32.8369L13.1858 53.9851C14.5547 56.3648 17.1107 57.8431 19.8559 57.8431H44.1442C46.8895 57.8431 49.4453 56.3648 50.8142 53.9851L62.9791 32.8368C64.3404 30.4703 64.3404 27.5299 62.9791 25.1634ZM60.8118 31.5902L48.647 52.7383C47.7227 54.3449 45.9975 55.3428 44.1441 55.3428H19.8559C18.0025 55.3428 16.2772 54.3449 15.353 52.7383L3.1881 31.5903C2.26924 29.9926 2.26924 28.0077 3.1881 26.41L15.353 5.26184C16.2772 3.65528 18.0024 2.6574 19.8559 2.6574H44.1442C45.9975 2.6574 47.7229 3.65528 48.6471 5.26184L60.812 26.4099C61.7307 28.0077 61.7307 29.9926 60.8118 31.5902Z" fill="#FF6900"/>
<path d="M40.8355 22.1785C40.503 22.1785 40.1812 22.2256 39.8765 22.3132V20.0028C39.8765 18.1027 38.3247 16.5567 36.4171 16.5567C36.0174 16.5567 35.6335 16.6246 35.276 16.7494C35.1002 16.2261 34.8022 15.7436 34.4026 15.3515C33.7498 14.7108 32.8982 14.3604 31.9978 14.3604C31.9761 14.3604 31.9542 14.3605 31.9324 14.361C30.6585 14.385 29.5463 15.1094 28.9662 16.1581C28.5417 15.9725 28.073 15.8694 27.5805 15.8694C26.2484 15.8694 25.0895 16.6235 24.5118 17.7259C24.1157 17.5565 23.6823 17.459 23.2284 17.4505C22.2991 17.4282 21.4253 17.7855 20.7567 18.4428C20.0866 19.1017 19.7033 20.0147 19.7051 20.9456V31.214C19.7051 33.9631 20.5493 36.602 22.1465 38.8456C22.165 38.8716 22.1845 38.8968 22.205 38.9213L24.9816 42.2496C25.7187 43.1333 26.8016 43.6401 27.9522 43.6401H34.9769C35.7833 43.6401 36.5573 43.3935 37.2152 42.9269C40.4448 40.6364 44.2947 37.3396 44.2947 34.6407V25.625C44.2948 23.7245 42.743 22.1785 40.8355 22.1785ZM41.7945 34.6404C41.7945 35.5909 39.9089 37.9511 35.7689 40.8872C35.5361 41.0523 35.2622 41.1397 34.9771 41.1397H27.9523C27.5454 41.1397 27.1625 40.9604 26.9017 40.6478L24.1566 37.3573C22.8801 35.5478 22.2056 33.4247 22.2056 31.2138V20.9431C22.2051 20.6777 22.316 20.4162 22.5099 20.2256C22.6952 20.0435 22.9349 19.9434 23.1814 19.9503C23.6966 19.96 24.1161 20.3791 24.1214 20.8865V28.7118C24.1214 29.4022 24.6811 29.962 25.3715 29.962C26.0619 29.962 26.6217 29.4022 26.6217 28.7118L26.6218 19.3157C26.6218 18.7941 27.052 18.3698 27.5808 18.3698C28.1095 18.3698 28.5398 18.7943 28.5398 19.3157V28.7118C28.5398 29.4022 29.0996 29.962 29.7899 29.962C30.4803 29.962 31.0401 29.4022 31.0401 28.7118V17.8065C31.0401 17.2948 31.4618 16.8705 31.9799 16.8608C32.2229 16.8565 32.466 16.9539 32.6518 17.1361C32.8466 17.3271 32.9582 17.5896 32.9582 17.856V28.7065C32.9582 29.3968 33.518 29.9566 34.2083 29.9566C34.8988 29.9566 35.4585 29.3968 35.4585 28.7065V20.0029C35.4585 19.4813 35.8887 19.057 36.4175 19.057C36.9463 19.057 37.3766 19.4813 37.3766 20.0028L37.3765 31.462C35.5156 31.7024 34.0734 33.2906 34.0734 35.2079C34.0734 35.8982 34.6333 36.458 35.3236 36.458C36.0141 36.458 36.5738 35.8982 36.5738 35.2079C36.5738 34.5038 37.1539 33.931 37.867 33.931H38.6266C39.3171 33.931 39.8768 33.3713 39.8768 32.6808V25.6343C39.8768 25.6312 39.8769 25.628 39.8769 25.6248C39.8769 25.1033 40.3071 24.679 40.8359 24.679C41.3647 24.679 41.7949 25.1033 41.7949 25.6248V34.6404H41.7945Z" fill="#FF6900"/>
</svg>
