<svg width="64" height="54" viewBox="0 0 64 54" fill="none" xmlns="http://www.w3.org/2000/svg">
<path d="M62.75 6.22217V47.6754C62.75 50.1637 60.7224 52.1808 58.221 52.1808H5.779C3.27775 52.1808 1.25 50.1637 1.25 47.6754V6.22217" stroke="#999400" stroke-width="2.5" stroke-miterlimit="10" stroke-linecap="round" stroke-linejoin="round"/>
<path d="M53.595 6.22217H10.4053" stroke="#999400" stroke-width="2.5" stroke-miterlimit="10" stroke-linecap="round" stroke-linejoin="round"/>
<path d="M10.2086 6.27196C10.2086 3.82296 8.193 1.81934 5.72937 1.81934C3.26562 1.81934 1.25 3.82309 1.25 6.27196V47.7838C1.25 45.3348 3.26562 43.6063 5.72925 43.6063C7.40575 43.6063 8.87475 44.5342 9.64237 45.8988H10.2085L10.2086 6.27196Z" stroke="#999400" stroke-width="2.5" stroke-miterlimit="10" stroke-linecap="round" stroke-linejoin="round"/>
<path d="M58.2703 43.6063C60.7339 43.6063 62.7495 45.4193 62.7495 47.8683V6.27196C62.7495 3.82296 60.7339 1.81934 58.2703 1.81934C55.8066 1.81934 53.791 3.82309 53.791 6.27196V45.8988H54.3571C55.1248 44.5342 56.5938 43.6063 58.2703 43.6063Z" stroke="#999400" stroke-width="2.5" stroke-miterlimit="10" stroke-linecap="round" stroke-linejoin="round"/>
<path d="M31.1836 24.521V43.5422H36.8725V37.4917H42.4468V43.5422H48.1357V24.521H31.1836Z" fill="#FFFC99"/>
<path d="M31.1834 15.0742H15.8643V43.5423H31.1834V15.0742Z" stroke="#999400" stroke-width="2.5" stroke-miterlimit="10" stroke-linecap="round" stroke-linejoin="round"/>
<path d="M21.1621 21.7515H25.8855" stroke="#999400" stroke-width="2.5" stroke-miterlimit="10" stroke-linecap="round" stroke-linejoin="round"/>
<path d="M21.1621 27.5122H25.8855" stroke="#999400" stroke-width="2.5" stroke-miterlimit="10" stroke-linecap="round" stroke-linejoin="round"/>
<path d="M21.1621 33.2729H25.8855" stroke="#999400" stroke-width="2.5" stroke-miterlimit="10" stroke-linecap="round" stroke-linejoin="round"/>
<path d="M23.5234 39.9429V43.2939" stroke="#999400" stroke-width="2.5" stroke-miterlimit="10" stroke-linecap="round" stroke-linejoin="round"/>
<path d="M36.8721 31.6113H42.4464" stroke="#999400" stroke-width="2.5" stroke-miterlimit="10" stroke-linecap="round" stroke-linejoin="round"/>
<path d="M18.5508 43.5425H48.1359" stroke="#999400" stroke-width="2.5" stroke-miterlimit="10" stroke-linecap="round" stroke-linejoin="round"/>
</svg>
