<svg width="52" height="64" viewBox="0 0 52 64" fill="none" xmlns="http://www.w3.org/2000/svg">
<path d="M7.875 10V56.5H44.125V10H37.8747L37.875 13.75H14.125V10H7.875Z" fill="#FFFC99"/>
<path d="M47.875 8.75H39.125V7.5C39.125 6.80975 38.5653 6.25 37.875 6.25H31.625V5.625C31.625 2.52338 29.1017 0 26 0C22.8983 0 20.375 2.52338 20.375 5.625V6.25H14.125C13.4346 6.25 12.875 6.80975 12.875 7.5V8.75H4.125C2.05725 8.75 0.375 10.4323 0.375 12.5V60.25C0.375 62.3177 2.05725 64 4.125 64H47.875C49.9427 64 51.625 62.3177 51.625 60.25V12.5C51.625 10.4323 49.9427 8.75 47.875 8.75ZM15.375 8.75H21.625C22.3154 8.75 22.875 8.19025 22.875 7.5V5.625C22.875 3.90188 24.2769 2.5 26 2.5C27.7231 2.5 29.125 3.90188 29.125 5.625V7.5C29.125 8.19025 29.6847 8.75 30.375 8.75H36.625V12.5H15.375V8.75ZM49.125 60.25C49.125 60.9393 48.5643 61.5 47.875 61.5H4.125C3.43575 61.5 2.875 60.9393 2.875 60.25V12.5C2.875 11.8108 3.43575 11.25 4.125 11.25H12.875V13.75C12.875 14.4403 13.4346 15 14.125 15H37.875C38.5653 15 39.125 14.4403 39.125 13.75V11.25H47.875C48.5643 11.25 49.125 11.8108 49.125 12.5V60.25Z" fill="#999400"/>
<path d="M37.875 30.25H14.125C13.4346 30.25 12.875 30.8096 12.875 31.5C12.875 32.1902 13.4346 32.75 14.125 32.75H37.875C38.5653 32.75 39.125 32.1902 39.125 31.5C39.125 30.8096 38.5653 30.25 37.875 30.25Z" fill="#999400"/>
<path d="M37.875 36.5H34.125C33.4348 36.5 32.875 37.0598 32.875 37.75C32.875 38.4402 33.4348 39 34.125 39H37.875C38.5652 39 39.125 38.4402 39.125 37.75C39.125 37.0598 38.5652 36.5 37.875 36.5Z" fill="#999400"/>
<path d="M14.125 39H27.875C28.5653 39 29.125 38.4402 29.125 37.75C29.125 37.0598 28.5653 36.5 27.875 36.5H14.125C13.4346 36.5 12.875 37.0598 12.875 37.75C12.875 38.4402 13.4346 39 14.125 39Z" fill="#999400"/>
<path d="M37.875 42.75H14.125C13.4346 42.75 12.875 43.3098 12.875 44C12.875 44.6902 13.4346 45.25 14.125 45.25H37.875C38.5653 45.25 39.125 44.6902 39.125 44C39.125 43.3098 38.5653 42.75 37.875 42.75Z" fill="#999400"/>
<path d="M17.875 49H14.125C13.4346 49 12.875 49.5598 12.875 50.25C12.875 50.9402 13.4346 51.5 14.125 51.5H17.875C18.5654 51.5 19.125 50.9402 19.125 50.25C19.125 49.5598 18.5654 49 17.875 49Z" fill="#999400"/>
<path d="M37.875 49H24.125C23.4346 49 22.875 49.5598 22.875 50.25C22.875 50.9402 23.4346 51.5 24.125 51.5H37.875C38.5653 51.5 39.125 50.9402 39.125 50.25C39.125 49.5598 38.5653 49 37.875 49Z" fill="#999400"/>
<path d="M26 7.5C26.3288 7.5 26.6513 7.36625 26.8836 7.13363C27.1163 6.90125 27.25 6.57875 27.25 6.25C27.25 5.92125 27.1163 5.59875 26.8836 5.36625C26.6513 5.13363 26.33 5 26 5C25.6699 5 25.3487 5.13363 25.1162 5.36625C24.8837 5.59875 24.75 5.92125 24.75 6.25C24.75 6.57875 24.8836 6.90125 25.1162 7.13363C25.3487 7.36625 25.6712 7.5 26 7.5Z" fill="#999400"/>
<path d="M37.875 18.75H14.125C13.4346 18.75 12.875 19.3096 12.875 20V25.25C12.875 25.9404 13.4346 26.5 14.125 26.5H37.875C38.5653 26.5 39.125 25.9404 39.125 25.25V20C39.125 19.3096 38.5653 18.75 37.875 18.75ZM36.625 24H15.375V21.25H36.625V24Z" fill="#999400"/>
</svg>
