<svg width="64" height="64" viewBox="0 0 64 64" fill="none" xmlns="http://www.w3.org/2000/svg">
<path d="M6.71717 45.1785L0.107422 55.2144H24.2158L17.1623 45.1785H6.71717Z" fill="#FFFC99"/>
<path d="M46.841 45.1785L39.7871 55.2144H63.8955L57.2859 45.1785H46.841Z" fill="#FFFC99"/>
<path d="M18.9395 36.3926L26.7992 26.357H37.2042L45.064 36.3926H18.9395Z" fill="#FFFC99"/>
<path d="M26.5101 36.3931L32.0012 45.1787H11.292L17.4106 36.3931H26.5101Z" stroke="#999400" stroke-width="2.5" stroke-miterlimit="10" stroke-linecap="round" stroke-linejoin="round"/>
<path d="M46.5916 36.3926L52.7102 45.1782H32.001L37.4921 36.3926H46.5916Z" stroke="#999400" stroke-width="2.5" stroke-miterlimit="10" stroke-linecap="round" stroke-linejoin="round"/>
<path d="M36.5506 45.1785L42.0416 53.9644H21.96L27.451 45.1785H36.5506Z" stroke="#999400" stroke-width="2.5" stroke-miterlimit="10" stroke-linecap="round" stroke-linejoin="round"/>
<path d="M32.001 16.311V10.0354" stroke="#999400" stroke-width="2.5" stroke-miterlimit="10" stroke-linecap="round" stroke-linejoin="round"/>
<path d="M44.4077 15.2266L40.001 19.6333" stroke="#999400" stroke-width="2.5" stroke-miterlimit="10" stroke-linecap="round" stroke-linejoin="round"/>
<path d="M49.5099 27.6699H43.2959" stroke="#999400" stroke-width="2.5" stroke-miterlimit="10" stroke-linecap="round" stroke-linejoin="round"/>
<path d="M20.7067 27.5444H14.3672" stroke="#999400" stroke-width="2.5" stroke-miterlimit="10" stroke-linecap="round" stroke-linejoin="round"/>
<path d="M24.0281 19.6069L19.5586 15.1376" stroke="#999400" stroke-width="2.5" stroke-miterlimit="10" stroke-linecap="round" stroke-linejoin="round"/>
</svg>
