<svg width="32" height="32" viewBox="0 0 32 32" fill="none" xmlns="http://www.w3.org/2000/svg">
<g clip-path="url(#clip0_7421_25746)">
<path d="M9.33236 4C8.59596 4 7.99902 4.59703 7.99902 5.33265C7.99902 6.06827 8.59596 6.66529 9.33236 6.66529C9.33236 13.7768 9.31847 20.8885 9.33366 28L15.999 27.9876C16.735 27.9876 17.3324 27.3906 17.3324 26.655V23.9897C17.3324 23.2541 17.9297 22.6571 18.6657 22.6571C19.4017 22.6571 19.999 23.2541 19.999 23.9897V26.655C19.999 27.3906 20.5964 27.9876 21.3324 27.9876H26.6657C27.4017 27.9876 27.999 27.3906 27.999 26.655V6.66529C28.735 6.66529 29.3324 6.06827 29.3324 5.33265C29.3324 4.59703 28.735 4 27.999 4H9.33236ZM11.999 6.66529H25.3324V25.3223H22.6657V23.9897C22.6657 21.7815 20.875 19.9918 18.6657 19.9918C16.4564 19.9918 14.6657 21.7815 14.6657 23.9897V25.3223H11.999V6.66529Z" fill="#999400"/>
<path fill-rule="evenodd" clip-rule="evenodd" d="M4.00033 9.33325C3.26395 9.33325 2.66699 9.93021 2.66699 10.6666C2.66699 11.403 3.26395 11.9999 4.00033 11.9999V26.6666C4.00033 27.403 4.59728 27.9999 5.33366 27.9999H9.33366V25.3333H6.66699V11.9999H9.33366V9.33325H4.00033ZM17.3337 10.6666C17.3337 11.403 16.7367 11.9999 16.0003 11.9999C15.2639 11.9999 14.667 11.403 14.667 10.6666C14.667 9.93021 15.2639 9.33325 16.0003 9.33325C16.7367 9.33325 17.3337 9.93021 17.3337 10.6666ZM22.667 10.6666C22.667 11.403 22.07 11.9999 21.3337 11.9999C20.5973 11.9999 20.0003 11.403 20.0003 10.6666C20.0003 9.93021 20.5973 9.33325 21.3337 9.33325C22.07 9.33325 22.667 9.93021 22.667 10.6666ZM16.0003 17.3333C16.7367 17.3333 17.3337 16.7363 17.3337 15.9999C17.3337 15.2635 16.7367 14.6666 16.0003 14.6666C15.2639 14.6666 14.667 15.2635 14.667 15.9999C14.667 16.7363 15.2639 17.3333 16.0003 17.3333ZM22.667 15.9999C22.667 16.7363 22.07 17.3333 21.3337 17.3333C20.5973 17.3333 20.0003 16.7363 20.0003 15.9999C20.0003 15.2635 20.5973 14.6666 21.3337 14.6666C22.07 14.6666 22.667 15.2635 22.667 15.9999Z" fill="#1A1A1A"/>
</g>
<defs>
<clipPath id="clip0_7421_25746">
<rect width="32" height="32" fill="white"/>
</clipPath>
</defs>
</svg>
